<?xml version="1.0" encoding="UTF-8"?>
<svg version="1.1" xmlns="http://www.w3.org/2000/svg" width="800" height="800">
<path d="M0 0 C264 0 528 0 800 0 C800 264 800 528 800 800 C536 800 272 800 0 800 C0 536 0 272 0 0 Z " fill="#1800AD" transform="translate(0,0)"/>
<path d="M0 0 C1.15285995 0.00090637 1.15285995 0.00090637 2.32901001 0.00183105 C13.92004627 0.02649699 25.28345295 0.41072719 36.75 2.1875 C38.1736084 2.39681152 38.1736084 2.39681152 39.62597656 2.61035156 C51.59811826 4.38637636 63.23383034 6.41109371 74.75 10.1875 C76.41114098 10.69764909 78.07262782 11.20667275 79.734375 11.71484375 C122.56092874 25.07440309 157.82722878 57.92938211 178.75 97.1875 C187.19055668 113.46686264 192.2617284 130.24032718 195.75 148.1875 C196.03689697 149.65388916 196.03689697 149.65388916 196.32958984 151.14990234 C197.94588701 160.35202087 198.06582854 169.37805407 198 178.6875 C197.99656586 179.48152222 197.99313171 180.27554443 197.98959351 181.09362793 C197.8832109 202.10300456 195.49170417 221.69448371 190.75 242.1875 C190.58290527 242.91018066 190.41581055 243.63286133 190.24365234 244.37744141 C188.11684783 253.45380435 188.11684783 253.45380435 186.75 256.1875 C185.43 256.1875 184.11 256.1875 182.75 256.1875 C180.8125 253.828125 180.8125 253.828125 178.75 250.4375 C178.36827637 249.81987793 177.98655273 249.20225586 177.59326172 248.56591797 C176.29356208 246.45047694 175.01921082 244.32136647 173.75 242.1875 C173.2849707 241.40600586 172.81994141 240.62451172 172.34082031 239.81933594 C171.85967773 239.01012695 171.37853516 238.20091797 170.8828125 237.3671875 C158.7229802 216.91882457 145.55502619 197.11672094 129.17578125 179.765625 C127.06314056 177.52030639 125.05219384 175.2284979 123.0625 172.875 C119.59754207 168.90575242 115.82160821 165.52423258 111.75 162.1875 C110.74066406 161.3521875 109.73132813 160.516875 108.69140625 159.65625 C82.54999939 138.36469219 52.83897462 127.56744394 20 121.25 C18.88330429 121.034646 18.88330429 121.034646 17.74404907 120.81494141 C7.46301308 118.85710903 -2.84161969 117.29542041 -13.25 116.1875 C-14.48413132 116.05210312 -14.48413132 116.05210312 -15.74319458 115.91397095 C-31.81955373 114.19177503 -47.77912733 113.86620123 -63.9375 113.9375 C-65.78394608 113.94165421 -65.78394608 113.94165421 -67.66769409 113.94589233 C-85.26605191 113.99234033 -102.74706716 114.19629556 -120.25 116.1875 C-121.62285156 116.34025391 -121.62285156 116.34025391 -123.0234375 116.49609375 C-128.66615053 117.14348717 -134.28766998 117.90525883 -139.90917969 118.71484375 C-143.04024097 119.15782348 -146.17367829 119.57904806 -149.30859375 119.99375916 C-168.51437307 122.54060662 -187.36363742 125.80657529 -206.25 130.1875 C-208.18024735 130.6256664 -210.11049966 131.06381207 -212.04101562 131.50079346 C-226.21011792 134.71218273 -240.31823467 138.05558724 -254.25 142.1875 C-255.04132324 142.41840332 -255.83264648 142.64930664 -256.64794922 142.88720703 C-299.55222855 155.43710118 -341.49536525 170.82347555 -382.25 189.1875 C-383.35021484 189.68314453 -384.45042969 190.17878906 -385.58398438 190.68945312 C-421.59519004 206.98790578 -458.51583156 223.81054597 -492.00634766 244.92529297 C-492.89757324 245.48490723 -493.78879883 246.04452148 -494.70703125 246.62109375 C-495.50729736 247.13599365 -496.30756348 247.65089355 -497.13208008 248.18139648 C-499.25 249.1875 -499.25 249.1875 -502.25 248.1875 C-488.65823863 236.42664151 -474.86408752 224.93345643 -460.6875 213.8828125 C-457.75150943 211.59053284 -454.850668 209.25742047 -451.95458984 206.91503906 C-442.24905246 199.07704704 -432.27008547 191.61691412 -422.25 184.1875 C-421.43950195 183.58615234 -420.62900391 182.98480469 -419.79394531 182.36523438 C-415.05277193 178.85112045 -410.30110814 175.35167629 -405.53955078 171.86523438 C-404.04429447 170.76954218 -402.55041538 169.67196738 -401.05810547 168.57226562 C-389.07103099 159.7428282 -376.76871462 151.44368548 -364.34667969 143.24023438 C-361.29814112 141.2194119 -358.26062469 139.18310544 -355.2265625 137.140625 C-281.86746912 87.79932755 -202.08742265 44.08545963 0 0 Z " fill="#DB1F24" transform="translate(539.25,77.8125)"/>
<path d="M0 0 C0.87177887 0.00719055 1.74355774 0.0143811 2.64175415 0.02178955 C3.55888184 0.0214975 4.47600952 0.02120544 5.42092896 0.02090454 C8.46191771 0.0223014 11.5026635 0.03787932 14.54360962 0.05352783 C16.64825303 0.0572567 18.75289818 0.06010426 20.85754395 0.06210327 C26.40439626 0.06974969 31.95114429 0.08940683 37.49795532 0.11151123 C43.15508615 0.13194796 48.81223379 0.14110033 54.46939087 0.15118408 C65.57490551 0.17265177 76.68034265 0.20679985 87.78579712 0.24884033 C87.78579712 1.23884033 87.78579712 2.22884033 87.78579712 3.24884033 C87.12579712 3.24884033 86.46579712 3.24884033 85.78579712 3.24884033 C85.81673462 5.13602783 85.81673462 5.13602783 85.84829712 7.06134033 C85.89465795 9.8893512 85.70272673 11.49805149 84.78579712 14.24884033 C84.12579712 14.24884033 83.46579712 14.24884033 82.78579712 14.24884033 C82.82704712 15.46571533 82.86829712 16.68259033 82.91079712 17.93634033 C82.91710906 21.53414787 82.22989575 23.93590817 80.78579712 27.24884033 C80.43615532 29.57978567 80.10025225 31.91288795 79.78579712 34.24884033 C79.45579712 34.57884033 79.12579712 34.90884033 78.78579712 35.24884033 C78.2910682 38.22615471 77.83902283 41.19940997 77.41079712 44.18634033 C76.49990481 50.25409461 75.47346107 56.05469479 73.53189087 61.88946533 C72.64605225 64.69075605 71.99487859 67.50791164 71.34829712 70.37384033 C68.00211176 85.19761484 64.16001963 99.90043484 59.82876587 114.46759033 C58.30168486 120.00397393 57.01730835 125.59155211 55.72329712 131.18634033 C55.45452759 132.32780518 55.18575806 133.46927002 54.90884399 134.64532471 C53.55037251 140.50944974 52.38128364 146.2572167 51.78579712 152.24884033 C51.12579712 152.24884033 50.46579712 152.24884033 49.78579712 152.24884033 C49.76001587 152.78509033 49.73423462 153.32134033 49.70767212 153.87384033 C48.98198769 163.9014797 46.08908979 173.4951028 43.44595337 183.15118408 C41.25704989 191.20054756 39.19780632 198.87131999 38.78579712 207.24884033 C37.79579712 207.24884033 36.80579712 207.24884033 35.78579712 207.24884033 C35.56923462 208.67196533 35.56923462 208.67196533 35.34829712 210.12384033 C34.78579712 213.24884033 34.78579712 213.24884033 33.78579712 215.24884033 C33.62935787 217.07975892 33.51010894 218.91393617 33.41079712 220.74884033 C32.98135909 226.57793359 31.7201123 231.75003241 29.78579712 237.24884033 C29.12579712 237.24884033 28.46579712 237.24884033 27.78579712 237.24884033 C27.64142212 238.52759033 27.49704712 239.80634033 27.34829712 241.12384033 C27.07936966 243.50576928 26.86353366 245.09336725 25.78579712 247.24884033 C25.25877967 250.45523222 24.82479809 253.67024502 24.38345337 256.88946533 C23.80115759 260.16250043 22.9161069 263.12748277 21.78579712 266.24884033 C21.12579712 266.24884033 20.46579712 266.24884033 19.78579712 266.24884033 C19.82446899 267.38321533 19.86314087 268.51759033 19.90298462 269.68634033 C19.90091285 274.39339537 19.0078836 278.68931779 17.91079712 283.24884033 C17.73677368 284.00423096 17.56275024 284.75962158 17.38345337 285.53790283 C16.24239373 290.45713774 15.01079965 295.3488302 13.78579712 300.24884033 C-17.56420288 300.24884033 -48.91420288 300.24884033 -81.21420288 300.24884033 C-81.21420288 294.18192803 -80.80638385 291.27510018 -78.83920288 285.81134033 C-77.02681998 280.66407118 -75.41008617 275.57595678 -74.21420288 270.24884033 C-73.55420288 270.24884033 -72.89420288 270.24884033 -72.21420288 270.24884033 C-72.23740601 269.47540283 -72.26060913 268.70196533 -72.28451538 267.90509033 C-72.39349194 261.61558595 -72.06546381 256.26543834 -70.21420288 250.24884033 C-68.89420288 250.24884033 -67.57420288 250.24884033 -66.21420288 250.24884033 C-66.26060913 249.51020752 -66.30701538 248.77157471 -66.35482788 248.01055908 C-66.54475359 242.67229008 -66.49811993 238.26940651 -64.40170288 233.31134033 C-62.16566593 227.91670572 -61.47786852 222.68589861 -60.77670288 216.93634033 C-59.81245987 209.18688585 -58.2406316 202.56716363 -55.35482788 195.29180908 C-53.75851853 191.03316187 -52.90644086 186.73288934 -52.21420288 182.24884033 C-51.55420288 182.24884033 -50.89420288 182.24884033 -50.21420288 182.24884033 C-50.21420288 179.60884033 -50.21420288 176.96884033 -50.21420288 174.24884033 C-49.55420288 174.24884033 -48.89420288 174.24884033 -48.21420288 174.24884033 C-48.24175659 173.6596582 -48.2693103 173.07047607 -48.29769897 172.46343994 C-48.47599715 165.60030066 -47.42458406 159.46905062 -45.83920288 152.81134033 C-45.3919891 150.87558068 -44.94667018 148.93938227 -44.50326538 147.00274658 C-44.28557495 146.05456055 -44.06788452 145.10637451 -43.84359741 144.12945557 C-42.83767172 139.52553113 -42.03333288 134.88884886 -41.21420288 130.24884033 C-40.8461254 128.35165083 -40.4734873 126.45531354 -40.08920288 124.56134033 C-39.83783569 123.31803955 -39.83783569 123.31803955 -39.58139038 122.04962158 C-39.39963257 121.15823486 -39.39963257 121.15823486 -39.21420288 120.24884033 C-38.55420288 120.24884033 -37.89420288 120.24884033 -37.21420288 120.24884033 C-37.16521851 119.51278564 -37.11623413 118.77673096 -37.06576538 118.01837158 C-36.99099976 117.04255127 -36.91623413 116.06673096 -36.83920288 115.06134033 C-36.73478882 113.6169458 -36.73478882 113.6169458 -36.62826538 112.14337158 C-36.20981349 109.218156 -35.3404729 106.96513862 -34.21420288 104.24884033 C-33.81052588 102.07924467 -33.81052588 102.07924467 -33.65170288 99.99884033 C-33.21420288 96.24884033 -33.21420288 96.24884033 -32.21420288 95.24884033 C-31.9813328 93.56700086 -31.80156122 91.87759873 -31.65170288 90.18634033 C-31.56791382 89.26723877 -31.48412476 88.34813721 -31.39779663 87.40118408 C-31.30691772 86.33577393 -31.30691772 86.33577393 -31.21420288 85.24884033 C-30.22420288 85.24884033 -29.23420288 85.24884033 -28.21420288 85.24884033 C-28.23482788 83.97009033 -28.25545288 82.69134033 -28.27670288 81.37384033 C-28.33920288 77.49884033 -28.33920288 77.49884033 -27.21420288 75.24884033 C-26.98120784 73.01381386 -26.83326616 70.78041509 -26.69076538 68.53790283 C-26.21420288 66.24884033 -26.21420288 66.24884033 -24.79403687 64.46807861 C-22.92207054 61.83847362 -22.27234253 59.5716841 -21.46029663 56.45196533 C-21.16316772 55.32790283 -20.86603882 54.20384033 -20.55990601 53.04571533 C-20.26019897 51.87524658 -19.96049194 50.70477783 -19.65170288 49.49884033 C-19.19634155 47.76634033 -19.19634155 47.76634033 -18.73178101 45.99884033 C-16.45150411 37.29503831 -14.27019335 28.57073717 -12.21420288 19.81134033 C-12.03905151 19.07069336 -11.86390015 18.33004639 -11.68344116 17.56695557 C-10.76274125 13.65805675 -9.89403053 9.74605331 -9.08920288 5.81134033 C-7.63979796 -0.08980827 -5.69742609 0.01973604 0 0 Z " fill="#FDFDFE" transform="translate(410.2142028808594,418.75115966796875)"/>
<path d="M0 0 C1.02813812 -0.00100708 2.05627625 -0.00201416 3.11557007 -0.00305176 C20.35755391 0.00830429 37.15431558 0.88525114 54.25 3.25 C55.39710449 3.39985352 56.54420898 3.54970703 57.72607422 3.70410156 C71.55841761 5.52776391 84.98429885 7.88286308 98.25 12.25 C99.01328613 12.49588867 99.77657227 12.74177734 100.56298828 12.99511719 C141.09335815 26.25839158 169.95506617 55.70584379 189.3137207 93.02734375 C200.54615179 115.21215021 208.308765 138.52549815 214.26025391 162.63964844 C215.59685804 168.01548399 217.20121555 173.10100214 219.25 178.25 C218.59 178.25 217.93 178.25 217.25 178.25 C215.85645754 176.36278106 214.60895075 174.48963022 213.375 172.5 C212.78887939 171.57356689 212.78887939 171.57356689 212.19091797 170.62841797 C209.34927728 166.10415404 206.61437473 161.51865168 203.88842773 156.92407227 C192.2548451 137.32958343 179.35294688 118.43548425 163.67578125 101.828125 C161.56314056 99.58280639 159.55219384 97.2909979 157.5625 94.9375 C154.09754207 90.96825242 150.32160821 87.58673258 146.25 84.25 C145.24066406 83.4146875 144.23132813 82.579375 143.19140625 81.71875 C117.04999939 60.42719219 87.33897462 49.62994394 54.5 43.3125 C53.38330429 43.097146 53.38330429 43.097146 52.24404907 42.87744141 C41.96301308 40.91960903 31.65838031 39.35792041 21.25 38.25 C20.01586868 38.11460312 20.01586868 38.11460312 18.75680542 37.97647095 C2.68044627 36.25427503 -13.27912733 35.92870123 -29.4375 36 C-31.28394608 36.00415421 -31.28394608 36.00415421 -33.16769409 36.00839233 C-50.76605191 36.05484033 -68.24706716 36.25879556 -85.75 38.25 C-87.12285156 38.40275391 -87.12285156 38.40275391 -88.5234375 38.55859375 C-94.16615053 39.20598717 -99.78766998 39.96775883 -105.40917969 40.77734375 C-108.54024097 41.22032348 -111.67367829 41.64154806 -114.80859375 42.05625916 C-134.01437307 44.60310662 -152.86363742 47.86907529 -171.75 52.25 C-173.68024735 52.6881664 -175.61049966 53.12631207 -177.54101562 53.56329346 C-191.71011792 56.77468273 -205.81823467 60.11808724 -219.75 64.25 C-220.54132324 64.48090332 -221.33264648 64.71180664 -222.14794922 64.94970703 C-265.05222855 77.49960118 -306.99536525 92.88597555 -347.75 111.25 C-348.85021484 111.74564453 -349.95042969 112.24128906 -351.08398438 112.75195312 C-405.75130135 137.42946916 -405.75130135 137.42946916 -457.75 167.171875 C-458.41 167.52765625 -459.07 167.8834375 -459.75 168.25 C-460.41 167.92 -461.07 167.59 -461.75 167.25 C-450.98656908 158.87104202 -440.07494673 150.85171596 -428.75 143.25 C-427.52719433 142.42209566 -426.30453558 141.59397425 -425.08203125 140.765625 C-395.50374031 120.80176846 -364.51322044 103.11464944 -332.78613281 86.81201172 C-330.78322021 85.78156505 -328.78251094 84.74682286 -326.78417969 83.70751953 C-271.06083109 54.76827146 -210.98879368 33.16819851 -149.87402344 18.98388672 C-146.79856643 18.26140909 -143.73114404 17.51107045 -140.6640625 16.75390625 C-114.61894432 10.40294718 -88.23952116 6.47724393 -61.625 3.4375 C-60.7109137 3.3322702 -59.79682739 3.22704041 -58.8550415 3.11862183 C-39.22106767 0.881641 -19.75817733 0.01357854 0 0 Z " fill="#FDFCFD" transform="translate(504.75,155.75)"/>
<path d="M0 0 C0.99 0.495 0.99 0.495 2 1 C1.43152344 1.556875 0.86304688 2.11375 0.27734375 2.6875 C-3.33453658 6.25717138 -6.9062377 9.80887969 -10.1875 13.6875 C-14.12296638 18.2865579 -18.44001763 22.49391946 -22.76245117 26.7253418 C-25.7713507 29.69027258 -28.65056172 32.70335288 -31.40625 35.90625 C-35.88801443 41.09829406 -40.79326217 45.84168324 -45.68359375 50.64453125 C-49.08788338 54.01188465 -52.39213088 57.39401935 -55.50390625 61.03515625 C-57.92659125 63.85734499 -60.45569833 66.43620113 -63.18359375 68.96484375 C-63.88291016 69.62033203 -64.58222656 70.27582031 -65.30273438 70.95117188 C-66.73870505 72.28729463 -68.18965397 73.60748032 -69.65429688 74.91210938 C-73.61421084 78.58836678 -73.61421084 78.58836678 -75.46923828 83.50830078 C-75.47227732 85.72723345 -75.34545662 87.81020473 -75 90 C-74.39639648 90.08040527 -73.79279297 90.16081055 -73.17089844 90.24365234 C-55.32051696 92.62892063 -37.68112595 95.58602206 -20 99 C-20 99.33 -20 99.66 -20 100 C-38.15 100.99 -56.3 101.98 -75 103 C-76.45400845 111.20993258 -76.45400845 111.20993258 -73.04125977 117.10717773 C-72.59451904 117.64930908 -72.14777832 118.19144043 -71.6875 118.75 C-71.23109131 119.34433838 -70.77468262 119.93867676 -70.30444336 120.55102539 C-68.890388 122.38470769 -67.44638296 124.19177312 -66 126 C-65.16091065 127.08480896 -64.32484532 128.17196539 -63.4921875 129.26171875 C-61.86267699 131.3916095 -60.22659126 133.51470659 -58.58203125 135.6328125 C-54.77641985 140.56324238 -51.12744268 145.60934801 -47.45703125 150.640625 C-45.63923593 153.13180445 -43.80129393 155.60544209 -41.9375 158.0625 C-37.49553022 163.94581691 -33.27005932 169.99153708 -29 176 C-32.57531861 176 -32.89268667 175.49892556 -35.37109375 173.10546875 C-36.02231201 172.48446289 -36.67353027 171.86345703 -37.34448242 171.22363281 C-38.03517822 170.55170898 -38.72587402 169.87978516 -39.4375 169.1875 C-40.87979826 167.81076818 -42.32251045 166.43446989 -43.765625 165.05859375 C-44.48041016 164.37265137 -45.19519531 163.68670898 -45.93164062 162.97998047 C-48.82562139 160.20965658 -51.74689018 157.47068939 -54.6875 154.75 C-55.59886719 153.89921875 -56.51023437 153.0484375 -57.44921875 152.171875 C-59.90947369 149.95478874 -59.90947369 149.95478874 -62.6328125 148.4296875 C-65.06950792 146.95801997 -66.42045129 145.58267525 -68.1875 143.375 C-71.67823191 139.23783626 -75.50338162 135.6729722 -79.58984375 132.12890625 C-82 130 -82 130 -83.87890625 128.02734375 C-85.56296369 126.3120277 -86.86931959 125.11168305 -89 124 C-91.34588796 124.15017767 -91.34588796 124.15017767 -93.71484375 124.85546875 C-94.51913818 125.06196045 -95.32343262 125.26845215 -96.15209961 125.48120117 C-96.76190674 125.65240479 -97.37171387 125.8236084 -98 126 C-102.56349953 152.48926475 -102.56349953 152.48926475 -107 179 C-107.33 179 -107.66 179 -108 179 C-108.05304543 178.1146331 -108.05304543 178.1146331 -108.10716248 177.21138 C-108.47621864 171.0629449 -108.85011315 164.91481753 -109.22680664 158.7668457 C-109.36671828 156.47297567 -109.5054 154.17903028 -109.64282227 151.88500977 C-109.84066923 148.58589376 -110.04295126 145.2870749 -110.24609375 141.98828125 C-110.3065538 140.96414627 -110.36701385 139.94001129 -110.42930603 138.88484192 C-110.48929276 137.92422348 -110.54927948 136.96360504 -110.61108398 135.97387695 C-110.66215805 135.13226517 -110.71323212 134.29065338 -110.76585388 133.42353821 C-111.00977749 130.89879772 -111.4616969 128.47726483 -112 126 C-115.82826213 124.57553037 -118.91345091 123.59836879 -123 124 C-125.29174262 125.23503288 -125.29174262 125.23503288 -127.44921875 127.04296875 C-128.28791504 127.69797363 -129.12661133 128.35297852 -129.99072266 129.02783203 C-130.88065918 129.74052246 -131.7705957 130.45321289 -132.6875 131.1875 C-134.58316473 132.66985143 -136.48032427 134.15029306 -138.37890625 135.62890625 C-139.32652832 136.37027832 -140.27415039 137.11165039 -141.25048828 137.87548828 C-145.14407262 140.88400994 -149.12104503 143.76586365 -153.125 146.625 C-160.34458237 151.79421774 -167.5047897 157.03834771 -174.63330078 162.33251953 C-178.68924099 165.33565242 -182.77081315 168.24564105 -187 171 C-185.66000502 167.993182 -184.20154709 166.00237391 -181.8125 163.75 C-179.40558542 161.41185441 -177.12027956 159.04842283 -174.9375 156.5 C-171.40166164 152.39489968 -167.70672361 148.4499698 -164 144.5 C-158.66665739 138.82553294 -158.66665739 138.82553294 -153.5 133 C-151.23608763 130.38573235 -148.92617828 127.83396796 -146.54296875 125.328125 C-145.91132813 124.65910156 -145.2796875 123.99007812 -144.62890625 123.30078125 C-143.35563101 121.95577219 -142.07841133 120.61448392 -140.796875 119.27734375 C-140.20777344 118.65472656 -139.61867188 118.03210938 -139.01171875 117.390625 C-138.21447388 116.5557959 -138.21447388 116.5557959 -137.40112305 115.70410156 C-135.84119941 113.8068604 -134.80004078 112.33257768 -134 110 C-134.40248063 107.3715726 -134.40248063 107.3715726 -135.375 104.75 C-135.81972656 103.41195312 -135.81972656 103.41195312 -136.2734375 102.046875 C-136.51320313 101.37140625 -136.75296875 100.6959375 -137 100 C-153.65906782 96.95717026 -170.32757322 93.96871086 -187 91 C-187 90.67 -187 90.34 -187 90 C-180.37983483 89.57096419 -173.75954336 89.14391983 -167.13916016 88.71826172 C-164.88685189 88.5732132 -162.63457296 88.4277083 -160.38232422 88.28173828 C-157.14558389 88.07204201 -153.90874169 87.86398555 -150.671875 87.65625 C-149.66445251 87.59062866 -148.65703003 87.52500732 -147.61907959 87.45739746 C-146.67840637 87.39733521 -145.73773315 87.33727295 -144.76855469 87.27539062 C-143.94248718 87.22209595 -143.11641968 87.16880127 -142.26531982 87.1138916 C-140.17916977 87.00900797 -138.08878497 87 -136 87 C-135.62562851 85.3420691 -135.30704854 83.67170873 -135 82 C-134.85095215 81.33718018 -134.7019043 80.67436035 -134.54833984 79.99145508 C-133.78461201 75.7480564 -133.55062444 72.93879534 -136.03515625 69.2890625 C-137.0204701 68.04842764 -138.03139686 66.82784852 -139.0625 65.625 C-140.18258229 64.22914113 -141.30100449 62.83194892 -142.41796875 61.43359375 C-143.00755371 60.71026855 -143.59713867 59.98694336 -144.20458984 59.24169922 C-147.21699591 55.48049274 -150.03643469 51.58051544 -152.875 47.6875 C-154.04760378 46.09332815 -155.22078679 44.49958219 -156.39453125 42.90625 C-158.8744084 39.53367138 -161.35011173 36.15806324 -163.82421875 32.78125 C-164.45021973 31.92829346 -165.0762207 31.07533691 -165.72119141 30.1965332 C-166.91392095 28.5712771 -168.10510215 26.9448831 -169.29443359 25.31713867 C-172.40037646 21.08732885 -175.59245913 16.99132814 -179 13 C-178.67 12.34 -178.34 11.68 -178 11 C-177.32179199 11.64062378 -177.32179199 11.64062378 -176.62988281 12.29418945 C-161.09732592 27.03425401 -161.09732592 27.03425401 -145.1640625 41.3359375 C-140.29019267 45.58885895 -135.6059035 50.03304905 -130.91210938 54.48242188 C-128.95137412 56.3326395 -126.97782413 58.16807888 -125 60 C-124.37939697 60.58974609 -123.75879395 61.17949219 -123.11938477 61.78710938 C-119.6755062 64.98954065 -119.6755062 64.98954065 -115.34765625 66.5859375 C-114.59355469 66.51632812 -113.83945312 66.44671875 -113.0625 66.375 C-112.29035156 66.32085937 -111.51820313 66.26671875 -110.72265625 66.2109375 C-109.86994141 66.10652344 -109.86994141 66.10652344 -109 66 C-106.84775667 55.2061736 -105.0864337 44.37339207 -103.44628906 33.49072266 C-102.36463283 26.31515121 -101.21406328 19.15438745 -100 12 C-99.67 12 -99.34 12 -99 12 C-98.94148613 12.9859893 -98.94148613 12.9859893 -98.88179016 13.99189758 C-98.47170784 20.82304942 -98.02843248 27.65146651 -97.56567383 34.47924805 C-97.39728241 37.02882728 -97.2374101 39.57898387 -97.08618164 42.12963867 C-96.86752325 45.79270098 -96.61846442 49.45260499 -96.36328125 53.11328125 C-96.30159256 54.2571077 -96.23990387 55.40093414 -96.17634583 56.579422 C-96.09664047 57.64029526 -96.01693512 58.70116852 -95.93481445 59.79418945 C-95.87485794 60.72906693 -95.81490143 61.6639444 -95.75312805 62.62715149 C-95.17835945 65.23498374 -95.17835945 65.23498374 -92.56291199 66.82756042 C-90.17535997 68.14313133 -90.17535997 68.14313133 -88.05859375 67.96484375 C-85.07812133 66.56792404 -82.61475527 64.60875092 -80.0625 62.5625 C-78.89470509 61.64431011 -77.72673148 60.72634746 -76.55859375 59.80859375 C-75.96546387 59.33921387 -75.37233398 58.86983398 -74.76123047 58.38623047 C-72.07167013 56.2693295 -69.34654147 54.20063793 -66.625 52.125 C-61.867203 48.47733154 -57.17319568 44.75527852 -52.5 41 C-47.41779108 36.91613981 -42.30037792 32.89004387 -37.12280273 28.92749023 C-24.66534712 19.39278158 -12.3228648 9.70772307 0 0 Z " fill="#FCFCF9" transform="translate(566,221)"/>
<path d="M0 0 C1 3 1 3 -0.4375 6.1875 C-1.2109375 7.5796875 -1.2109375 7.5796875 -2 9 C0.97 8.34 3.94 7.68 7 7 C6.34 9.31 5.68 11.62 5 14 C5.33 13.67 5.66 13.34 6 13 C8.9375 12.8125 8.9375 12.8125 12 13 C12.66 13.66 13.32 14.32 14 15 C14.03738281 14.38511719 14.07476562 13.77023437 14.11328125 13.13671875 C14.17902344 12.32847656 14.24476563 11.52023437 14.3125 10.6875 C14.39951172 9.48673828 14.39951172 9.48673828 14.48828125 8.26171875 C15.08206694 5.63727666 15.95780294 4.69179328 18 3 C24.875 5.875 24.875 5.875 26 7 C26.36760731 9.32817964 26.70241581 11.6618385 27 14 C28.65 13.34 30.3 12.68 32 12 C31.01 10.515 31.01 10.515 30 9 C30 8.01 30 7.02 30 6 C32.8125 6.25 32.8125 6.25 36 7 C37.04625409 8.29735507 38.04701223 9.63266972 39 11 C41.58498512 12.26847685 41.58498512 12.26847685 44 13 C43.505 11.88625 43.505 11.88625 43 10.75 C42 8 42 8 42 4 C46.20763224 5.5027258 47.8027758 8.23332995 50 12 C50 12.66 50 13.32 50 14 C51.32 13.67 52.64 13.34 54 13 C60.34251853 20.44726049 66.329862 28.02065257 72 36 C73.37252791 37.89762382 74.74752134 39.79346685 76.125 41.6875 C76.79015625 42.60273438 77.4553125 43.51796875 78.140625 44.4609375 C79.70141672 46.59227074 81.28001723 48.70676432 82.875 50.8125 C87.37885897 56.78011314 91.66936384 62.90629852 96 69 C92.42468139 69 92.10731333 68.49892556 89.62890625 66.10546875 C88.97768799 65.48446289 88.32646973 64.86345703 87.65551758 64.22363281 C86.96482178 63.55170898 86.27412598 62.87978516 85.5625 62.1875 C84.12020174 60.81076818 82.67748955 59.43446989 81.234375 58.05859375 C80.51958984 57.37265137 79.80480469 56.68670898 79.06835938 55.97998047 C76.17437861 53.20965658 73.25310982 50.47068939 70.3125 47.75 C69.40113281 46.89921875 68.48976563 46.0484375 67.55078125 45.171875 C65.09052631 42.95478874 65.09052631 42.95478874 62.3671875 41.4296875 C59.93049208 39.95801997 58.57954871 38.58267525 56.8125 36.375 C53.32176809 32.23783626 49.49661838 28.6729722 45.41015625 25.12890625 C43 23 43 23 41.12109375 21.02734375 C39.43703631 19.3120277 38.13068041 18.11168305 36 17 C33.65411204 17.15017767 33.65411204 17.15017767 31.28515625 17.85546875 C30.48086182 18.06196045 29.67656738 18.26845215 28.84790039 18.48120117 C28.23809326 18.65240479 27.62828613 18.8236084 27 19 C22.43650047 45.48926475 22.43650047 45.48926475 18 72 C17.67 72 17.34 72 17 72 C16.96463638 71.4097554 16.92927277 70.8195108 16.89283752 70.21138 C16.52378136 64.0629449 16.14988685 57.91481753 15.77319336 51.7668457 C15.63328172 49.47297567 15.4946 47.17903028 15.35717773 44.88500977 C15.15933077 41.58589376 14.95704874 38.2870749 14.75390625 34.98828125 C14.6934462 33.96414627 14.63298615 32.94001129 14.57069397 31.88484192 C14.51070724 30.92422348 14.45072052 29.96360504 14.38891602 28.97387695 C14.31230492 27.71145927 14.31230492 27.71145927 14.23414612 26.42353821 C13.99022251 23.89879772 13.5383031 21.47726483 13 19 C9.1722596 17.5757245 6.08575028 16.58624825 2 17 C-0.37441516 18.30082787 -0.37441516 18.30082787 -2.625 20.18359375 C-3.4902832 20.86010986 -4.35556641 21.53662598 -5.24707031 22.23364258 C-6.15553711 22.96091553 -7.06400391 23.68818848 -8 24.4375 C-9.88923337 25.91064061 -11.77985513 27.38200243 -13.671875 28.8515625 C-14.58646484 29.56602539 -15.50105469 30.28048828 -16.44335938 31.01660156 C-24.15506407 36.99921128 -31.38823801 42.5563317 -41 45 C-36.25466682 38.40326789 -31.15861933 32.06099915 -25.3359375 26.375 C-23.75165312 24.74439152 -22.92507899 23.06363775 -22 21 C-21.34 21 -20.68 21 -20 21 C-19.7525 20.21625 -19.505 19.4325 -19.25 18.625 C-17.76880562 15.5144918 -17.02705226 15.38379532 -14 14 C-12.29006566 12.3777546 -10.62652316 10.70586575 -9 9 C-6 6 -3 3 0 0 Z " fill="#FBF4D1" transform="translate(441,328)"/>
<path d="M0 0 C2.33682135 1.9960349 4.66946989 3.99664046 7 6 C7.5671875 6.48339844 8.134375 6.96679688 8.71875 7.46484375 C14.11496786 12.11553151 19.29366401 16.99174642 24.48779297 21.86499023 C27.82120677 24.98676536 31.17035826 28.07416922 34.625 31.0625 C43.40989174 38.66334112 43.40989174 38.66334112 45 43 C45 43.99 45 44.98 45 46 C45.56976563 46.26425781 46.13953125 46.52851563 46.7265625 46.80078125 C53.41274987 50.32768765 59.76343434 55.70330045 64 62 C64 62.66 64 63.32 64 64 C60.20696275 62.99806563 57.28463659 62.18975773 54 60 C54.66 62.31 55.32 64.62 56 67 C56.66 67 57.32 67 58 67 C58 68.98 58 70.96 58 73 C54.32097231 72.78976985 53.1456986 72.15317032 50.5625 69.4375 C49.69514646 68.30161596 48.84165059 67.15505801 48 66 C47.56042969 65.42121094 47.12085938 64.84242188 46.66796875 64.24609375 C45.09792447 62.17432733 43.54999519 60.08680546 42 58 C40.66691484 56.22897984 39.33355582 54.45816579 38 52.6875 C34.07725766 47.45717689 30.18954733 42.20176738 26.3125 36.9375 C25.72283447 36.13699219 25.13316895 35.33648437 24.52563477 34.51171875 C21.40022966 30.26658355 18.27961455 26.01799681 15.1640625 21.765625 C14.22759888 20.48957397 14.22759888 20.48957397 13.2722168 19.18774414 C12.08195428 17.56572438 10.89322143 15.94258059 9.70629883 14.31811523 C7.25822454 10.98425085 4.79703653 7.71725391 2.09765625 4.58203125 C0 2 0 2 0 0 Z " fill="#F9F2CE" transform="translate(387,232)"/>
<path d="M0 0 C32.01 0 64.02 0 97 0 C97 2.64 97 5.28 97 8 C96.34 8 95.68 8 95 8 C95.0515625 9.24652344 95.103125 10.49304688 95.15625 11.77734375 C95.15625 17.58635273 93.87552699 22.94514517 92.5 28.5625 C92.26152344 29.57119141 92.02304687 30.57988281 91.77734375 31.61914062 C91.19379784 34.08170438 90.60122249 36.54170359 90 39 C89.34 39 88.68 39 88 39 C87.814375 40.918125 87.814375 40.918125 87.625 42.875 C87.25 46.75 87.25 46.75 85 49 C85.14037521 47.18706911 85.28744889 45.3746557 85.4375 43.5625 C85.51871094 42.55316406 85.59992188 41.54382813 85.68359375 40.50390625 C86 38 86 38 87 37 C87.35337871 35.53006335 87.65707059 34.04808057 87.9375 32.5625 C88.19466797 31.22251953 88.19466797 31.22251953 88.45703125 29.85546875 C88.63621094 28.91316406 88.81539063 27.97085937 89 27 C89.37304769 25.12461059 89.74794318 23.24958746 90.125 21.375 C90.29257812 20.53710938 90.46015625 19.69921875 90.6328125 18.8359375 C90.81457031 17.92714844 90.81457031 17.92714844 91 17 C91.66 17 92.32 17 93 17 C93.33 13.37 93.66 9.74 94 6 C94.66 6 95.32 6 96 6 C96 5.01 96 4.02 96 3 C83.77831377 3.06111105 71.55684286 3.13814438 59.33539009 3.23571491 C53.66094497 3.28051228 47.9865732 3.31974755 42.31201172 3.34643555 C36.83947748 3.37237531 31.36722416 3.41271089 25.89486313 3.46318626 C23.80323648 3.47991833 21.71156118 3.49139295 19.61987686 3.49761391 C16.69826804 3.50718632 13.77738827 3.53516233 10.85595703 3.56762695 C9.54828873 3.56547432 9.54828873 3.56547432 8.21420288 3.5632782 C5.56959133 3.56961829 5.56959133 3.56961829 2 4 C0.04400117 6.93399825 -0.41581584 8.34340271 -1 11.7109375 C-1.165 12.62617188 -1.33 13.54140625 -1.5 14.484375 C-1.665 15.43828125 -1.83 16.3921875 -2 17.375 C-2.32848639 19.25866417 -2.66167689 21.14151521 -3 23.0234375 C-3.144375 23.85794434 -3.28875 24.69245117 -3.4375 25.55224609 C-4.04007528 28.17439007 -4.94213366 30.52999229 -6 33 C-6.33 33 -6.66 33 -7 33 C-7.20080062 28.68278665 -6.60208231 25.95808571 -5 22 C-4.77988355 20.58803348 -4.59419932 19.17040347 -4.4375 17.75 C-4 14 -4 14 -3 13 C-2.76807135 11.48530552 -2.58784762 9.96245438 -2.4375 8.4375 C-2.35371094 7.61121094 -2.26992188 6.78492188 -2.18359375 5.93359375 C-2.12300781 5.29550781 -2.06242187 4.65742188 -2 4 C-1.34 4 -0.68 4 0 4 C0 2.68 0 1.36 0 0 Z " fill="#6B5BCA" transform="translate(402,416)"/>
<path d="M0 0 C1 3 1 3 -0.4375 6.1875 C-1.2109375 7.5796875 -1.2109375 7.5796875 -2 9 C0.97 8.34 3.94 7.68 7 7 C5.63109669 12.32351286 2.42985309 14.24343203 -2 17 C-2.804375 17.474375 -3.60875 17.94875 -4.4375 18.4375 C-10.25002137 21.98172035 -14.80520397 25.52594251 -18.9375 31 C-24.84534962 38.67328124 -31.73757697 42.50374415 -41 45 C-36.25466682 38.40326789 -31.15861933 32.06099915 -25.3359375 26.375 C-23.75165312 24.74439152 -22.92507899 23.06363775 -22 21 C-21.34 21 -20.68 21 -20 21 C-19.7525 20.21625 -19.505 19.4325 -19.25 18.625 C-17.76880562 15.5144918 -17.02705226 15.38379532 -14 14 C-12.29006566 12.3777546 -10.62652316 10.70586575 -9 9 C-6 6 -3 3 0 0 Z " fill="#FFF4C6" transform="translate(441,328)"/>
<path d="M0 0 C0.33 0 0.66 0 1 0 C4.58165209 41.8145181 4.58165209 41.8145181 4 62 C-2.625 64.125 -2.625 64.125 -6 63 C-6.18451025 50.33029613 -6.18451025 50.33029613 -5 45 C-4.34 45 -3.68 45 -3 45 C-2.97303635 43.20841511 -2.95362083 41.41671527 -2.9375 39.625 C-2.92589844 38.62726563 -2.91429687 37.62953125 -2.90234375 36.6015625 C-2.81993398 34.01567547 -2.81993398 34.01567547 -4 32 C-4.39295153 24.99236431 -3.21908607 18.38618887 -2 11.5 C-1.80921875 10.39140625 -1.6184375 9.2828125 -1.421875 8.140625 C-0.95383586 5.42599799 -0.47974117 2.71257905 0 0 Z " fill="#FFF7D2" transform="translate(466,233)"/>
<path d="M0 0 C0.495 1.485 0.495 1.485 1 3 C0.43152344 3.556875 -0.13695312 4.11375 -0.72265625 4.6875 C-5.00107524 8.91592077 -9.12672297 13.19651411 -13.046875 17.7578125 C-15.52964803 20.60803594 -18.07227348 23.39995674 -20.625 26.1875 C-21.08052246 26.68677002 -21.53604492 27.18604004 -22.00537109 27.70043945 C-24.9252999 30.88355372 -27.93316058 33.958846 -31 37 C-31.886875 37.928125 -32.77375 38.85625 -33.6875 39.8125 C-36 42 -36 42 -38 42 C-37.45276317 38.62537285 -36.9451 36.91765 -35 34 C-35.54269531 34.2165625 -36.08539063 34.433125 -36.64453125 34.65625 C-37.35996094 34.9346875 -38.07539063 35.213125 -38.8125 35.5 C-39.52019531 35.7784375 -40.22789062 36.056875 -40.95703125 36.34375 C-43 37 -43 37 -46 37 C-46 36.34 -46 35.68 -46 35 C-44.56640625 33.7824707 -44.56640625 33.7824707 -42.5625 32.42578125 C-41.83554932 31.92618896 -41.10859863 31.42659668 -40.35961914 30.91186523 C-39.58094482 30.38407471 -38.80227051 29.85628418 -38 29.3125 C-27.41238682 22.30865268 -27.41238682 22.30865268 -19 13 C-18.28457031 12.72414063 -17.56914062 12.44828125 -16.83203125 12.1640625 C-12.90669986 10.55061594 -9.9642627 8.03420598 -6.6875 5.375 C-6.04232422 4.859375 -5.39714844 4.34375 -4.73242188 3.8125 C-3.1506196 2.54705818 -1.57470937 1.27425738 0 0 Z " fill="#FFF4C3" transform="translate(527,256)"/>
<path d="M0 0 C1.03115279 3.26913624 0.9638984 5.86041348 0.5625 9.25 C0.46066406 10.14203125 0.35882813 11.0340625 0.25390625 11.953125 C0.17011719 12.62859375 0.08632813 13.3040625 0 14 C-0.66 14 -1.32 14 -2 14 C-2 16.64 -2 19.28 -2 22 C-2.66 22 -3.32 22 -4 22 C-4.14695312 23.21623047 -4.14695312 23.21623047 -4.296875 24.45703125 C-5.03190957 29.90008899 -5.80257411 34.92034874 -7.9375 40 C-10.43058151 46.25570269 -11.01933061 52.66568319 -11.85083008 59.29858398 C-12.6151309 65.09017059 -13.87310231 70.09043754 -16.1484375 75.4921875 C-17.73895805 80.17619756 -17.82853923 85.08764884 -18 90 C-19.32 90 -20.64 90 -22 90 C-21.979375 90.94875 -21.95875 91.8975 -21.9375 92.875 C-22 96 -22 96 -23 98 C-23.22858114 100.0374763 -23.41024278 102.08040303 -23.5625 104.125 C-23.64628906 105.22070312 -23.73007812 106.31640625 -23.81640625 107.4453125 C-23.87699219 108.28835938 -23.93757813 109.13140625 -24 110 C-24.66 110 -25.32 110 -26 110 C-26.09796875 110.57105469 -26.1959375 111.14210938 -26.296875 111.73046875 C-27.63894089 119.00770534 -29.72801206 125.96345483 -32 133 C-33.125 129.25 -33.125 129.25 -32 127 C-31.72579082 124.17956274 -31.5538093 121.35946953 -31.37890625 118.53125 C-31 116 -31 116 -29 114 C-28.63239269 111.67182036 -28.29758419 109.3381615 -28 107 C-27.505 106.505 -27.505 106.505 -27 106 C-26.71602148 103.19176801 -26.55153335 100.38353365 -26.37890625 97.56640625 C-26 95 -26 95 -24 93 C-22.18590967 86.7640645 -21.10489844 80.39430584 -20 74 C-19.34 74 -18.68 74 -18 74 C-17.87625 72.783125 -17.7525 71.56625 -17.625 70.3125 C-17.20047558 66.89836696 -16.34942403 64.17511537 -15 61 C-13.45609394 55.6417378 -12.66198796 50.56330838 -12.24609375 45.00390625 C-12 43 -12 43 -11 42 C-10.71693766 39.45243896 -10.55184214 36.90489978 -10.37890625 34.34765625 C-10 32 -10 32 -8 30 C-7.61405508 27.8625599 -7.61405508 27.8625599 -7.5 25.5 C-7.22222222 21.22222222 -7.22222222 21.22222222 -5 19 C-4.54188325 17.02764667 -4.54188325 17.02764667 -4.375 14.875 C-4.25125 13.59625 -4.1275 12.3175 -4 11 C-3.01 10.67 -2.02 10.34 -1 10 C-1.020625 8.72125 -1.04125 7.4425 -1.0625 6.125 C-1.125 2.25 -1.125 2.25 0 0 Z " fill="#5A49C4" transform="translate(362,579)"/>
<path d="M0 0 C0.66 0.66 1.32 1.32 2 2 C1.38125 2.53625 0.7625 3.0725 0.125 3.625 C-2.17724519 5.82967862 -2.17724519 5.82967862 -2.68359375 8.6875 C-4.52591318 13.3233661 -7.60128162 15.99321339 -11.1875 19.375 C-15.7362789 23.73820683 -20.06840139 28.15053966 -24.18041992 32.92919922 C-27.50373466 36.7113481 -31.02697061 40.29233022 -34.5625 43.875 C-35.29146484 44.63296875 -36.02042969 45.3909375 -36.77148438 46.171875 C-40.59311361 50.03822177 -43.47659236 52.90055393 -49 54 C-48.40075776 49.80530429 -47.42500059 45.99000166 -46 42 C-47.0725 42.495 -48.145 42.99 -49.25 43.5 C-52.25416808 44.88653911 -53.45934895 45 -57 45 C-55.50902342 41.2047869 -53.24299151 39.38957269 -50 37 C-49.34 37.33 -48.68 37.66 -48 38 C-49.32 38.66 -50.64 39.32 -52 40 C-52 40.66 -52 41.32 -52 42 C-50.9275 41.505 -49.855 41.01 -48.75 40.5 C-45.74583192 39.11346089 -44.54065105 39 -41 39 C-41.309375 39.5775 -41.61875 40.155 -41.9375 40.75 C-42.92871384 42.84904107 -43.47548801 44.75074138 -44 47 C-37.43165038 42.21429224 -32.19673103 37.15106025 -27.17578125 30.765625 C-25.03826351 28.04863657 -22.83532952 25.41703978 -20.5625 22.8125 C-19.60537109 21.70841797 -19.60537109 21.70841797 -18.62890625 20.58203125 C-17 19 -17 19 -15 19 C-14.7421875 18.40960938 -14.484375 17.81921875 -14.21875 17.2109375 C-12.90572635 14.82897792 -11.51079148 13.43982451 -9.5 11.625 C-6.34547103 8.6005547 -5.27036907 6.20199 -4 2 C-1.875 0.625 -1.875 0.625 0 0 Z " fill="#F8F8F6" transform="translate(533,251)"/>
<path d="M0 0 C1.93935374 -0.07017842 3.87963015 -0.11349363 5.81982422 -0.15429688 C6.88587891 -0.18007813 7.95193359 -0.20585937 9.05029297 -0.23242188 C11.63232422 0.09570312 11.63232422 0.09570312 13.47607422 1.41992188 C15.24774161 3.98764252 14.95444383 6.06777876 14.63232422 9.09570312 C12.63232422 11.09570312 12.63232422 11.09570312 9.15576172 11.29101562 C7.77281454 11.27771806 6.38993768 11.25386544 5.00732422 11.22070312 C4.30091797 11.21167969 3.59451172 11.20265625 2.86669922 11.19335938 C1.12176324 11.16977916 -0.62299873 11.13390773 -2.36767578 11.09570312 C-2.36767578 10.43570312 -2.36767578 9.77570313 -2.36767578 9.09570312 C-7.54937687 7.36846943 -12.36424459 6.74794817 -17.81689453 6.43945312 C-20.40872064 6.09017181 -22.12134404 5.40036418 -24.36767578 4.09570312 C-24.36767578 3.10570312 -24.36767578 2.11570312 -24.36767578 1.09570312 C-16.24694287 0.6809523 -8.12462304 0.32840299 0 0 Z " fill="#FEF8DB" transform="translate(432.36767578125,308.904296875)"/>
<path d="M0 0 C0.33 0.99 0.66 1.98 1 3 C3.91441332 3.97147111 6.14246617 4.19461718 9.1875 4.375 C14.30653003 4.79024047 18.30310873 5.96172643 23 8 C23 8.66 23 9.32 23 10 C23.804375 10.20625 24.60875 10.4125 25.4375 10.625 C28 12 28 12 29 14.9375 C29 18 29 18 27.6875 19.875 C26 21 26 21 24 21 C23.01 17.7 22.02 14.4 21 11 C4.34093218 7.95717026 -12.32757322 4.96871086 -29 2 C-29 1.67 -29 1.34 -29 1 C-19.30429046 0.07027443 -9.72657452 -0.11237377 0 0 Z " fill="#E4E7F8" transform="translate(408,310)"/>
<path d="M0 0 C0.33 0 0.66 0 1 0 C1.43837425 7.59848705 0.00388665 11.9844534 -2 20 C-34.34 20 -66.68 20 -100 20 C-100 18.02 -100 16.04 -100 14 C-99.34 13.67 -98.68 13.34 -98 13 C-98 14.65 -98 16.3 -98 18 C-66.65 18 -35.3 18 -3 18 C-2.67 15.36 -2.34 12.72 -2 10 C-1.66874634 8.16238847 -1.31832935 6.32798089 -0.9375 4.5 C-0.76089844 3.6440625 -0.58429688 2.788125 -0.40234375 1.90625 C-0.26957031 1.2771875 -0.13679688 0.648125 0 0 Z " fill="#604FC6" transform="translate(427,701)"/>
<path d="M0 0 C0.33 0 0.66 0 1 0 C1 2.64 1 5.28 1 8 C0.34 8 -0.32 8 -1 8 C-1.09087891 9.28197266 -1.09087891 9.28197266 -1.18359375 10.58984375 C-1.26738281 11.69457031 -1.35117187 12.79929687 -1.4375 13.9375 C-1.51871094 15.03964844 -1.59992188 16.14179688 -1.68359375 17.27734375 C-2 20 -2 20 -3 21 C-3.28101946 23.31952569 -3.44782625 25.63885514 -3.62109375 27.96875 C-3.80865234 28.97421875 -3.80865234 28.97421875 -4 30 C-4.66 30.33 -5.32 30.66 -6 31 C-6.39306011 33.48692027 -6.39306011 33.48692027 -6.5 36.375 C-6.70460671 40.25229715 -6.79475989 41.69213984 -9 45 C-9.73562194 47.66662955 -10.39675413 50.30384235 -11 53 C-11.17370117 53.75659912 -11.34740234 54.51319824 -11.52636719 55.29272461 C-12.85694942 61.16488604 -14.02461284 67.05783873 -15 73 C-15.66 73 -16.32 73 -17 73 C-17.04898437 73.65226563 -17.09796875 74.30453125 -17.1484375 74.9765625 C-17.57597119 79.97428386 -18.31259072 84.2541614 -20 89 C-20.37531446 91.32694964 -20.71917202 93.65976685 -21 96 C-21.66 96 -22.32 96 -23 96 C-23 98.64 -23 101.28 -23 104 C-23.66 104 -24.32 104 -25 104 C-25.495 104.99 -25.495 104.99 -26 106 C-26 104.68 -26 103.36 -26 102 C-25.34 102 -24.68 102 -24 102 C-24.05929687 100.94941406 -24.11859375 99.89882813 -24.1796875 98.81640625 C-24.17698553 92.67887465 -22.56522402 86.86921333 -21.125 80.9375 C-20.85558594 79.79216797 -20.58617187 78.64683594 -20.30859375 77.46679688 C-18.99702503 71.9358156 -17.59555149 66.45654249 -16 61 C-14.81958052 56.69120921 -13.66048712 52.37669584 -12.5 48.0625 C-12.19191406 46.92103516 -11.88382812 45.77957031 -11.56640625 44.60351562 C-8.79604796 34.31276412 -6.26775679 23.98171105 -3.85546875 13.6015625 C-2.76735535 8.98208719 -1.605397 4.47430089 0 0 Z " fill="#5948C4" transform="translate(486,469)"/>
<path d="M0 0 C1.13598633 0.00483398 1.13598633 0.00483398 2.29492188 0.00976562 C3.47344727 0.02233398 3.47344727 0.02233398 4.67578125 0.03515625 C5.47306641 0.03966797 6.27035156 0.04417969 7.09179688 0.04882812 C9.05732382 0.06059775 11.0228121 0.07853277 12.98828125 0.09765625 C10.69588972 2.45455231 8.51932684 4.44468251 5.86328125 6.41015625 C2.35523157 9.68942008 1.89061654 11.49574628 0.98828125 16.09765625 C0.32828125 16.09765625 -0.33171875 16.09765625 -1.01171875 16.09765625 C-1.34171875 17.08765625 -1.67171875 18.07765625 -2.01171875 19.09765625 C-3.35067507 17.43550357 -4.68302017 15.76802018 -6.01171875 14.09765625 C-6.60984375 13.47890625 -7.20796875 12.86015625 -7.82421875 12.22265625 C-9.62215633 9.00529426 -8.78873691 6.59423795 -8.01171875 3.09765625 C-6.3127245 -0.30033224 -3.42071751 -0.02571968 0 0 Z " fill="#1A2BD0" transform="translate(498.01171875,322.90234375)"/>
<path d="M0 0 C2.23828125 1.9453125 2.23828125 1.9453125 4.3125 4.125 C5.00988281 4.84945313 5.70726562 5.57390625 6.42578125 6.3203125 C7.20501953 7.15175781 7.20501953 7.15175781 8 8 C7.01 8 6.02 8 5 8 C3.03268299 8.39514487 1.07480125 8.83842114 -0.875 9.3125 C-2.41800781 9.67794922 -2.41800781 9.67794922 -3.9921875 10.05078125 C-8.47432935 11.46527537 -11.84592614 13.51391837 -15 17 C-14.88506243 15.10353002 -14.75760358 13.20781668 -14.625 11.3125 C-14.55539062 10.25675781 -14.48578125 9.20101563 -14.4140625 8.11328125 C-14.00465294 5.03498485 -13.45714171 2.73884161 -12 0 C-7.19711517 -2.08427078 -4.62113246 -2.35322284 0 0 Z " fill="#2131D1" transform="translate(480,346)"/>
<path d="M0 0 C3.52142777 0.11081889 7.04187564 0.24122073 10.5625 0.375 C11.55314453 0.4059375 12.54378906 0.436875 13.56445312 0.46875 C19.04202523 0.68712497 23.8104654 1.20950139 29 3 C29 3.66 29 4.32 29 5 C27.865625 4.979375 26.73125 4.95875 25.5625 4.9375 C22.18424326 4.58422523 22.18424326 4.58422523 21 6 C23.64 6.33 26.28 6.66 29 7 C29 7.33 29 7.66 29 8 C19.1 8 9.2 8 -1 8 C-1 2 -1 2 0 0 Z " fill="#FFF9DE" transform="translate(485,313)"/>
<path d="M0 0 C31.02 0 62.04 0 94 0 C94 1.98 94 3.96 94 6 C93.34 6 92.68 6 92 6 C92.0515625 7.24652344 92.103125 8.49304688 92.15625 9.77734375 C92.15625 15.58635273 90.87552699 20.94514517 89.5 26.5625 C89.26152344 27.57119141 89.02304687 28.57988281 88.77734375 29.61914062 C88.19379784 32.08170438 87.60122249 34.54170359 87 37 C86.34 37 85.68 37 85 37 C84.814375 38.918125 84.814375 38.918125 84.625 40.875 C84.25 44.75 84.25 44.75 82 47 C82.14037521 45.18706911 82.28744889 43.3746557 82.4375 41.5625 C82.51871094 40.55316406 82.59992188 39.54382813 82.68359375 38.50390625 C83 36 83 36 84 35 C84.35337871 33.53006335 84.65707059 32.04808057 84.9375 30.5625 C85.19466797 29.22251953 85.19466797 29.22251953 85.45703125 27.85546875 C85.63621094 26.91316406 85.81539063 25.97085937 86 25 C86.37304769 23.12461059 86.74794318 21.24958746 87.125 19.375 C87.29257812 18.53710938 87.46015625 17.69921875 87.6328125 16.8359375 C87.81457031 15.92714844 87.81457031 15.92714844 88 15 C88.66 15 89.32 15 90 15 C90.33 11.37 90.66 7.74 91 4 C91.66 4 92.32 4 93 4 C93 3.01 93 2.02 93 1 C62.31 1 31.62 1 0 1 C0 0.67 0 0.34 0 0 Z " fill="#A49ADE" transform="translate(405,418)"/>
<path d="M0 0 C3.75 1.1875 3.75 1.1875 7 3 C8.06910232 6.52738832 8.17907743 10.06964003 8.31640625 13.73828125 C8.35830078 14.80498047 8.40019531 15.87167969 8.44335938 16.97070312 C8.48267578 18.07349609 8.52199219 19.17628906 8.5625 20.3125 C8.60568359 21.43462891 8.64886719 22.55675781 8.69335938 23.71289062 C8.79914787 26.47514569 8.90123672 29.2374863 9 32 C8.67 32 8.34 32 8 32 C7.34 25.73 6.68 19.46 6 13 C4.68 12.67 3.36 12.34 2 12 C2 11.34 2 10.68 2 10 C1.13375 10.020625 0.2675 10.04125 -0.625 10.0625 C-3.85903648 10.00261044 -6.82799897 9.60419067 -10 9 C-10 8.34 -10 7.68 -10 7 C-10.99 6.67 -11.98 6.34 -13 6 C-11.78294994 4.98528829 -10.55073116 3.9887539 -9.3125 3 C-8.62800781 2.443125 -7.94351562 1.88625 -7.23828125 1.3125 C-4.54930868 -0.26427972 -3.07266101 -0.32625719 0 0 Z " fill="#2B3BD3" transform="translate(448,344)"/>
<path d="M0 0 C-0.30742903 2.31317961 -0.62107702 4.62553352 -0.9375 6.9375 C-1.19853516 8.86916016 -1.19853516 8.86916016 -1.46484375 10.83984375 C-2 14 -2 14 -3 15 C-7.25029014 15.81843661 -10.69384826 15.85931035 -14.375 13.4375 C-16.34236078 11.69498045 -18.20427557 9.91804899 -20 8 C-19.01 7.67 -18.02 7.34 -17 7 C-16.67 6.34 -16.34 5.68 -16 5 C-14.109375 4.47265625 -14.109375 4.47265625 -11.75 4.0625 C-7.65350635 3.24841144 -3.87986578 0 0 0 Z " fill="#202ECF" transform="translate(460,273)"/>
<path d="M0 0 C0.99 0.33 1.98 0.66 3 1 C1.08435828 2.60540415 -0.83246912 4.209355 -2.75 5.8125 C-3.28882813 6.26431641 -3.82765625 6.71613281 -4.3828125 7.18164062 C-5.91554983 8.46203705 -7.45757253 9.73129347 -9 11 C-10.05960938 11.87205078 -10.05960938 11.87205078 -11.140625 12.76171875 C-13 14 -13 14 -15.0703125 14.47265625 C-17.64345097 15.17584186 -18.29478705 16.31488963 -19.875 18.4375 C-24.89756753 24.51977409 -31.5219775 28.61542998 -38 33 C-38.66 32.67 -39.32 32.34 -40 32 C-39.38125 31.773125 -38.7625 31.54625 -38.125 31.3125 C-35.79064232 30.17538481 -35.79064232 30.17538481 -35.1640625 27.67578125 C-33.72823303 24.37530076 -32.08136079 23.07810026 -29.25 20.875 C-28.27546875 20.10800781 -27.3009375 19.34101563 -26.296875 18.55078125 C-25.76900391 18.1429541 -25.24113281 17.73512695 -24.69726562 17.31494141 C-22.87611004 15.90401735 -21.07002681 14.47524753 -19.265625 13.04296875 C-6.23008837 2.71729252 -6.23008837 2.71729252 -1 3 C-0.67 2.01 -0.34 1.02 0 0 Z " fill="#F0F1F2" transform="translate(525,255)"/>
<path d="M0 0 C1.2065625 0.0309375 1.2065625 0.0309375 2.4375 0.0625 C2.4919207 2.75027802 2.53137266 5.43693212 2.5625 8.125 C2.57925781 8.87716797 2.59601563 9.62933594 2.61328125 10.40429688 C2.65596696 15.33449636 1.91509694 19.31627951 0.4375 24.0625 C0.17317415 26.03496934 -0.04048786 28.01533607 -0.1875 30 C-0.29964844 31.43666016 -0.29964844 31.43666016 -0.4140625 32.90234375 C-0.46304687 33.61519531 -0.51203125 34.32804687 -0.5625 35.0625 C-1.2225 35.0625 -1.8825 35.0625 -2.5625 35.0625 C-3.39913148 27.33461693 -3.71754077 19.70804609 -3.6875 11.9375 C-3.69136719 10.89851563 -3.69523437 9.85953125 -3.69921875 8.7890625 C-3.69792969 7.80421875 -3.69664062 6.819375 -3.6953125 5.8046875 C-3.69418457 4.9163623 -3.69305664 4.02803711 -3.69189453 3.11279297 C-3.49693893 0.02366626 -3.11749818 0.07603654 0 0 Z " fill="#FFF5C8" transform="translate(461.5625,335.9375)"/>
<path d="M0 0 C7.65251286 0.79816532 15.26058563 1.83627556 22.875 2.9375 C24.70804688 3.19176758 24.70804688 3.19176758 26.578125 3.45117188 C28.32996094 3.70543945 28.32996094 3.70543945 30.1171875 3.96484375 C31.70442627 4.19095337 31.70442627 4.19095337 33.32373047 4.42163086 C36 5 36 5 39 7 C11.71560764 8.68088666 11.71560764 8.68088666 -2 6 C-1.34 5.01 -0.68 4.02 0 3 C2.31 3.33 4.62 3.66 7 4 C7 3.34 7 2.68 7 2 C5.02 2 3.04 2 1 2 C0.67 1.34 0.34 0.68 0 0 Z " fill="#EDEEF1" transform="translate(507,314)"/>
<path d="M0 0 C4.25059369 3.85210053 7.42468289 8.22678432 10.74609375 12.890625 C13.9473564 17.30692495 17.32497717 21.57751883 20.703125 25.859375 C23.10390941 29.14208021 25.04864518 32.43743478 27 36 C24.05573232 34.66531899 21.90763001 33.18267324 19.57421875 30.953125 C18.94193359 30.355 18.30964844 29.756875 17.65820312 29.140625 C17.00787109 28.51671875 16.35753906 27.8928125 15.6875 27.25 C10.89988202 22.68944362 6.05521901 18.26391047 1 14 C1.99 13.67 2.98 13.34 4 13 C4.33 13.99 4.66 14.98 5 16 C7.01508358 16.73323796 7.01508358 16.73323796 9 17 C9 15.68 9 14.36 9 13 C8.01 12.67 7.02 12.34 6 12 C5.33333333 10.33333333 4.66666667 8.66666667 4 7 C3.01 6.67 2.02 6.34 1 6 C0.67 4.02 0.34 2.04 0 0 Z " fill="#EDEDE6" transform="translate(510,362)"/>
<path d="M0 0 C2.97 0.33 5.94 0.66 9 1 C11.24609375 6.859375 11.24609375 6.859375 12 9 C12.26554687 9.66128906 12.53109375 10.32257813 12.8046875 11.00390625 C13 13 13 13 11.63671875 15.10546875 C10.67185547 16.13607422 10.67185547 16.13607422 9.6875 17.1875 C8.73423828 18.22970703 8.73423828 18.22970703 7.76171875 19.29296875 C6 21 6 21 4 22 C4.19207031 21.29875 4.38414062 20.5975 4.58203125 19.875 C5.07078289 16.51311955 4.56761756 14.27019985 3.6875 11 C3.42324219 9.989375 3.15898437 8.97875 2.88671875 7.9375 C2.06444861 5.21350377 1.10333261 2.6210172 0 0 Z " fill="#293AD4" transform="translate(420,319)"/>
<path d="M0 0 C0.99 0 1.98 0 3 0 C2.86464844 0.804375 2.72929687 1.60875 2.58984375 2.4375 C2.15542477 5.06127556 1.73173803 7.68571371 1.31640625 10.3125 C1.06519391 11.87501443 0.81389005 13.43751415 0.5625 15 C0.44068359 15.78117188 0.31886719 16.56234375 0.19335938 17.3671875 C-0.52070181 21.7625486 -1.53503921 25.78139923 -3 30 C-3.43300876 32.27905752 -3.43300876 32.27905752 -3.625 34.375 C-3.74875 35.57125 -3.8725 36.7675 -4 38 C-5.485 38.495 -5.485 38.495 -7 39 C-7.77419966 44.75119748 -8.26840487 50.47252255 -8.62109375 56.265625 C-8.99867107 58.99040979 -9.70296697 60.61150144 -11 63 C-11.4154465 64.40533756 -11.79200436 65.82287585 -12.125 67.25 C-12.558125 69.10625 -12.558125 69.10625 -13 71 C-13.93085023 67.97013176 -14.00805898 65.75006412 -13.51171875 62.62890625 C-13.38216797 61.80712891 -13.25261719 60.98535156 -13.11914062 60.13867188 C-12.97669922 59.28853516 -12.83425781 58.43839844 -12.6875 57.5625 C-12.55666016 56.71623047 -12.42582031 55.86996094 -12.29101562 54.99804688 C-11.59853148 50.72605529 -10.7165472 46.99330646 -9 43 C-8.56111075 40.79745973 -8.56111075 40.79745973 -8.375 38.6875 C-8.189375 36.8621875 -8.189375 36.8621875 -8 35 C-7.34 35 -6.68 35 -6 35 C-5.95101563 34.26394531 -5.90203125 33.52789063 -5.8515625 32.76953125 C-5.77679688 31.79371094 -5.70203125 30.81789063 -5.625 29.8125 C-5.55539062 28.84957031 -5.48578125 27.88664063 -5.4140625 26.89453125 C-4.99561061 23.96931567 -4.12627002 21.71629829 -3 19 C-2.596323 16.83040434 -2.596323 16.83040434 -2.4375 14.75 C-2 11 -2 11 -1 10 C-0.76712992 8.31816052 -0.58735834 6.6287584 -0.4375 4.9375 C-0.35371094 4.01839844 -0.26992188 3.09929687 -0.18359375 2.15234375 C-0.12300781 1.44207031 -0.06242187 0.73179687 0 0 Z " fill="#8275D2" transform="translate(379,504)"/>
<path d="M0 0 C0 2.62113708 -0.31292445 4.50935112 -1 7 C-0.01 6.67 0.98 6.34 2 6 C2.99 6.33 3.98 6.66 5 7 C-4.33333333 14 -13.66666667 21 -23 28 C-23 25 -23 25 -21.49609375 23.23828125 C-20.81675781 22.60277344 -20.13742187 21.96726562 -19.4375 21.3125 C-16.03935041 18.03976543 -12.88510856 14.67152911 -9.80859375 11.09765625 C-7.75019642 8.71027101 -5.65877914 6.35416937 -3.5625 4 C-2.88316406 3.236875 -2.20382812 2.47375 -1.50390625 1.6875 C-1.00761719 1.130625 -0.51132812 0.57375 0 0 Z " fill="#EFEFF1" transform="translate(403,364)"/>
<path d="M0 0 C0.33 0 0.66 0 1 0 C1.43335866 5.33399962 1.86033113 10.6684608 2.28173828 16.00341797 C2.42554958 17.8131239 2.57101702 19.6226991 2.71826172 21.43212891 C3.52015251 31.3002952 4.27320371 41.08877661 4 51 C3.67 51 3.34 51 3 51 C2.01 43.08 1.02 35.16 0 27 C-1.98 27.99 -1.98 27.99 -4 29 C-3.37514309 19.21775739 -1.68656475 9.64205883 0 0 Z " fill="#EFF1F6" transform="translate(466,233)"/>
<path d="M0 0 C1.3076683 0.01078583 1.3076683 0.01078583 2.64175415 0.02178955 C3.55888184 0.0214975 4.47600952 0.02120544 5.42092896 0.02090454 C8.46191771 0.0223014 11.5026635 0.03787932 14.54360962 0.05352783 C16.64825303 0.0572567 18.75289818 0.06010426 20.85754395 0.06210327 C26.40439626 0.06974969 31.95114429 0.08940683 37.49795532 0.11151123 C43.15508615 0.13194796 48.81223379 0.14110033 54.46939087 0.15118408 C65.57490551 0.17265177 76.68034265 0.20679985 87.78579712 0.24884033 C87.45579712 1.23884033 87.12579712 2.22884033 86.78579712 3.24884033 C86.78579712 2.58884033 86.78579712 1.92884033 86.78579712 1.24884033 C56.42579712 1.24884033 26.06579712 1.24884033 -5.21420288 1.24884033 C-5.21420288 2.89884033 -5.21420288 4.54884033 -5.21420288 6.24884033 C-6.08920288 8.48712158 -6.08920288 8.48712158 -7.21420288 10.56134033 C-7.58545288 11.25872314 -7.95670288 11.95610596 -8.33920288 12.67462158 C-8.77232788 13.45385986 -8.77232788 13.45385986 -9.21420288 14.24884033 C-10.29155294 11.01679015 -10.14060711 9.91306598 -9.40170288 6.68634033 C-9.23025757 5.90130127 -9.05881226 5.11626221 -8.88217163 4.30743408 C-7.3354147 -0.45947177 -4.47688993 0.01550807 0 0 Z " fill="#CFCAED" transform="translate(410.2142028808594,418.75115966796875)"/>
<path d="M0 0 C1.32 0 2.64 0 4 0 C5.546875 -0.061875 5.546875 -0.061875 7.125 -0.125 C10 0 10 0 12 2 C11.625 4.125 11.625 4.125 11 6 C10.113125 5.67 9.22625 5.34 8.3125 5 C5.13784842 4.04161462 3.25883201 3.64891289 0 4 C-2.58820838 5.44874805 -2.58820838 5.44874805 -5.08203125 7.5 C-6.01337891 8.221875 -6.94472656 8.94375 -7.90429688 9.6875 C-8.86400391 10.450625 -9.82371094 11.21375 -10.8125 12 C-11.79154297 12.763125 -12.77058594 13.52625 -13.77929688 14.3125 C-16.19480441 16.19777417 -18.60103242 18.09375394 -21 20 C-21.66 19.34 -22.32 18.68 -23 18 C-19.50999241 14.40734513 -15.89412728 11.16397842 -12 8 C-11.175 7.29875 -10.35 6.5975 -9.5 5.875 C-6.80107123 3.85080343 -4.03865116 2.45026533 -1 1 C-0.67 0.67 -0.34 0.34 0 0 Z " fill="#FAF6E4" transform="translate(443,341)"/>
<path d="M0 0 C0.33 0 0.66 0 1 0 C0.38716379 8.14079756 -0.72767858 16.1361213 -2.0625 24.1875 C-2.24876953 25.33025391 -2.43503906 26.47300781 -2.62695312 27.65039062 C-3.08121066 30.43417395 -3.53894601 33.21733571 -4 36 C-4.33 36 -4.66 36 -5 36 C-5.83360594 25.63946908 -6.12288464 15.3905794 -6 5 C-5.34 4.67 -4.68 4.34 -4 4 C-4 4.99 -4 5.98 -4 7 C-3.34 7 -2.68 7 -2 7 C-1.855625 6.030625 -1.71125 5.06125 -1.5625 4.0625 C-1 1 -1 1 0 0 Z " fill="#F6F7F9" transform="translate(463,364)"/>
<path d="M0 0 C0.66 0 1.32 0 2 0 C1.72794521 5.90358892 0.73443079 11.21924741 -1 16.875 C-2.93537321 23.27014625 -3.75595155 29.33747724 -4 36 C-4.66 36 -5.32 36 -6 36 C-6.09796875 36.57105469 -6.1959375 37.14210938 -6.296875 37.73046875 C-7.63894089 45.00770534 -9.72801206 51.96345483 -12 59 C-13.125 55.25 -13.125 55.25 -12 53 C-11.72579082 50.17956274 -11.5538093 47.35946953 -11.37890625 44.53125 C-11 42 -11 42 -9 40 C-8.63239269 37.67182036 -8.29758419 35.3381615 -8 33 C-7.505 32.505 -7.505 32.505 -7 32 C-6.71602148 29.19176801 -6.55153335 26.38353365 -6.37890625 23.56640625 C-6 21 -6 21 -4 19 C-2.18590967 12.7640645 -1.10489844 6.39430584 0 0 Z " fill="#7364CD" transform="translate(342,653)"/>
<path d="M0 0 C0.38218767 1.65614657 0.71395102 3.32457024 1 5 C0 6 0 6 -3.46875 6.15625 C-8.23863595 6.09662643 -12.81531775 5.3469051 -17.5 4.5 C-18.73363281 4.28537109 -18.73363281 4.28537109 -19.9921875 4.06640625 C-21.99584627 3.71693088 -23.99808298 3.35931844 -26 3 C-26 2.34 -26 1.68 -26 1 C-17.33003296 -0.16711095 -8.72630608 -0.09744014 0 0 Z " fill="#FFF2BC" transform="translate(441,311)"/>
<path d="M0 0 C1.30449725 2.60899451 1.35845781 5.16999464 1.6796875 8.03515625 C2.0495503 10.30394877 2.88931078 12.00075941 4 14 C4 14.99 4 15.98 4 17 C4.66 17.33 5.32 17.66 6 18 C0.06 17.01 0.06 17.01 -6 16 C-7.32124352 10.2746114 -7.32124352 10.2746114 -7 7 C-5.04471143 4.17455684 -2.705659 2.09840386 0 0 Z " fill="#3B4DDB" transform="translate(497,295)"/>
<path d="M0 0 C3.56935418 1.5054419 5.77091235 3.59287562 8.4375 6.375 C9.2315625 7.17550781 10.025625 7.97601563 10.84375 8.80078125 C12.38778578 10.37558586 13.91746626 11.96451581 15.4375 13.5625 C19.45325244 15.81523917 23.49921485 15.31461799 28 15 C27.67 16.32 27.34 17.64 27 19 C25.68 19.33 24.36 19.66 23 20 C23.33 21.65 23.66 23.3 24 25 C22.35 25.33 20.7 25.66 19 26 C18.34 25.01 17.68 24.02 17 23 C18.32 23.33 19.64 23.66 21 24 C17.09846017 17.21471333 11.299765 11.8478344 4.5625 7.875 C1.41327159 5.57068653 0.85046812 3.74205974 0 0 Z " fill="#FBFAEE" transform="translate(430,272)"/>
<path d="M0 0 C1.42194153 0.00399422 2.8438839 0.01876348 4.265625 0.04296875 C5.32136719 0.04393555 5.32136719 0.04393555 6.3984375 0.04492188 C10.53663931 0.07953509 14.44038165 0.42951683 18.515625 1.23046875 C18.515625 1.56046875 18.515625 1.89046875 18.515625 2.23046875 C11.41835072 2.33854907 4.55467544 2.16900881 -2.484375 1.23046875 C-2.814375 3.87046875 -3.144375 6.51046875 -3.484375 9.23046875 C7.405625 9.23046875 18.295625 9.23046875 29.515625 9.23046875 C29.515625 9.56046875 29.515625 9.89046875 29.515625 10.23046875 C23.19609848 11.69500096 16.84680463 11.49420606 10.390625 11.54296875 C8.45896484 11.58647461 8.45896484 11.58647461 6.48828125 11.63085938 C4.64169922 11.64342773 4.64169922 11.64342773 2.7578125 11.65625 C1.06954346 11.67812378 1.06954346 11.67812378 -0.65283203 11.70043945 C-3.484375 11.23046875 -3.484375 11.23046875 -5.38623047 9.36791992 C-6.484375 7.23046875 -6.484375 7.23046875 -6.296875 4.60546875 C-4.97534196 0.74252601 -4.10334574 0.27140964 0 0 Z " fill="#F6F4E9" transform="translate(487.484375,311.76953125)"/>
<path d="M0 0 C0.33 0 0.66 0 1 0 C1 1.65 1 3.3 1 5 C31.69 5 62.38 5 94 5 C94 5.33 94 5.66 94 6 C46.975 6.495 46.975 6.495 -1 7 C-1 1 -1 1 0 0 Z " fill="#6859C9" transform="translate(328,714)"/>
<path d="M0 0 C0.66 0.66 1.32 1.32 2 2 C5.03267503 3.03490854 7.87451618 3.13461684 11.0625 3.125 C12.34833984 3.12886719 12.34833984 3.12886719 13.66015625 3.1328125 C16.15564201 3.09365135 16.15564201 3.09365135 19 2 C17.59308516 5.3287315 15.99308419 7.13167372 13.125 9.3125 C12.44695312 9.84488281 11.76890625 10.37726563 11.0703125 10.92578125 C9 12 9 12 6.9140625 11.734375 C4.17086272 10.68188202 2.2600608 9.94616347 0 8 C-0.4473144 5.20566561 -0.23403245 2.85519586 0 0 Z " fill="#2A40D9" transform="translate(470,278)"/>
<path d="M0 0 C0.33 0 0.66 0 1 0 C1 3.96 1 7.92 1 12 C0.34 12 -0.32 12 -1 12 C-1.03738281 12.60585938 -1.07476562 13.21171875 -1.11328125 13.8359375 C-1.61734871 20.26032675 -3.03173041 25.88890971 -5 32 C-5.71912183 34.39261724 -6.42692424 36.78865784 -7.125 39.1875 C-7.45757812 40.31542969 -7.79015625 41.44335938 -8.1328125 42.60546875 C-9.01585221 46.06205214 -9.5594514 49.46212506 -10 53 C-10.66 53 -11.32 53 -12 53 C-11.63259093 44.91700056 -10.74049239 37.63545993 -8 30 C-7.34 30 -6.68 30 -6 30 C-4.77385316 24.61923911 -3.89923153 19.38897885 -3.5625 13.875 C-3.20200401 8.70789078 -2.08984156 4.72485918 0 0 Z " fill="#4936BE" transform="translate(446,626)"/>
<path d="M0 0 C7.56218722 0.33430401 14.06194818 0.87107467 21 4 C21 4.66 21 5.32 21 6 C22.2065625 6.309375 22.2065625 6.309375 23.4375 6.625 C26 8 26 8 27 10.9375 C27 14 27 14 25.6875 15.875 C24 17 24 17 22 17 C20.515 12.05 20.515 12.05 19 7 C18.13117188 6.81824219 17.26234375 6.63648438 16.3671875 6.44921875 C4.92091388 3.95254833 4.92091388 3.95254833 0 1 C0 0.67 0 0.34 0 0 Z " fill="#F5F5EF" transform="translate(410,314)"/>
<path d="M0 0 C5.92151163 5.63953488 5.92151163 5.63953488 6.1875 10.25 C6.0946875 11.61125 6.0946875 11.61125 6 13 C-0.99509086 14.83738684 -7.34961844 15.24911312 -14.5625 15.125 C-15.57119141 15.11597656 -16.57988281 15.10695313 -17.61914062 15.09765625 C-20.07968457 15.07433356 -22.53970896 15.04160763 -25 15 C-25 14.67 -25 14.34 -25 14 C-17.74 13.67 -10.48 13.34 -3 13 C-2.67 11.35 -2.34 9.7 -2 8 C-1.36064451 5.32590733 -0.67750202 2.66484128 0 0 Z " fill="#BFC8ED" transform="translate(433,295)"/>
<path d="M0 0 C0.66 0.33 1.32 0.66 2 1 C0.02 1.99 0.02 1.99 -2 3 C-2 3.66 -2 4.32 -2 5 C-0.9275 4.505 0.145 4.01 1.25 3.5 C4.25416808 2.11346089 5.45934895 2 9 2 C8.690625 2.5775 8.38125 3.155 8.0625 3.75 C6.80714968 6.21905868 6.80714968 6.21905868 6 10 C9.96 6.535 9.96 6.535 14 3 C14 6 14 6 12.35546875 7.68359375 C11.64003906 8.26238281 10.92460937 8.84117187 10.1875 9.4375 C7.92772701 11.27742445 6.09560664 12.87016664 4.36328125 15.22265625 C3.91339844 15.80917969 3.46351563 16.39570313 3 17 C2.34 17 1.68 17 1 17 C1.59924224 12.80530429 2.57499941 8.99000166 4 5 C2.39125 5.7425 2.39125 5.7425 0.75 6.5 C-2.25416808 7.88653911 -3.45934895 8 -7 8 C-5.50902342 4.2047869 -3.24299151 2.38957269 0 0 Z " fill="#FFF8DA" transform="translate(483,288)"/>
<path d="M0 0 C2.0625 1.4375 2.0625 1.4375 4 4 C4.25365787 8.68829727 3.406162 13.94751663 1 18 C-2.37467396 19.62484302 -6.32416633 19.07068911 -10 19 C-8.68 18.67 -7.36 18.34 -6 18 C-5.9175 17.21625 -5.835 16.4325 -5.75 15.625 C-5 13 -5 13 -2.953125 11.8359375 C-1.98632812 11.42214844 -1.98632812 11.42214844 -1 11 C-1.01160156 10.37351562 -1.02320313 9.74703125 -1.03515625 9.1015625 C-1.04417969 8.28429687 -1.05320312 7.46703125 -1.0625 6.625 C-1.07410156 5.81289063 -1.08570313 5.00078125 -1.09765625 4.1640625 C-1 2 -1 2 0 0 Z " fill="#3847D6" transform="translate(429,290)"/>
<path d="M0 0 C2.875 0.3125 2.875 0.3125 6 1 C6.66 1.99 7.32 2.98 8 4 C6.68 3.67 5.36 3.34 4 3 C6.49130033 9.11500991 11.605285 12.61262081 17 16 C16.67 17.32 16.34 18.64 16 20 C15.55269531 19.51789063 15.10539062 19.03578125 14.64453125 18.5390625 C10.08523147 13.50239165 10.08523147 13.50239165 4 11 C1.22140042 11.45269319 -1.29342734 12.17426597 -4 13 C-3.8125 10.625 -3.8125 10.625 -3 8 C-0.4375 6.6875 -0.4375 6.6875 2 6 C1.34 5.01 0.68 4.02 0 3 C0 2.01 0 1.02 0 0 Z " fill="#FDFAE8" transform="translate(471,334)"/>
<path d="M0 0 C0.33 0 0.66 0 1 0 C1 3.96 1 7.92 1 12 C0.34 12 -0.32 12 -1 12 C-1.04898437 12.65226563 -1.09796875 13.30453125 -1.1484375 13.9765625 C-1.57597119 18.97428386 -2.31259072 23.2541614 -4 28 C-4.37531446 30.32694964 -4.71917202 32.65976685 -5 35 C-5.66 35 -6.32 35 -7 35 C-7 37.64 -7 40.28 -7 43 C-7.66 43 -8.32 43 -9 43 C-9.33 43.66 -9.66 44.32 -10 45 C-10 43.68 -10 42.36 -10 41 C-9.34 41 -8.68 41 -8 41 C-8.05929687 39.94941406 -8.11859375 38.89882813 -8.1796875 37.81640625 C-8.17698553 31.67887465 -6.56522402 25.86921333 -5.125 19.9375 C-4.85558594 18.79216797 -4.58617187 17.64683594 -4.30859375 16.46679688 C-2.99741168 10.93744616 -1.62791151 5.44481083 0 0 Z " fill="#6757C9" transform="translate(470,530)"/>
<path d="M0 0 C-0.34933594 0.73605469 -0.69867188 1.47210938 -1.05859375 2.23046875 C-1.51363281 3.20628906 -1.96867187 4.18210937 -2.4375 5.1875 C-2.88996094 6.15042969 -3.34242188 7.11335938 -3.80859375 8.10546875 C-4.90381422 10.76631586 -5.54954796 13.16784755 -6 16 C-8.63389599 13.79092594 -9.88242848 12.39470439 -10.875 9.0625 C-11.01112911 5.72733691 -10.65091887 3.88910803 -9 1 C-5.8035914 -0.06546953 -3.34252724 -0.07427838 0 0 Z " fill="#4557DD" transform="translate(500,323)"/>
<path d="M0 0 C0.33 0.66 0.66 1.32 1 2 C0.04663979 3.31611677 -0.91285774 4.62778961 -1.875 5.9375 C-2.40867187 6.66839844 -2.94234375 7.39929688 -3.4921875 8.15234375 C-5 10 -5 10 -7 11 C-7.433125 11.9075 -7.86625 12.815 -8.3125 13.75 C-10.16190913 17.31182498 -12.07090971 19.2661824 -15 22 C-16.44151347 23.43347529 -17.87880457 24.87120548 -19.3125 26.3125 C-20.54166667 27.54166667 -21.77083333 28.77083333 -23 30 C-23 23.92355012 -18.27017176 19.9149607 -14.3125 15.75 C-13.24021944 14.60609266 -12.16860774 13.46155799 -11.09765625 12.31640625 C-10.57316895 11.75711426 -10.04868164 11.19782227 -9.50830078 10.62158203 C-6.27152535 7.14170789 -3.13650986 3.57008623 0 0 Z " fill="#F8F6EA" transform="translate(426,339)"/>
<path d="M0 0 C0.33 0 0.66 0 1 0 C1 2.64 1 5.28 1 8 C0.34 8 -0.32 8 -1 8 C-0.95875 9.051875 -0.9175 10.10375 -0.875 11.1875 C-0.9959316 14.87591379 -1.62154805 16.67549823 -3 20 C-3.14967972 21.33078877 -3.27267131 22.66473538 -3.375 24 C-3.77450668 27.97999104 -5.18917626 30.09850453 -8 33 C-8.125 25.25 -8.125 25.25 -7 23 C-6.76700496 20.76497353 -6.61906328 18.53157476 -6.4765625 16.2890625 C-5.90326199 13.5353404 -4.70119424 12.21452217 -3 10 C-2.01310803 7.42967443 -2.01310803 7.42967443 -1.3125 4.75 C-1.06113281 3.85796875 -0.80976563 2.9659375 -0.55078125 2.046875 C-0.36902344 1.37140625 -0.18726563 0.6959375 0 0 Z " fill="#AFA7E2" transform="translate(390,471)"/>
<path d="M0 0 C0.33 0 0.66 0 1 0 C1.85465848 4.45789862 2.16336444 8.71251451 2.1875 13.25 C2.20167969 14.47203125 2.21585937 15.6940625 2.23046875 16.953125 C2 20 2 20 0 22 C-0.99 22 -1.98 22 -3 22 C-3.41136629 14.12309743 -2.436168 7.49701701 0 0 Z " fill="#FFF2BB" transform="translate(465,271)"/>
<path d="M0 0 C2.22942748 0.14179038 4.45853628 0.28859698 6.6875 0.4375 C7.92886719 0.51871094 9.17023438 0.59992188 10.44921875 0.68359375 C13.38180337 0.94491317 16.13441617 1.34798379 19 2 C18.67 2.99 18.34 3.98 18 5 C12.06 5 6.12 5 0 5 C-0.33 4.01 -0.66 3.02 -1 2 C-0.67 1.34 -0.34 0.68 0 0 Z " fill="#FFF2BA" transform="translate(487,315)"/>
<path d="M0 0 C3.64976604 0.49769537 6.41857411 1.80727017 9.75 3.375 C10.08 7.005 10.41 10.635 10.75 14.375 C10.42 13.055 10.09 11.735 9.75 10.375 C9.110625 10.25125 8.47125 10.1275 7.8125 10 C7.131875 9.79375 6.45125 9.5875 5.75 9.375 C5.42 8.715 5.09 8.055 4.75 7.375 C3.10965807 6.64595914 1.43698082 5.98844757 -0.25 5.375 C-2.75 4.375 -2.75 4.375 -5.25 3.375 C-3.58215042 1.26824263 -2.68918476 0.44819746 0 0 Z " fill="#5464DF" transform="translate(445.25,343.625)"/>
<path d="M0 0 C0.99 0.495 0.99 0.495 2 1 C3.9479118 6.84373539 4.07812854 10.96248018 3 17 C4.65 16.67 6.3 16.34 8 16 C8.33 16.99 8.66 17.98 9 19 C12.51190809 20.22969878 12.51190809 20.22969878 16 21 C16 21.33 16 21.66 16 22 C5.3255814 22.41860465 5.3255814 22.41860465 2 20 C-0.53472418 13.48213781 -0.20740273 6.91342431 0 0 Z " fill="#1C2FD0" transform="translate(469,260)"/>
<path d="M0 0 C0.66 0.33 1.32 0.66 2 1 C-0.37294593 5.8498165 -3.5124648 8.09768968 -7.875 11 C-12.37225301 14.02972834 -16.20321335 17.08415035 -20 21 C-20.99 21.66 -21.98 22.32 -23 23 C-23.99 22.67 -24.98 22.34 -26 22 C-17.39458509 14.59119604 -8.7471193 7.24120498 0 0 Z " fill="#A72236" transform="translate(63,304)"/>
<path d="M0 0 C0.99 1.485 0.99 1.485 2 3 C-0.5682137 4.28410685 -3.06929521 4.36048595 -5.890625 4.6796875 C-8.7250958 5.11010714 -11.32187242 5.99570216 -14 7 C-13.4375 3.625 -13.4375 3.625 -12 0 C-7.45243987 -2.14507553 -4.37751133 -2.6265068 0 0 Z " fill="#6172E4" transform="translate(480,346)"/>
<path d="M0 0 C-0.875 6.875 -0.875 6.875 -2 8 C-3.9609375 8.23828125 -3.9609375 8.23828125 -6.375 8.3125 C-7.16648437 8.34988281 -7.95796875 8.38726562 -8.7734375 8.42578125 C-11 8 -11 8 -12.7890625 5.98046875 C-13.18867188 5.32691406 -13.58828125 4.67335938 -14 4 C-12.23141309 3.32739649 -10.46003984 2.66211605 -8.6875 2 C-7.70136719 1.62875 -6.71523438 1.2575 -5.69921875 0.875 C-3 0 -3 0 0 0 Z " fill="#5D70E4" transform="translate(459,280)"/>
<path d="M0 0 C0.33 0.66 0.66 1.32 1 2 C-5.10580372 8.47585243 -9.86748927 12.51934154 -19 13 C-19 10.36 -19 7.72 -19 5 C-18.0925 5.515625 -17.185 6.03125 -16.25 6.5625 C-13.29748405 8.18711299 -13.29748405 8.18711299 -11.09375 7.8125 C-8.39961077 6.76701313 -6.49366577 5.25222967 -4.25 3.4375 C-3.45078125 2.79683594 -2.6515625 2.15617187 -1.828125 1.49609375 C-1.22484375 1.00238281 -0.6215625 0.50867188 0 0 Z " fill="#F2F3F6" transform="translate(489,281)"/>
<path d="M0 0 C4.66839378 0.44041451 4.66839378 0.44041451 7 2 C8.56261629 5.56168747 9.32910721 9.17910584 10 13 C8.68 14.32 7.36 15.64 6 17 C4.26043342 15.26043342 4.62809614 12.8063378 4.4375 10.4375 C4.35371094 9.42558594 4.26992188 8.41367187 4.18359375 7.37109375 C4.12300781 6.58863281 4.06242187 5.80617188 4 5 C3.34 5 2.68 5 2 5 C1.34 3.35 0.68 1.7 0 0 Z " fill="#4758DD" transform="translate(423,319)"/>
<path d="M0 0 C3 0.125 3 0.125 4 1.125 C4.07179964 2.64428038 4.08392007 4.16667482 4.0625 5.6875 C4.05347656 6.51378906 4.04445313 7.34007812 4.03515625 8.19140625 C4.02355469 8.82949219 4.01195312 9.46757812 4 10.125 C3.67 10.125 3.34 10.125 3 10.125 C3 7.485 3 4.845 3 2.125 C1.35 2.455 -0.3 2.785 -2 3.125 C-2 13.355 -2 23.585 -2 34.125 C-2.99 34.62 -2.99 34.62 -4 35.125 C-4.0246519 30.30119198 -4.04283693 25.47742033 -4.05493164 20.65356445 C-4.05997174 19.01130536 -4.06680378 17.36905077 -4.07543945 15.72680664 C-4.08751926 13.37124521 -4.09323139 11.01574291 -4.09765625 8.66015625 C-4.10281754 7.92160904 -4.10797882 7.18306183 -4.11329651 6.4221344 C-4.1134925 4.65601912 -4.06194719 2.89002854 -4 1.125 C-3 0.125 -3 0.125 0 0 Z " fill="#FFF8D8" transform="translate(461,333.875)"/>
<path d="M0 0 C0.33 0 0.66 0 1 0 C1.38128487 5.05202456 0.95872605 8.53339442 -0.9375 13.25 C-3.27014664 19.12695073 -3.78079408 24.71975041 -4 31 C-4.99 31 -5.98 31 -7 31 C-6.86335938 30.19433594 -6.72671875 29.38867188 -6.5859375 28.55859375 C-6.15612256 25.94818436 -5.74614382 23.33834853 -5.3515625 20.72265625 C-5.10954076 19.169245 -4.86734995 17.61586008 -4.625 16.0625 C-4.5115625 15.28970703 -4.398125 14.51691406 -4.28125 13.72070312 C-3.48668154 8.72083881 -2.18009423 4.57332616 0 0 Z " fill="#9D93DC" transform="translate(348,638)"/>
<path d="M0 0 C1.03115279 3.26913624 0.9638984 5.86041348 0.5625 9.25 C0.46066406 10.14203125 0.35882813 11.0340625 0.25390625 11.953125 C0.17011719 12.62859375 0.08632813 13.3040625 0 14 C-0.66 14 -1.32 14 -2 14 C-2 16.64 -2 19.28 -2 22 C-2.66 22 -3.32 22 -4 22 C-4.12117188 22.91523437 -4.24234375 23.83046875 -4.3671875 24.7734375 C-4.53476562 25.96195313 -4.70234375 27.15046875 -4.875 28.375 C-5.11863281 30.15003906 -5.11863281 30.15003906 -5.3671875 31.9609375 C-6 35 -6 35 -8 37 C-6.66666667 28.33333333 -5.33333333 19.66666667 -4 11 C-3.01 10.67 -2.02 10.34 -1 10 C-1.020625 8.72125 -1.04125 7.4425 -1.0625 6.125 C-1.125 2.25 -1.125 2.25 0 0 Z " fill="#A69DDF" transform="translate(362,579)"/>
<path d="M0 0 C1.9375 0.75 1.9375 0.75 4 2 C4.75 4.125 4.75 4.125 5 6 C5.99 6 6.98 6 8 6 C10.04296875 8.40625 10.04296875 8.40625 12.1875 11.5 C13.26064453 13.03140625 13.26064453 13.03140625 14.35546875 14.59375 C14.89816406 15.3878125 15.44085938 16.181875 16 17 C16.33 16.01 16.66 15.02 17 14 C17.66 14 18.32 14 19 14 C19 15.98 19 17.96 19 20 C15.32097231 19.78976985 14.1456986 19.15317032 11.5625 16.4375 C10.69627723 15.3007534 9.84311091 14.15399251 9 13 C8.49082031 12.34 7.98164063 11.68 7.45703125 11 C4.73526284 7.45162044 2.19675147 3.90533595 0 0 Z " fill="#FCF9E8" transform="translate(426,285)"/>
<path d="M0 0 C3.68802044 1.22934015 4.72356973 2.93859378 7 6 C6.67 6.66 6.34 7.32 6 8 C5.01 7.34 4.02 6.68 3 6 C3.66 8.97 4.32 11.94 5 15 C3.02 14.34 1.04 13.68 -1 13 C-1 12.34 -1 11.68 -1 11 C-0.34 11 0.32 11 1 11 C0.84402344 10.28972656 0.68804687 9.57945312 0.52734375 8.84765625 C0.33269531 7.92855469 0.13804687 7.00945312 -0.0625 6.0625 C-0.25972656 5.14597656 -0.45695312 4.22945313 -0.66015625 3.28515625 C-0.77230469 2.53105469 -0.88445312 1.77695312 -1 1 C-0.67 0.67 -0.34 0.34 0 0 Z " fill="#FFFBEB" transform="translate(480,326)"/>
<path d="M0 0 C0.66 0.33 1.32 0.66 2 1 C-3.66319301 6.20444273 -9.62497025 10.70208035 -16 15 C-16.66 14.67 -17.32 14.34 -18 14 C-17.38125 13.773125 -16.7625 13.54625 -16.125 13.3125 C-13.35871763 11.60391383 -13.09758944 10.00007779 -12 7 C-9.8855986 4.46652806 -7.98025612 3.41772438 -4.875 2.375 C-2.19982058 1.57477307 -2.19982058 1.57477307 0 0 Z " fill="#FFF8D8" transform="translate(503,273)"/>
<path d="M0 0 C0.66 0 1.32 0 2 0 C1.67357188 6.74618109 0.36712723 12.8950141 -1.4375 19.375 C-1.65494873 20.15987793 -1.87239746 20.94475586 -2.09643555 21.75341797 C-3.133893 25.378476 -4.23827781 28.65202781 -6 32 C-6.05391993 30.20866022 -6.09275571 28.41686101 -6.125 26.625 C-6.14820313 25.62726562 -6.17140625 24.62953125 -6.1953125 23.6015625 C-6 21 -6 21 -4 19 C-2.18590967 12.7640645 -1.10489844 6.39430584 0 0 Z " fill="#513FC1" transform="translate(342,653)"/>
<path d="M0 0 C1.47816027 2.95632055 0.43812449 4.73239219 -0.43359375 7.8828125 C-0.75263672 9.04941406 -1.07167969 10.21601563 -1.40039062 11.41796875 C-1.74263672 12.64128906 -2.08488281 13.86460937 -2.4375 15.125 C-2.94506836 16.97158203 -2.94506836 16.97158203 -3.46289062 18.85546875 C-4.30223055 21.90546454 -5.14819594 24.95346607 -6 28 C-6.33 28 -6.66 28 -7 28 C-7.09765625 21.84765625 -7.09765625 21.84765625 -7 20 C-6.67 19.67 -6.34 19.34 -6 19 C-5.79231771 17.52603261 -5.63283983 16.0450874 -5.5 14.5625 C-5.10958904 10.21917808 -5.10958904 10.21917808 -4 8 C-3.34 8 -2.68 8 -2 8 C-1.855625 6.865625 -1.71125 5.73125 -1.5625 4.5625 C-1 1 -1 1 0 0 Z " fill="#5543C2" transform="translate(394,453)"/>
<path d="M0 0 C0.33 0 0.66 0 1 0 C1.4940239 7.41035857 1.4940239 7.41035857 -0.9375 10.3125 C-1.618125 10.869375 -2.29875 11.42625 -3 12 C-3.33 12.99 -3.66 13.98 -4 15 C-7.49029418 16.47666292 -11.27436386 16.07164685 -15 16 C-15 15.34 -15 14.68 -15 14 C-14.30132812 13.81824219 -13.60265625 13.63648438 -12.8828125 13.44921875 C-11.51769531 13.07216797 -11.51769531 13.07216797 -10.125 12.6875 C-8.76761719 12.32205078 -8.76761719 12.32205078 -7.3828125 11.94921875 C-4.67886681 11.13330148 -4.67886681 11.13330148 -3 8 C-2.31744011 5.67126625 -1.64949225 3.33817209 -1 1 C-0.67 0.67 -0.34 0.34 0 0 Z " fill="#2126C8" transform="translate(427,293)"/>
<path d="M0 0 C0.66 0 1.32 0 2 0 C1.0227279 4.67165677 0.02058122 9.33763256 -1 14 C-1.16580566 14.75877441 -1.33161133 15.51754883 -1.50244141 16.29931641 C-2.01373962 18.61826385 -2.5365183 20.93434326 -3.0625 23.25 C-3.22459961 23.98855225 -3.38669922 24.72710449 -3.55371094 25.48803711 C-4.770513 30.770513 -4.770513 30.770513 -7 33 C-7.20080062 28.68278665 -6.60208231 25.95808571 -5 22 C-4.77988355 20.58803348 -4.59419932 19.17040347 -4.4375 17.75 C-4 14 -4 14 -3 13 C-2.76807135 11.48530552 -2.58784762 9.96245438 -2.4375 8.4375 C-2.35371094 7.61121094 -2.26992188 6.78492188 -2.18359375 5.93359375 C-2.12300781 5.29550781 -2.06242187 4.65742188 -2 4 C-1.34 4 -0.68 4 0 4 C0 2.68 0 1.36 0 0 Z " fill="#4734BD" transform="translate(402,416)"/>
<path d="M0 0 C0.99 0 1.98 0 3 0 C2.85915204 1.79206547 2.71216299 3.58364917 2.5625 5.375 C2.48128906 6.37273437 2.40007812 7.37046875 2.31640625 8.3984375 C2 11 2 11 1 13 C0.34 13 -0.32 13 -1 13 C-1.33 13.66 -1.66 14.32 -2 15 C-2.05386629 12.87527424 -2.09273071 10.75016348 -2.125 8.625 C-2.14820313 7.44164062 -2.17140625 6.25828125 -2.1953125 5.0390625 C-2 2 -2 2 0 0 Z " fill="#FFF1B5" transform="translate(461,337)"/>
<path d="M0 0 C2.05078125 0.03255208 4.1015625 0.06510417 6.15234375 0.09765625 C6.15234375 0.42765625 6.15234375 0.75765625 6.15234375 1.09765625 C4.17234375 1.09765625 2.19234375 1.09765625 0.15234375 1.09765625 C0.15234375 2.41765625 0.15234375 3.73765625 0.15234375 5.09765625 C13.51734375 5.59265625 13.51734375 5.59265625 27.15234375 6.09765625 C27.15234375 6.42765625 27.15234375 6.75765625 27.15234375 7.09765625 C17.25234375 7.09765625 7.35234375 7.09765625 -2.84765625 7.09765625 C-2.84765625 0.15051037 -2.84765625 0.15051037 0 0 Z " fill="#FFF6D0" transform="translate(486.84765625,313.90234375)"/>
<path d="M0 0 C2.31 0.66 4.62 1.32 7 2 C7.6875 4.8125 7.6875 4.8125 8 8 C6.6875 9.875 6.6875 9.875 5 11 C4.34 11 3.68 11 3 11 C2.01 7.37 1.02 3.74 0 0 Z " fill="#92A2F0" transform="translate(429,320)"/>
<path d="M0 0 C3.45101522 4.24740335 6.73279209 8.61105071 10 13 C5.89253434 13 4.80245139 11.36039564 1.8125 8.625 C0.91144531 7.81289063 0.01039063 7.00078125 -0.91796875 6.1640625 C-3 4 -3 4 -3 2 C-2.01 1.34 -1.02 0.68 0 0 Z " fill="#D7DCF4" transform="translate(527,384)"/>
<path d="M0 0 C2.4837537 2.4837537 2.32803116 3.56777522 2.5625 7 C2.77217523 10.63718775 2.77217523 10.63718775 4 14 C4.66 14 5.32 14 6 14 C6.33 15.32 6.66 16.64 7 18 C4.64453125 17.796875 4.64453125 17.796875 2 17 C0.63671875 14.890625 0.63671875 14.890625 -0.3125 12.25 C-0.63863281 11.38890625 -0.96476562 10.5278125 -1.30078125 9.640625 C-2.01986017 6.92499733 -2.28026572 4.79315671 -2 2 C-1.34 1.34 -0.68 0.68 0 0 Z " fill="#1C2CD0" transform="translate(499,295)"/>
<path d="M0 0 C2.91491002 4.37236503 3.22085649 8.26469904 2.5625 13.4375 C2.376875 14.283125 2.19125 15.12875 2 16 C0.68 16.33 -0.64 16.66 -2 17 C-1.34 11.39 -0.68 5.78 0 0 Z " fill="#EBECEF" transform="translate(461,262)"/>
<path d="M0 0 C0.66 0.66 1.32 1.32 2 2 C1.360625 2.598125 0.72125 3.19625 0.0625 3.8125 C-2.20310389 5.90810337 -2.20310389 5.90810337 -3 9 C-4.70703125 10.71875 -4.70703125 10.71875 -6.8125 12.5 C-7.49957031 13.0878125 -8.18664062 13.675625 -8.89453125 14.28125 C-10.89158044 15.91149424 -12.9250562 17.47060322 -15 19 C-13.62084927 15.84174482 -12.04759566 13.92431303 -9.5 11.625 C-6.34547103 8.6005547 -5.27036907 6.20199 -4 2 C-1.875 0.625 -1.875 0.625 0 0 Z " fill="#FFF9E1" transform="translate(533,251)"/>
<path d="M0 0 C2.97 0 5.94 0 9 0 C8.01 0.33 7.02 0.66 6 1 C5.19787372 2.87387216 5.19787372 2.87387216 4.8125 5.0625 C4.65394531 5.79597656 4.49539063 6.52945312 4.33203125 7.28515625 C4.22246094 7.85105469 4.11289062 8.41695313 4 9 C1.4375 6.75 1.4375 6.75 -1 4 C-0.67 2.68 -0.34 1.36 0 0 Z " fill="#ECEFF9" transform="translate(485,323)"/>
<path d="M0 0 C0.33 0 0.66 0 1 0 C2.0712828 6.02596573 2.09945415 11.88909517 2 18 C-4.625 20.125 -4.625 20.125 -8 19 C-7.67 18.34 -7.34 17.68 -7 17 C-5.7934375 17.0309375 -5.7934375 17.0309375 -4.5625 17.0625 C-2.06645115 17.29633621 -2.06645115 17.29633621 -1 16 C-0.76321284 13.30764224 -0.57801975 10.63501844 -0.4375 7.9375 C-0.37272461 6.79958008 -0.37272461 6.79958008 -0.30664062 5.63867188 C-0.20026367 3.75934562 -0.09960066 1.87969756 0 0 Z " fill="#FFFAE2" transform="translate(468,277)"/>
<path d="M0 0 C0.99 0.33 1.98 0.66 3 1 C1.08435828 2.60540415 -0.83246912 4.209355 -2.75 5.8125 C-3.55824219 6.49022461 -3.55824219 6.49022461 -4.3828125 7.18164062 C-7.20009316 9.53510069 -10.035535 11.83421368 -13 14 C-13.66 13.67 -14.32 13.34 -15 13 C-14.071875 12.278125 -13.14375 11.55625 -12.1875 10.8125 C-9.91761627 8.95628667 -8.90205561 7.8237001 -7.4375 5.1875 C-6.963125 4.465625 -6.48875 3.74375 -6 3 C-3.3125 2.6875 -3.3125 2.6875 -1 3 C-0.67 2.01 -0.34 1.02 0 0 Z " fill="#FEFAE3" transform="translate(525,255)"/>
<path d="M0 0 C0.886875 0.165 1.77375 0.33 2.6875 0.5 C2.08292969 0.74492187 1.47835938 0.98984375 0.85546875 1.2421875 C-3.03145721 3.4973049 -4.6106293 7.46285559 -6.3125 11.5 C-6.93360158 14.23194681 -7.15911545 16.68794997 -7.3125 19.5 C-9.3125 17.5 -9.3125 17.5 -9.46484375 15.6171875 C-8.84388505 9.13663672 -7.33701268 1.10747361 0 0 Z " fill="#3142D7" transform="translate(503.3125,322.5)"/>
<path d="M0 0 C0.33 0 0.66 0 1 0 C1.48350422 7.89723556 -0.32335279 15.33532703 -2 23 C-2.66 23 -3.32 23 -4 23 C-3.63259093 14.91700056 -2.74049239 7.63545993 0 0 Z " fill="#7E71D1" transform="translate(438,656)"/>
<path d="M0 0 C5.94 2.475 5.94 2.475 12 5 C11.01 5.99 10.02 6.98 9 8 C5.54697633 7.76979842 2.72978582 6.04733937 0 4 C0 2.68 0 1.36 0 0 Z " fill="#7F90EC" transform="translate(470,282)"/>
<path d="M0 0 C-4.28783439 2.85855626 -8.70953503 4.64370545 -13.8125 5.4375 C-16.77074603 4.84585079 -17.3337467 3.41105421 -19 1 C-18.31292969 1.01160156 -17.62585938 1.02320313 -16.91796875 1.03515625 C-15.56638672 1.04869141 -15.56638672 1.04869141 -14.1875 1.0625 C-12.84751953 1.07990234 -12.84751953 1.07990234 -11.48046875 1.09765625 C-7.5257239 0.94195763 -4.07564359 -0.09056986 0 0 Z " fill="#3E51DC" transform="translate(459,279)"/>
<path d="M0 0 C6.09433114 2.48287565 9.95783623 8.03391309 14 13 C9.15483092 12.57830678 7.30981069 10.67153905 4.1875 7.0625 C3.39730469 6.16660156 2.60710937 5.27070313 1.79296875 4.34765625 C0 2 0 2 0 0 Z " fill="#F8F6E7" transform="translate(416,259)"/>
<path d="M0 0 C3.82868919 1.45226142 5.2538953 3.33318013 7 7 C7 8.32 7 9.64 7 11 C5.68 10.34 4.36 9.68 3 9 C3 8.01 3 7.02 3 6 C2.34 6 1.68 6 1 6 C0.67 4.02 0.34 2.04 0 0 Z " fill="#FFF2BA" transform="translate(483,332)"/>
<path d="M0 0 C0 0.33 0 0.66 0 1 C-1.65 1 -3.3 1 -5 1 C-5.19335938 1.62648438 -5.38671875 2.25296875 -5.5859375 2.8984375 C-5.84632813 3.71570313 -6.10671875 4.53296875 -6.375 5.375 C-6.63023437 6.18710937 -6.88546875 6.99921875 -7.1484375 7.8359375 C-8 10 -8 10 -10 12 C-11.01018369 7.65621014 -11.25218057 4.941316 -9 1 C-5.8035914 -0.06546953 -3.34252724 -0.07427838 0 0 Z " fill="#8C9DEE" transform="translate(500,323)"/>
<path d="M0 0 C5.78461538 4.43076923 5.78461538 4.43076923 6.875 7.3125 C6.936875 8.1478125 6.936875 8.1478125 7 9 C3.20696275 7.99806563 0.28463659 7.18975773 -3 5 C-3.33 5.99 -3.66 6.98 -4 8 C-4.66 6.02 -5.32 4.04 -6 2 C-4.576875 2.495 -4.576875 2.495 -3.125 3 C-0.22937548 4.10159191 -0.22937548 4.10159191 2 4 C1.34 2.68 0.68 1.36 0 0 Z " fill="#FFF7D5" transform="translate(444,287)"/>
<path d="M0 0 C2.9375 0.3125 2.9375 0.3125 4.9375 2.3125 C4.6075 3.6325 4.2775 4.9525 3.9375 6.3125 C0.6375 5.3225 -2.6625 4.3325 -6.0625 3.3125 C-3.0625 0.3125 -3.0625 0.3125 0 0 Z " fill="#A2B1F2" transform="translate(450.0625,340.6875)"/>
<path d="M0 0 C5.03163018 4.29785078 10.02718443 8.63425542 15 13 C13.68 13.33 12.36 13.66 11 14 C10.67 13.01 10.34 12.02 10 11 C9.01 10.67 8.02 10.34 7 10 C7 9.34 7 8.68 7 8 C6.34 8 5.68 8 5 8 C0 2.52380952 0 2.52380952 0 0 Z " fill="#F0F0EA" transform="translate(401,245)"/>
<path d="M0 0 C1.34326102 4.34736876 0.31931837 7.83560022 -0.8125 12.125 C-0.99103516 12.85332031 -1.16957031 13.58164062 -1.35351562 14.33203125 C-2.7373059 19.7373059 -2.7373059 19.7373059 -5 22 C-4.33333333 16.66666667 -3.66666667 11.33333333 -3 6 C-2.34 6 -1.68 6 -1 6 C-0.67 4.02 -0.34 2.04 0 0 Z " fill="#8A7ED5" transform="translate(433,679)"/>
<path d="M0 0 C1.07310858 3.27185553 0.89263102 5.42947592 0.0625 8.75 C-0.13214844 9.54921875 -0.32679688 10.3484375 -0.52734375 11.171875 C-0.76130859 12.07679688 -0.76130859 12.07679688 -1 13 C-1.66 13 -2.32 13 -3 13 C-3.12375 14.27875 -3.2475 15.5575 -3.375 16.875 C-3.75 20.75 -3.75 20.75 -6 23 C-5.71712867 15.43319203 -4.37332655 9.74665311 -1 3 C-0.67 2.01 -0.34 1.02 0 0 Z " fill="#8073D2" transform="translate(493,442)"/>
<path d="M0 0 C0.33 0 0.66 0 1 0 C1.05437607 1.58294782 1.09296271 3.16644256 1.125 4.75 C1.14820313 5.63171875 1.17140625 6.5134375 1.1953125 7.421875 C0.98726792 10.16806342 0.30853512 11.61384772 -1 14 C-1.4154465 15.40533756 -1.79200436 16.82287585 -2.125 18.25 C-2.41375 19.4875 -2.7025 20.725 -3 22 C-3.9867097 18.88925167 -3.96838493 16.83557243 -3.22265625 13.671875 C-3.03896484 12.87265625 -2.85527344 12.0734375 -2.66601562 11.25 C-2.46685547 10.425 -2.26769531 9.6 -2.0625 8.75 C-1.86720703 7.90953125 -1.67191406 7.0690625 -1.47070312 6.203125 C-0.98857714 4.13351102 -0.49536137 2.06648605 0 0 Z " fill="#B9B2E6" transform="translate(369,553)"/>
<path d="M0 0 C6.70212766 1.93617021 6.70212766 1.93617021 9 5 C9 5.66 9 6.32 9 7 C9.99 7 10.98 7 12 7 C12.33 8.65 12.66 10.3 13 12 C8.31831119 8.6194257 3.9045295 5.27057914 0 1 C0 0.67 0 0.34 0 0 Z " fill="#F0EFE1" transform="translate(498,363)"/>
<path d="M0 0 C1.5625 1.125 1.5625 1.125 3 3 C2.82159569 7.19250128 1.92361014 9.95944546 -1 13 C-1.66 13 -2.32 13 -3 13 C-2.17812739 8.61667943 -1.09845718 4.32059823 0 0 Z " fill="#8595EC" transform="translate(433,295)"/>
<path d="M0 0 C0.33 1.32 0.66 2.64 1 4 C1.66 4 2.32 4 3 4 C3.66 6.31 4.32 8.62 5 11 C3.35 10.67 1.7 10.34 0 10 C-0.19412181 8.52168779 -0.38012131 7.04230684 -0.5625 5.5625 C-0.66691406 4.73878906 -0.77132813 3.91507812 -0.87890625 3.06640625 C-0.91886719 2.38449219 -0.95882813 1.70257813 -1 1 C-0.67 0.67 -0.34 0.34 0 0 Z " fill="#90A1F0" transform="translate(491,301)"/>
<path d="M0 0 C-0.33 1.32 -0.66 2.64 -1 4 C-3.97 4 -6.94 4 -10 4 C-10.33 3.34 -10.66 2.68 -11 2 C-7.17679443 0.57741188 -4.08718695 -0.24042276 0 0 Z " fill="#90A1F0" transform="translate(458,284)"/>
<path d="M0 0 C3.25516428 3.16474305 6.32008793 6.32752791 9 10 C9 10.66 9 11.32 9 12 C8.01 12 7.02 12 6 12 C6 11.34 6 10.68 6 10 C5.38125 9.835 4.7625 9.67 4.125 9.5 C0.72243051 7.09818625 0.77387974 3.99837866 0 0 Z " fill="#E6E8EB" transform="translate(496,343)"/>
<path d="M0 0 C1.03115279 3.26913624 0.9638984 5.86041348 0.5625 9.25 C0.46066406 10.14203125 0.35882813 11.0340625 0.25390625 11.953125 C0.17011719 12.62859375 0.08632813 13.3040625 0 14 C-0.99 14 -1.98 14 -3 14 C-3.33 15.32 -3.66 16.64 -4 18 C-4 15.69 -4 13.38 -4 11 C-3.01 10.67 -2.02 10.34 -1 10 C-1.020625 8.72125 -1.04125 7.4425 -1.0625 6.125 C-1.125 2.25 -1.125 2.25 0 0 Z " fill="#8073D1" transform="translate(362,579)"/>
<path d="M0 0 C4.75207471 -0.43200679 7.78210698 1.01510917 12 3 C12 3.99 12 4.98 12 6 C10.55903414 5.57405412 9.12231288 5.13373367 7.6875 4.6875 C6.88699219 4.44386719 6.08648437 4.20023437 5.26171875 3.94921875 C2.90035427 2.95817977 1.66120007 1.91925057 0 0 Z " fill="#7989E9" transform="translate(443,344)"/>
<path d="M0 0 C-0.48210937 0.35191406 -0.96421875 0.70382812 -1.4609375 1.06640625 C-6.12867933 4.71486568 -7.94757674 7.15320409 -9 13 C-9.33 13 -9.66 13 -10 13 C-9.56476716 7.86425246 -9.19875176 4.22235233 -6 0 C-3.50907189 -1.24546405 -2.58919267 -0.7767578 0 0 Z " fill="#161FC8" transform="translate(508,326)"/>
<path d="M0 0 C2 1 2 1 2.8515625 3.50390625 C3.10679687 4.51324219 3.36203125 5.52257812 3.625 6.5625 C3.88539063 7.57441406 4.14578125 8.58632813 4.4140625 9.62890625 C4.60742188 10.41136719 4.80078125 11.19382812 5 12 C4.01 12.99 3.02 13.98 2 15 C1.34 10.05 0.68 5.1 0 0 Z " fill="#6979E6" transform="translate(428,320)"/>
<path d="M0 0 C1 2 1 2 0.9375 5.25 C0.99935539 8.96132367 1.66067261 11.56797357 3 15 C2.01 14.67 1.02 14.34 0 14 C-0.33 12.02 -0.66 10.04 -1 8 C-1.66 8 -2.32 8 -3 8 C-3.36923077 3.44615385 -3.36923077 3.44615385 -1.5 1.1875 C-1.005 0.795625 -0.51 0.40375 0 0 Z " fill="#6074E7" transform="translate(495,297)"/>
<path d="M0 0 C-2.37115444 2.74554724 -4.53079925 3.95117186 -8 5 C-11.3125 5.125 -11.3125 5.125 -14 5 C-12.49587218 1.99174436 -10.13951699 1.69337029 -7.078125 0.59765625 C-4.64864679 -0.10104707 -2.51431136 -0.23571669 0 0 Z " fill="#3D4AD7" transform="translate(480,349)"/>
<path d="M0 0 C0 0.99 0 1.98 0 3 C-2.64 3.66 -5.28 4.32 -8 5 C-7.67 3.35 -7.34 1.7 -7 0 C-3.86650268 -1.04449911 -3.01031744 -0.93423645 0 0 Z " fill="#BECAF7" transform="translate(475,342)"/>
<path d="M0 0 C0.66 0 1.32 0 2 0 C5.18772538 5.68246698 6 10.52952405 6 17 C3.616756 14.616756 3.54841764 13.45352292 3 10.1875 C2.34126354 6.5749056 1.56282991 3.34892125 0 0 Z " fill="#2029CB" transform="translate(420,319)"/>
<path d="M0 0 C0.33 0 0.66 0 1 0 C0.58846263 4.97093824 0.20399168 9.44508386 -2 14 C-2.99 13.67 -3.98 13.34 -5 13 C-3.35 8.71 -1.7 4.42 0 0 Z " fill="#5767E1" transform="translate(432,294)"/>
<path d="M0 0 C0.66 0.33 1.32 0.66 2 1 C0.7820245 4.65392651 -0.14396506 4.95831699 -3.4375 6.75 C-4.64212891 7.42289062 -4.64212891 7.42289062 -5.87109375 8.109375 C-6.57363281 8.40328125 -7.27617188 8.6971875 -8 9 C-8.66 8.67 -9.32 8.34 -10 8 C-6.7 5.36 -3.4 2.72 0 0 Z " fill="#E2DEF2" transform="translate(53,315)"/>
<path d="M0 0 C0.66 0.5775 1.32 1.155 2 1.75 C5.47655106 4.35741329 9.07569099 6.16930498 13 8 C10.34501768 9.0169313 9.30844625 9.13022151 6.640625 8.00390625 C5.85171875 7.52824219 5.0628125 7.05257813 4.25 6.5625 C3.45078125 6.08941406 2.6515625 5.61632812 1.828125 5.12890625 C1.22484375 4.75636719 0.6215625 4.38382812 0 4 C0 2.68 0 1.36 0 0 Z " fill="#4D60E0" transform="translate(470,278)"/>
<path d="M0 0 C0.66 0.33 1.32 0.66 2 1 C1.50628906 1.54269531 1.01257813 2.08539063 0.50390625 2.64453125 C-0.13675781 3.35996094 -0.77742187 4.07539063 -1.4375 4.8125 C-2.07558594 5.52019531 -2.71367188 6.22789062 -3.37109375 6.95703125 C-5.19086012 8.99896152 -5.19086012 8.99896152 -6 12 C-8.5625 13.1875 -8.5625 13.1875 -11 14 C-9.61263874 10.84375314 -7.99607292 8.80136567 -5.5 6.4375 C-3.27903267 4.32475777 -1.72257583 2.58386374 0 0 Z " fill="#FFFAE0" transform="translate(516,270)"/>
<path d="M0 0 C-0.33 0.66 -0.66 1.32 -1 2 C-3.28515625 2.6328125 -3.28515625 2.6328125 -6.0625 3.125 C-6.98160156 3.29257812 -7.90070313 3.46015625 -8.84765625 3.6328125 C-9.91306641 3.81457031 -9.91306641 3.81457031 -11 4 C-10.67 3.01 -10.34 2.02 -10 1 C-3.84210526 -1.28070175 -3.84210526 -1.28070175 0 0 Z " fill="#8B9BEE" transform="translate(478,345)"/>
<path d="M0 0 C0.33 0.66 0.66 1.32 1 2 C-0.66666667 3.66666667 -2.33333333 5.33333333 -4 7 C-4.556875 7.598125 -5.11375 8.19625 -5.6875 8.8125 C-7 10 -7 10 -9 10 C-7.61811547 6.78956118 -6.07578097 4.95063635 -3.375 2.75 C-2.74335937 2.22921875 -2.11171875 1.7084375 -1.4609375 1.171875 C-0.73777344 0.59179688 -0.73777344 0.59179688 0 0 Z " fill="#F7F7F6" transform="translate(517,259)"/>
<path d="M0 0 C0.33 0 0.66 0 1 0 C1 2.64 1 5.28 1 8 C0.34 8 -0.32 8 -1 8 C-1.12375 9.299375 -1.2475 10.59875 -1.375 11.9375 C-1.5859375 14.15234375 -1.5859375 14.15234375 -2 16 C-2.66 16.33 -3.32 16.66 -4 17 C-2.07289294 5.47835991 -2.07289294 5.47835991 0 0 Z " fill="#6859C9" transform="translate(486,469)"/>
<path d="M0 0 C0.33 0 0.66 0 1 0 C1.08142927 1.7492214 1.13938541 3.49954542 1.1875 5.25 C1.23970703 6.71179688 1.23970703 6.71179688 1.29296875 8.203125 C0.96075202 11.37468742 0.11327721 12.67040307 -2 15 C-2.19392201 9.47322267 -1.7479503 5.24385089 0 0 Z " fill="#FFFAE4" transform="translate(463,353)"/>
<path d="M0 0 C3.15330554 0.60694155 5.18888867 1.6416665 7.75 3.5625 C8.67039062 4.24505859 8.67039062 4.24505859 9.609375 4.94140625 C10.29773438 5.46541016 10.29773438 5.46541016 11 6 C10.67 7.32 10.34 8.64 10 10 C6.66666667 6.66666667 3.33333333 3.33333333 0 0 Z " fill="#EEEEEA" transform="translate(477,344)"/>
<path d="M0 0 C0 0.66 0 1.32 0 2 C-3.67410785 3.17571451 -7.16929183 3.07366746 -11 3 C-11 2.34 -11 1.68 -11 1 C-3.375 -1.125 -3.375 -1.125 0 0 Z " fill="#1129D2" transform="translate(423,306)"/>
<path d="M0 0 C3.96 1.98 3.96 1.98 8 4 C7.67 4.66 7.34 5.32 7 6 C4.03 5.505 4.03 5.505 1 5 C0.67 3.35 0.34 1.7 0 0 Z " fill="#BECBF6" transform="translate(470,286)"/>
<path d="M0 0 C0.33 0 0.66 0 1 0 C1.125 7.75 1.125 7.75 0 10 C-0.66 10 -1.32 10 -2 10 C-2.33 11.32 -2.66 12.64 -3 14 C-3.40652968 8.57960425 -2.03993514 4.92984325 0 0 Z " fill="#8C80D6" transform="translate(446,626)"/>
<path d="M0 0 C3.28788824 3.11016455 5.83735988 6.01618925 8 10 C7.01 10.495 7.01 10.495 6 11 C5.731875 10.360625 5.46375 9.72125 5.1875 9.0625 C4.11332248 6.66868314 4.11332248 6.66868314 1 6 C0.67 4.02 0.34 2.04 0 0 Z " fill="#DCDFEB" transform="translate(510,362)"/>
<path d="M0 0 C-0.11458693 1.43836751 -0.24209116 2.87570966 -0.375 4.3125 C-0.44460938 5.11300781 -0.51421875 5.91351562 -0.5859375 6.73828125 C-1 9 -1 9 -3 12 C-3 8.37 -3 4.74 -3 1 C-1 0 -1 0 0 0 Z " fill="#5745C3" transform="translate(366,566)"/>
<path d="M0 0 C0.99 0.33 1.98 0.66 3 1 C-0.3 3.31 -3.6 5.62 -7 8 C-7.33 7.01 -7.66 6.02 -8 5 C-7.236875 4.54625 -6.47375 4.0925 -5.6875 3.625 C-3.76367186 2.46175508 -1.87058776 1.2470585 0 0 Z " fill="#E9EBF0" transform="translate(416,362)"/>
<path d="M0 0 C0.33 0.99 0.66 1.98 1 3 C0.360625 3.2475 -0.27875 3.495 -0.9375 3.75 C-1.9584375 4.36875 -1.9584375 4.36875 -3 5 C-3.144375 5.66 -3.28875 6.32 -3.4375 7 C-3.623125 7.66 -3.80875 8.32 -4 9 C-6.5625 10.25 -6.5625 10.25 -9 11 C-8.34 10.01 -7.68 9.02 -7 8 C-6.34 8 -5.68 8 -5 8 C-4.731875 7.236875 -4.46375 6.47375 -4.1875 5.6875 C-3.05575888 3.12619116 -2.08776599 1.80307062 0 0 Z " fill="#F9F6E6" transform="translate(494,277)"/>
<path d="M0 0 C0.33 0 0.66 0 1 0 C1.45496035 5.76283104 -0.20900148 10.60568303 -2 16 C-3.11158336 12.66524993 -2.85632434 11.36609557 -2.125 8 C-1.94195312 7.13375 -1.75890625 6.2675 -1.5703125 5.375 C-1 3 -1 3 0 0 Z " fill="#A79EDF" transform="translate(442,640)"/>
<path d="M0 0 C-4.455 3.465 -4.455 3.465 -9 7 C-9.66 6.34 -10.32 5.68 -11 5 C-4.75324675 -1.58441558 -4.75324675 -1.58441558 0 0 Z " fill="#EAECF1" transform="translate(431,354)"/>
<path d="M0 0 C-1.50223584 4.20626034 -4.28550034 5.73900021 -8 8 C-8 7.01 -8 6.02 -8 5 C-2.65116279 0 -2.65116279 0 0 0 Z " fill="#F2F2F2" transform="translate(445,341)"/>
<path d="M0 0 C0.66 0 1.32 0 2 0 C0.68938409 4.23429756 -0.94356259 8.07407404 -3 12 C-4.21386936 8.35839192 -3.6674695 7.66834531 -2.0625 4.3125 C-1.49208984 3.10013672 -1.49208984 3.10013672 -0.91015625 1.86328125 C-0.60980469 1.24839844 -0.30945313 0.63351562 0 0 Z " fill="#5E70E4" transform="translate(495,324)"/>
<path d="M0 0 C0.99 0.33 1.98 0.66 3 1 C0.42215154 3.64752004 -1.91648098 5.94432065 -5 8 C-5.99 7.67 -6.98 7.34 -8 7 C-6.74057614 5.80040625 -5.46704714 4.61560557 -4.1875 3.4375 C-3.12595703 2.44556641 -3.12595703 2.44556641 -2.04296875 1.43359375 C-1.36878906 0.96050781 -0.69460937 0.48742187 0 0 Z " fill="#85397B" transform="translate(45,319)"/>
<path d="M0 0 C4.95 0 9.9 0 15 0 C15 0.33 15 0.66 15 1 C11.04 1 7.08 1 3 1 C3 1.99 3 2.98 3 4 C2.01 3.67 1.02 3.34 0 3 C0 2.01 0 1.02 0 0 Z " fill="#FEFBE5" transform="translate(408,310)"/>
<path d="M0 0 C0.33 0.66 0.66 1.32 1 2 C0.67 2.66 0.34 3.32 0 4 C-2.875 4.1875 -2.875 4.1875 -6 4 C-6.66 3.01 -7.32 2.02 -8 1 C-5.36 0.67 -2.72 0.34 0 0 Z " fill="#C7D2F9" transform="translate(457,287)"/>
<path d="M0 0 C1.25127906 3.54667178 0.72285053 5.72253438 -0.4375 9.25 C-0.72496094 10.14203125 -1.01242187 11.0340625 -1.30859375 11.953125 C-1.53675781 12.62859375 -1.76492188 13.3040625 -2 14 C-2.33 14 -2.66 14 -3 14 C-3.40652968 8.57960425 -2.03993514 4.92984325 0 0 Z " fill="#6555C8" transform="translate(398,435)"/>
<path d="M0 0 C1.875 0.25 1.875 0.25 4 1 C5.25 3.0625 5.25 3.0625 6 5 C4.68 5.33 3.36 5.66 2 6 C0 3 0 3 0 0 Z " fill="#F1F0E9" transform="translate(489,336)"/>
<path d="M0 0 C3.7952131 1.49097658 5.61042731 3.75700849 8 7 C5.03 6.505 5.03 6.505 2 6 C1.34 4.02 0.68 2.04 0 0 Z " fill="#E3E6ED" transform="translate(430,272)"/>
<path d="M0 0 C1.2077558 3.62326739 0.54311128 4.64146369 -1 8 C-1.66 8 -2.32 8 -3 8 C-3.625 5.625 -3.625 5.625 -4 3 C-2 1 -2 1 0 0 Z " fill="#FFFCED" transform="translate(466,259)"/>
<path d="M0 0 C0.33 0 0.66 0 1 0 C0.88557539 1.60495567 0.75805306 3.20898119 0.625 4.8125 C0.55539062 5.70582031 0.48578125 6.59914063 0.4140625 7.51953125 C0 10 0 10 -2 13 C-2.16682272 8.07872966 -2.24828052 4.49656104 0 0 Z " fill="#B7B0E5" transform="translate(455,587)"/>
<path d="M0 0 C0.99 0 1.98 0 3 0 C2.34 2.64 1.68 5.28 1 8 C0.34 7.67 -0.32 7.34 -1 7 C-1.04254356 5.00045254 -1.04080783 2.99958364 -1 1 C-0.67 0.67 -0.34 0.34 0 0 Z " fill="#C1CDF8" transform="translate(488,324)"/>
<path d="M0 0 C-1.33332095 3.99996286 -3.4957827 4.83782337 -7 7 C-7.66 6.67 -8.32 6.34 -9 6 C-7.8803014 4.99406757 -6.7540588 3.9954151 -5.625 3 C-4.68527344 2.1646875 -4.68527344 2.1646875 -3.7265625 1.3125 C-2 0 -2 0 0 0 Z " fill="#9F2340" transform="translate(56,312)"/>
<path d="M0 0 C1.9375 0.75 1.9375 0.75 4 2 C4.75 4.125 4.75 4.125 5 6 C5.99 6 6.98 6 8 6 C7.67 7.32 7.34 8.64 7 10 C4.3513141 6.80331012 2.06007659 3.60513403 0 0 Z " fill="#EDEEEA" transform="translate(426,285)"/>
<path d="M0 0 C0.33 0 0.66 0 1 0 C1 3.3 1 6.6 1 10 C0.01 10 -0.98 10 -2 10 C-1.46274105 6.62294375 -0.88935377 3.303314 0 0 Z " fill="#CCC6ED" transform="translate(343,659)"/>
<path d="M0 0 C1.60080151 4.00200378 0.29279692 7.04556236 -1 11 C-1.33 11 -1.66 11 -2 11 C-2.05399736 9.54207116 -2.09279177 8.08357288 -2.125 6.625 C-2.15980469 5.40683594 -2.15980469 5.40683594 -2.1953125 4.1640625 C-2 2 -2 2 0 0 Z " fill="#5D4CC5" transform="translate(386,483)"/>
<path d="M0 0 C2.4375 0.375 2.4375 0.375 5 1 C5.33 1.66 5.66 2.32 6 3 C4.35 3.33 2.7 3.66 1 4 C0.67 4.99 0.34 5.98 0 7 C0 4.69 0 2.38 0 0 Z " fill="#EFF2FA" transform="translate(467,338)"/>
<path d="M0 0 C0.99 0.33 1.98 0.66 3 1 C3.33 2.98 3.66 4.96 4 7 C3.01 7.33 2.02 7.66 1 8 C0.67 5.36 0.34 2.72 0 0 Z " fill="#BECAF8" transform="translate(433,321)"/>
<path d="M0 0 C2.6875 1.9375 2.6875 1.9375 5 4 C4.67 5.32 4.34 6.64 4 8 C3.34 7.67 2.68 7.34 2 7 C1.87625 6.360625 1.7525 5.72125 1.625 5.0625 C1.19060573 2.80148727 1.19060573 2.80148727 -1.0625 1.75 C-1.701875 1.5025 -2.34125 1.255 -3 1 C-2.01 0.67 -1.02 0.34 0 0 Z " fill="#E3E8FB" transform="translate(434,319)"/>
<path d="M0 0 C0.99 0 1.98 0 3 0 C4.75 1.75 4.75 1.75 6 4 C5.578125 6.140625 5.578125 6.140625 5 8 C4.16382818 6.8562364 3.33113541 5.70992861 2.5 4.5625 C2.0359375 3.92441406 1.571875 3.28632813 1.09375 2.62890625 C0 1 0 1 0 0 Z " fill="#EAEBE2" transform="translate(410,263)"/>
<path d="M0 0 C0.33 0 0.66 0 1 0 C1 2.97 1 5.94 1 9 C0.01 9.33 -0.98 9.66 -2 10 C-1.46274105 6.62294375 -0.88935377 3.303314 0 0 Z " fill="#3D29BA" transform="translate(489,459)"/>
<path d="M0 0 C2.62187494 1.04874998 3.79371361 1.64931313 5.25 4.125 C5.4975 4.74375 5.745 5.3625 6 6 C4.68 5.34 3.36 4.68 2 4 C1.67 4.66 1.34 5.32 1 6 C0.67 4.02 0.34 2.04 0 0 Z " fill="#FFF5CA" transform="translate(483,332)"/>
<path d="M0 0 C0.33 0 0.66 0 1 0 C1.36923077 7.50769231 1.36923077 7.50769231 -0.5 10 C-0.995 10.33 -1.49 10.66 -2 11 C-1.125 3.375 -1.125 3.375 0 0 Z " fill="#5240C1" transform="translate(454,597)"/>
<path d="M0 0 C0.99 0 1.98 0 3 0 C2.25 5.75 2.25 5.75 0 8 C0 5.36 0 2.72 0 0 Z " fill="#5746C3" transform="translate(379,504)"/>
<path d="M0 0 C1.98 0.66 3.96 1.32 6 2 C6 3.32 6 4.64 6 6 C2.26360784 4.75453595 1.81243487 3.36595047 0 0 Z " fill="#CED3E3" transform="translate(498,363)"/>
<path d="M0 0 C1.875 0.25 1.875 0.25 4 1 C5.25 3.0625 5.25 3.0625 6 5 C4.68 4.34 3.36 3.68 2 3 C1.67 3.99 1.34 4.98 1 6 C0.67 4.02 0.34 2.04 0 0 Z " fill="#FFF9DC" transform="translate(481,329)"/>
<path d="M0 0 C0.66 0.33 1.32 0.66 2 1 C2 2.98 2 4.96 2 7 C0.68 6.67 -0.64 6.34 -2 6 C-1.34 4.02 -0.68 2.04 0 0 Z " fill="#D4DDF9" transform="translate(437,301)"/>
<path d="M0 0 C0.99 0.33 1.98 0.66 3 1 C0.47043472 4.0916909 -2.22454612 4.90931332 -6 6 C-4 4 -2 2 0 0 Z " fill="#EFF0EF" transform="translate(507,282)"/>
<path d="M0 0 C0.99 0 1.98 0 3 0 C2.34 3.3 1.68 6.6 1 10 C0.67 10 0.34 10 0 10 C0 6.7 0 3.4 0 0 Z " fill="#D4CFEF" transform="translate(482,473)"/>
<path d="M0 0 C1.98 0 3.96 0 6 0 C6.66 1.32 7.32 2.64 8 4 C2.25 2.25 2.25 2.25 0 0 Z " fill="#C5CFF8" transform="translate(447,341)"/>
<path d="M0 0 C2 3 2 3 2 7 C1.01 7 0.02 7 -1 7 C-1.04254356 5.00045254 -1.04080783 2.99958364 -1 1 C-0.67 0.67 -0.34 0.34 0 0 Z " fill="#C4D0F9" transform="translate(489,304)"/>
<path d="M0 0 C0.66 0.66 1.32 1.32 2 2 C1.75 4.5625 1.75 4.5625 1 7 C0.01 7.495 0.01 7.495 -1 8 C-1.125 2.25 -1.125 2.25 0 0 Z " fill="#263BD7" transform="translate(429,290)"/>
<path d="M0 0 C2.64 1.65 5.28 3.3 8 5 C6 6 6 6 3.4375 5.3125 C2.633125 4.879375 1.82875 4.44625 1 4 C0.67 2.68 0.34 1.36 0 0 Z " fill="#2B3CD5" transform="translate(470,276)"/>
<path d="M0 0 C3.7952131 1.49097658 5.61042731 3.75700849 8 7 C4.21388773 6.45912682 2.44599233 4.88277668 0 2 C0 1.34 0 0.68 0 0 Z " fill="#E4E8EE" transform="translate(416,259)"/>
</svg>
