<?xml version="1.0" encoding="UTF-8"?>
<svg version="1.1" xmlns="http://www.w3.org/2000/svg" width="1298" height="1000">
<path d="M0 0 C0.98137939 -0.00067474 1.96275879 -0.00134949 2.97387695 -0.00204468 C17.38950972 0.01370384 31.52278584 0.30127553 45.6875 3.25 C46.54585449 3.42692383 47.40420898 3.60384766 48.28857422 3.78613281 C74.82267676 9.45836666 99.08881976 19.94871029 115.4375 42.68359375 C125.13319061 57.83311033 125.94430467 73.55364909 122.37890625 90.66796875 C121.56115168 94.29655944 121.56115168 94.29655944 121.6875 98.25 C121.0275 98.25 120.3675 98.25 119.6875 98.25 C119.56375 99.549375 119.44 100.84875 119.3125 102.1875 C117.79715302 115.1703376 117.79715302 115.1703376 114.375 118.5 C113.488125 119.0775 112.60125 119.655 111.6875 120.25 C109.99987149 121.8954378 108.3334651 123.56288577 106.6875 125.25 C105.02083333 126.91666667 103.35416667 128.58333333 101.6875 130.25 C100.93082031 131.01570312 100.17414063 131.78140625 99.39453125 132.5703125 C96.61382769 135.32292815 93.76489841 137.98848684 90.875 140.625 C90.35091553 141.10469238 89.82683105 141.58438477 89.28686523 142.07861328 C85.69542738 145.3565785 82.04951592 148.56541953 78.375 151.75 C76.04205328 153.82373042 73.86110706 156.01052606 71.6875 158.25 C71.3575 158.58 71.0275 158.91 70.6875 159.25 C82.5675 159.25 94.4475 159.25 106.6875 159.25 C107.79634354 163.68537415 107.79634354 163.68537415 106.4375 167.0625 C104.22777761 173.6127485 103.0432375 180.47131249 101.6875 187.25 C76.6075 187.25 51.5275 187.25 25.6875 187.25 C27.7194403 164.89865672 27.7194403 164.89865672 31.04296875 160.42578125 C32.5625 159.1875 32.5625 159.1875 35.6875 157.25 C37.37623879 155.60570171 39.04055515 153.93615782 40.6875 152.25 C45.22249108 147.61706095 49.83751168 143.19121803 54.75390625 138.96484375 C57.24493629 136.75562721 59.55490752 134.39422637 61.88671875 132.01953125 C64.48322621 129.46808249 67.22711559 127.10105695 69.98828125 124.73046875 C71.26479445 123.61828828 72.49033014 122.44716986 73.6875 121.25 C63.7875 120.92 53.8875 120.59 43.6875 120.25 C43.6875 118.93 43.6875 117.61 43.6875 116.25 C44.3475 116.25 45.0075 116.25 45.6875 116.25 C45.81125 115.156875 45.935 114.06375 46.0625 112.9375 C46.71520131 107.66859235 47.70014063 102.46479126 48.6875 97.25 C46.7075 98.24 46.7075 98.24 44.6875 99.25 C44.16800781 98.70730469 43.64851563 98.16460937 43.11328125 97.60546875 C37.93095698 92.25470957 37.93095698 92.25470957 31.6875 88.25 C31.3575 90.23 31.0275 92.21 30.6875 94.25 C32.9975 94.25 35.3075 94.25 37.6875 94.25 C37.05288238 100.20721701 35.93553768 105.8754458 34.5 111.6875 C34.04934584 113.54163427 33.5988312 115.39580245 33.1484375 117.25 C32.91092773 118.22195313 32.67341797 119.19390625 32.42871094 120.1953125 C31.66163669 123.35658817 30.91087854 126.52138055 30.1640625 129.6875 C27.84075352 139.5160334 25.48805686 149.29769928 22.625 158.984375 C19.94691582 168.3130349 17.79226198 177.77857109 15.6875 187.25 C5.4575 187.25 -4.7725 187.25 -15.3125 187.25 C-14.68675256 181.618273 -14.05899977 176.47216473 -12.875 171 C-12.62878906 169.83984375 -12.38257813 168.6796875 -12.12890625 167.484375 C-11.3125 164.25 -11.3125 164.25 -10.34204102 161.89282227 C-9.28489037 159.17912634 -8.6278318 156.57748402 -8.0234375 153.73046875 C-7.80429687 152.70888672 -7.58515625 151.68730469 -7.359375 150.63476562 C-7.13765625 149.57966797 -6.9159375 148.52457031 -6.6875 147.4375 C-6.45804687 146.36306641 -6.22859375 145.28863281 -5.9921875 144.18164062 C-5.42833354 141.53857517 -4.86857869 138.89471026 -4.3125 136.25 C-3.6525 136.25 -2.9925 136.25 -2.3125 136.25 C-2.18617188 134.9609375 -2.05984375 133.671875 -1.9296875 132.34375 C-1.37950787 127.40950747 -0.47446697 122.60237216 0.5625 117.75 C0.72363281 116.95980469 0.88476562 116.16960937 1.05078125 115.35546875 C2.06830887 110.53601623 3.37184415 105.92177758 5.00830078 101.27539062 C5.67620184 99.28369144 6.20523455 97.29375037 6.6875 95.25 C4.7075 96.24 4.7075 96.24 2.6875 97.25 C0.7075 94.94 -1.2725 92.63 -3.3125 90.25 C-1.9375 87.75 -1.9375 87.75 -0.3125 85.25 C0.3475 85.25 1.0075 85.25 1.6875 85.25 C2.0278125 84.4146875 2.0278125 84.4146875 2.375 83.5625 C4.04646766 80.61753316 6.24026352 78.56843456 8.6875 76.25 C8.00042969 76.06824219 7.31335938 75.88648438 6.60546875 75.69921875 C5.70441406 75.44785156 4.80335938 75.19648438 3.875 74.9375 C2.98167969 74.69386719 2.08835937 74.45023437 1.16796875 74.19921875 C-1.39714373 73.21760878 -2.65683178 72.41930787 -4.3125 70.25 C-4.4375 67.75 -4.4375 67.75 -3.3125 65.25 C0.7376112 62.99128414 4.04343314 61.8278121 8.6875 62.25 C8.0275 61.30125 7.3675 60.3525 6.6875 59.375 C4.6875 56.25 4.6875 56.25 4.6875 54.25 C4.0275 54.25 3.3675 54.25 2.6875 54.25 C1.3675 51.94 0.0475 49.63 -1.3125 47.25 C-0.41222412 46.21468274 0.50843035 45.19705835 1.4375 44.1875 C1.94796875 43.61902344 2.4584375 43.05054688 2.984375 42.46484375 C4.6875 41.25 4.6875 41.25 6.53125 41.25 C9.66408153 42.70290738 11.9670335 44.95550637 14.4375 47.3125 C14.94410156 47.78494141 15.45070313 48.25738281 15.97265625 48.74414062 C17.21699613 49.90630711 18.45308064 51.07730161 19.6875 52.25 C19.85765625 51.47914063 20.0278125 50.70828125 20.203125 49.9140625 C20.44546875 48.91117187 20.6878125 47.90828125 20.9375 46.875 C21.16953125 45.87726563 21.4015625 44.87953125 21.640625 43.8515625 C22.6875 41.25 22.6875 41.25 24.62890625 39.8203125 C26.6875 39.25 26.6875 39.25 29.375 40.5 C31.6875 42.25 31.6875 42.25 32.6875 44.25 C32.75700541 45.79023996 32.77202357 47.33334988 32.75 48.875 C32.74097656 49.69226563 32.73195313 50.50953125 32.72265625 51.3515625 C32.70525391 52.29128906 32.70525391 52.29128906 32.6875 53.25 C35.36210462 51.26044398 38.02706016 49.25845705 40.6875 47.25 C41.925 46.31607422 41.925 46.31607422 43.1875 45.36328125 C43.991875 44.74839844 44.79625 44.13351562 45.625 43.5 C46.37652344 42.92765625 47.12804687 42.3553125 47.90234375 41.765625 C49.79705054 40.35788908 49.79705054 40.35788908 50.6875 38.25 C-26.83897479 18.68627213 -110.94745722 27.56705586 -218.3125 62.25 C-219.51911556 85.80381667 -219.51911556 85.80381667 -215.3125 108.25 C-215.13593621 109.9852038 -215.01599832 111.72630388 -214.92358398 113.46801758 C-214.8336039 115.10792412 -214.8336039 115.10792412 -214.74180603 116.78096008 C-214.68134598 117.97343857 -214.62088593 119.16591705 -214.55859375 120.39453125 C-214.49342056 121.62926682 -214.42824738 122.86400238 -214.36109924 124.13615417 C-214.2235992 126.76654443 -214.08797965 129.39695643 -213.95532227 132.02758789 C-213.75560896 135.9804558 -213.54268448 139.93256984 -213.33007812 143.88476562 C-212.5728221 158.36381621 -212.16126309 172.75098346 -212.3125 187.25 C-223.8625 187.25 -235.4125 187.25 -247.3125 187.25 C-247.3125 179.99 -247.3125 172.73 -247.3125 165.25 C-258.5325 165.58 -269.7525 165.91 -281.3125 166.25 C-282.3025 169.22 -283.2925 172.19 -284.3125 175.25 C-284.9725 175.25 -285.6325 175.25 -286.3125 175.25 C-286.51746094 175.86488281 -286.72242188 176.47976563 -286.93359375 177.11328125 C-288.05989583 180.4921875 -289.18619792 183.87109375 -290.3125 187.25 C-301.8625 187.25 -313.4125 187.25 -325.3125 187.25 C-325.3125 181.25 -325.3125 181.25 -323.98828125 179.69140625 C-323.43527344 179.21574219 -322.88226563 178.74007812 -322.3125 178.25 C-321.32662133 176.5902995 -320.39370877 174.8985953 -319.5 173.1875 C-317.47941518 169.3825679 -315.38349615 165.66865171 -313.125 162 C-310.80017561 158.18020979 -308.94090992 154.41149202 -307.3125 150.25 C-306.6525 150.25 -305.9925 150.25 -305.3125 150.25 C-305.044375 149.38375 -304.77625 148.5175 -304.5 147.625 C-303.34138013 144.33208036 -301.93040161 141.33872125 -300.3125 138.25 C-299.6525 138.25 -298.9925 138.25 -298.3125 138.25 C-298.003125 137.074375 -298.003125 137.074375 -297.6875 135.875 C-296.16344088 131.85702595 -294.12985865 128.5199157 -291.87890625 124.875 C-290.43649613 122.45779401 -289.16560605 120.03114739 -287.9375 117.5 C-285.27581603 112.0478409 -282.25464376 106.81707836 -279.22265625 101.56640625 C-277.70537759 98.93211263 -276.21473618 96.28859616 -274.75 93.625 C-272.86902332 90.21533658 -270.91321312 86.85564578 -268.9375 83.5 C-264.47754053 75.88781535 -260.2424253 68.15002739 -256.3125 60.25 C-255.30276123 60.28778564 -254.29302246 60.32557129 -253.25268555 60.36450195 C-230.62894653 61.0805745 -214.6992742 59.41587232 -194.72949219 48.07714844 C-188.54951376 44.77256437 -182.06761902 42.2132258 -175.5625 39.625 C-174.89048553 39.355737 -174.21847107 39.086474 -173.52609253 38.80905151 C-128.38899583 20.75569976 -81.75163376 6.77021856 -33.3125 1.25 C-32.41829346 1.146875 -31.52408691 1.04375 -30.6027832 0.9375 C-20.4336728 -0.07175154 -10.20898392 0.00630422 0 0 Z M61.6875 44.25 C58.70021903 47.17934474 55.72412298 50.11980172 52.75 53.0625 C51.89986328 53.89587891 51.04972656 54.72925781 50.17382812 55.58789062 C49.36494141 56.39033203 48.55605469 57.19277344 47.72265625 58.01953125 C46.9737915 58.75792236 46.22492676 59.49631348 45.45336914 60.25708008 C43.47830796 62.22345931 43.47830796 62.22345931 42.6875 65.25 C43.38617187 65.38277344 44.08484375 65.51554687 44.8046875 65.65234375 C45.71476562 65.82894531 46.62484375 66.00554687 47.5625 66.1875 C48.91988281 66.44853516 48.91988281 66.44853516 50.3046875 66.71484375 C52.6875 67.25 52.6875 67.25 54.6875 68.25 C55.4375 70.125 55.4375 70.125 55.6875 72.25 C53.6875 75.25 53.6875 75.25 51.0859375 75.98046875 C49.58933594 76.20669922 49.58933594 76.20669922 48.0625 76.4375 C47.05960938 76.59605469 46.05671875 76.75460937 45.0234375 76.91796875 C44.25257813 77.02753906 43.48171875 77.13710938 42.6875 77.25 C44.22362181 80.34872847 45.76597184 83.36770776 47.6875 86.25 C48.3475 86.25 49.0075 86.25 49.6875 86.25 C51.6875 93.125 51.6875 93.125 51.6875 94.25 C68.5175 94.25 85.3475 94.25 102.6875 94.25 C98.9436762 83.0185286 94.26664049 74.27355913 86.6875 65.25 C86.11644531 64.53328125 85.54539062 63.8165625 84.95703125 63.078125 C79.15157209 56.09671995 70.45845318 47.17365106 61.6875 44.25 Z M12.0625 89.6875 C10.83660156 90.64462891 10.83660156 90.64462891 9.5859375 91.62109375 C8.95945312 92.15863281 8.33296875 92.69617188 7.6875 93.25 C7.6875 93.58 7.6875 93.91 7.6875 94.25 C11.3175 94.25 14.9475 94.25 18.6875 94.25 C19.78408936 90.96023192 19.48703138 89.53696233 18.6875 86.25 C15.70386815 86.25 14.37300446 87.86476871 12.0625 89.6875 Z M-248.3125 99.25 C-248.72628906 100.24128906 -249.14007813 101.23257813 -249.56640625 102.25390625 C-251.30649455 106.31275151 -253.25587484 110.24862803 -255.25 114.1875 C-255.58451172 114.85201172 -255.91902344 115.51652344 -256.26367188 116.20117188 C-256.59818359 116.86568359 -256.93269531 117.53019531 -257.27734375 118.21484375 C-257.60847168 118.87468262 -257.93959961 119.53452148 -258.28076172 120.21435547 C-258.99575233 121.6250492 -259.72215109 123.02999664 -260.45751953 124.43017578 C-260.82345215 125.13513184 -261.18938477 125.84008789 -261.56640625 126.56640625 C-261.90099854 127.2013501 -262.23559082 127.83629395 -262.58032227 128.49047852 C-263.50459391 130.39399736 -263.50459391 130.39399736 -263.3125 133.25 C-263.9725 133.25 -264.6325 133.25 -265.3125 133.25 C-265.6425 134.24 -265.9725 135.23 -266.3125 136.25 C-260.0425 136.58 -253.7725 136.91 -247.3125 137.25 C-247.3125 124.71 -247.3125 112.17 -247.3125 99.25 C-247.6425 99.25 -247.9725 99.25 -248.3125 99.25 Z " fill="#020000" transform="translate(487.3125,385.75)"/>
<path d="M0 0 C0.98137939 -0.00067474 1.96275879 -0.00134949 2.97387695 -0.00204468 C17.38950972 0.01370384 31.52278584 0.30127553 45.6875 3.25 C46.54585449 3.42692383 47.40420898 3.60384766 48.28857422 3.78613281 C74.82267676 9.45836666 99.08881976 19.94871029 115.4375 42.68359375 C124.9104406 57.48506344 126.11222005 73.24453833 122.4765625 90.08203125 C121.6875 93.25 121.6875 93.25 120.6875 95.25 C119.6975 95.25 118.7075 95.25 117.6875 95.25 C117.4922876 94.72269287 117.2970752 94.19538574 117.09594727 93.65209961 C106.00693309 64.02459435 89.86323261 41.62818377 60.58984375 27.78515625 C57.65028375 26.51095962 54.69409293 25.35601095 51.6875 24.25 C50.78902344 23.90324219 49.89054687 23.55648438 48.96484375 23.19921875 C29.83082221 16.52935122 8.00563163 15.03001474 -12.125 15.0625 C-12.82091248 15.06310425 -13.51682495 15.0637085 -14.23382568 15.06433105 C-58.6081843 15.1677002 -102.69063044 21.98833202 -145.3125 34.25 C-146.92342529 34.70898682 -146.92342529 34.70898682 -148.56689453 35.17724609 C-163.36617522 39.4431561 -177.79035896 44.38730786 -192.125 50 C-192.83082214 50.27417755 -193.53664429 50.5483551 -194.26385498 50.83084106 C-201.71386886 53.73877784 -208.63922687 56.77431863 -215.3125 61.25 C-216.7975 61.745 -216.7975 61.745 -218.3125 62.25 C-219.51911556 85.80381667 -219.51911556 85.80381667 -215.3125 108.25 C-215.13593621 109.9852038 -215.01599832 111.72630388 -214.92358398 113.46801758 C-214.8336039 115.10792412 -214.8336039 115.10792412 -214.74180603 116.78096008 C-214.68134598 117.97343857 -214.62088593 119.16591705 -214.55859375 120.39453125 C-214.49342056 121.62926682 -214.42824738 122.86400238 -214.36109924 124.13615417 C-214.2235992 126.76654443 -214.08797965 129.39695643 -213.95532227 132.02758789 C-213.75560896 135.9804558 -213.54268448 139.93256984 -213.33007812 143.88476562 C-212.5728221 158.36381621 -212.16126309 172.75098346 -212.3125 187.25 C-223.8625 187.25 -235.4125 187.25 -247.3125 187.25 C-247.3125 179.99 -247.3125 172.73 -247.3125 165.25 C-258.5325 165.58 -269.7525 165.91 -281.3125 166.25 C-282.3025 169.22 -283.2925 172.19 -284.3125 175.25 C-284.9725 175.25 -285.6325 175.25 -286.3125 175.25 C-286.51746094 175.86488281 -286.72242188 176.47976563 -286.93359375 177.11328125 C-288.05989583 180.4921875 -289.18619792 183.87109375 -290.3125 187.25 C-301.8625 187.25 -313.4125 187.25 -325.3125 187.25 C-325.3125 181.25 -325.3125 181.25 -323.98828125 179.69140625 C-323.43527344 179.21574219 -322.88226563 178.74007812 -322.3125 178.25 C-321.32662133 176.5902995 -320.39370877 174.8985953 -319.5 173.1875 C-317.47941518 169.3825679 -315.38349615 165.66865171 -313.125 162 C-310.80017561 158.18020979 -308.94090992 154.41149202 -307.3125 150.25 C-306.6525 150.25 -305.9925 150.25 -305.3125 150.25 C-305.044375 149.38375 -304.77625 148.5175 -304.5 147.625 C-303.34138013 144.33208036 -301.93040161 141.33872125 -300.3125 138.25 C-299.6525 138.25 -298.9925 138.25 -298.3125 138.25 C-298.003125 137.074375 -298.003125 137.074375 -297.6875 135.875 C-296.16344088 131.85702595 -294.12985865 128.5199157 -291.87890625 124.875 C-290.43649613 122.45779401 -289.16560605 120.03114739 -287.9375 117.5 C-285.27581603 112.0478409 -282.25464376 106.81707836 -279.22265625 101.56640625 C-277.70537759 98.93211263 -276.21473618 96.28859616 -274.75 93.625 C-272.86902332 90.21533658 -270.91321312 86.85564578 -268.9375 83.5 C-264.47754053 75.88781535 -260.2424253 68.15002739 -256.3125 60.25 C-255.30276123 60.28778564 -254.29302246 60.32557129 -253.25268555 60.36450195 C-230.62894653 61.0805745 -214.6992742 59.41587232 -194.72949219 48.07714844 C-188.54951376 44.77256437 -182.06761902 42.2132258 -175.5625 39.625 C-174.89048553 39.355737 -174.21847107 39.086474 -173.52609253 38.80905151 C-128.38899583 20.75569976 -81.75163376 6.77021856 -33.3125 1.25 C-32.41829346 1.146875 -31.52408691 1.04375 -30.6027832 0.9375 C-20.4336728 -0.07175154 -10.20898392 0.00630422 0 0 Z M-248.3125 99.25 C-248.72628906 100.24128906 -249.14007813 101.23257813 -249.56640625 102.25390625 C-251.30649455 106.31275151 -253.25587484 110.24862803 -255.25 114.1875 C-255.58451172 114.85201172 -255.91902344 115.51652344 -256.26367188 116.20117188 C-256.59818359 116.86568359 -256.93269531 117.53019531 -257.27734375 118.21484375 C-257.60847168 118.87468262 -257.93959961 119.53452148 -258.28076172 120.21435547 C-258.99575233 121.6250492 -259.72215109 123.02999664 -260.45751953 124.43017578 C-260.82345215 125.13513184 -261.18938477 125.84008789 -261.56640625 126.56640625 C-261.90099854 127.2013501 -262.23559082 127.83629395 -262.58032227 128.49047852 C-263.50459391 130.39399736 -263.50459391 130.39399736 -263.3125 133.25 C-263.9725 133.25 -264.6325 133.25 -265.3125 133.25 C-265.6425 134.24 -265.9725 135.23 -266.3125 136.25 C-260.0425 136.58 -253.7725 136.91 -247.3125 137.25 C-247.3125 124.71 -247.3125 112.17 -247.3125 99.25 C-247.6425 99.25 -247.9725 99.25 -248.3125 99.25 Z " fill="#000000" transform="translate(487.3125,385.75)"/>
<path d="M0 0 C12.52627054 -0.09274474 25.05245917 -0.163788 37.57900333 -0.20724869 C43.39580998 -0.22810933 49.21238144 -0.25639967 55.02905273 -0.30175781 C60.64412684 -0.34526912 66.25897493 -0.36914857 71.87420464 -0.37950897 C74.01480097 -0.38689079 76.15538515 -0.40130579 78.29588509 -0.42292023 C81.29786889 -0.45202391 84.29892285 -0.45595302 87.30102539 -0.45410156 C88.1828801 -0.46848267 89.0647348 -0.48286377 89.97331238 -0.49768066 C95.81721827 -0.45876833 99.20928619 0.59997892 104 4 C110.04428442 11.63488559 109.68146561 19.53901596 108.69140625 28.92578125 C107.54075489 36.45083749 105.54659063 43.73615808 103.52783203 51.06445312 C100.50764003 62.13942176 98.01127654 73.31297204 95.66235352 84.546875 C95.46053467 85.49949219 95.25871582 86.45210937 95.05078125 87.43359375 C94.87200439 88.29009521 94.69322754 89.14659668 94.5090332 90.02905273 C94 92 94 92 93 93 C91.00035018 93.08758003 88.9976389 93.10696576 86.99609375 93.09765625 C85.17368164 93.09282227 85.17368164 93.09282227 83.31445312 93.08789062 C82.03505859 93.07951172 80.75566406 93.07113281 79.4375 93.0625 C78.15423828 93.05798828 76.87097656 93.05347656 75.54882812 93.04882812 C72.36583978 93.03699545 69.18294238 93.02051068 66 93 C66.48760354 86.89015633 67.29025874 81.1712813 68.875 75.25 C69.2364498 73.87293875 69.59578351 72.49532055 69.953125 71.1171875 C70.13037109 70.43366211 70.30761719 69.75013672 70.49023438 69.04589844 C71.55923241 64.75557106 72.41413819 60.41938614 73.2890625 56.0859375 C74 53 74 53 75.0078125 50.015625 C76.06332469 46.80753283 76.70384933 43.70651911 77.25 40.375 C77.44078125 39.26898437 77.6315625 38.16296875 77.828125 37.0234375 C78.00569094 33.89989122 77.6849056 32.57765409 76 30 C70.95237835 30.280306 70.95237835 30.280306 66.8125 32.9375 C62.33541457 40.50223055 60.20423136 48.56901856 58.5 57.125 C58.078781 59.15014784 57.655593 61.17488711 57.23046875 63.19921875 C56.92181885 64.67527588 56.92181885 64.67527588 56.60693359 66.18115234 C55.24695476 72.49744988 53.61147569 78.74409657 52 85 C51.34 87.64 50.68 90.28 50 93 C40.76 93 31.52 93 22 93 C23.54651127 85.26744365 25.1649133 77.57093374 26.875 69.875 C27.13748535 68.68664551 27.3999707 67.49829102 27.67041016 66.27392578 C29.11797349 59.77095779 30.6651586 53.3133113 32.375 46.875 C33.78661419 41.37497623 34.49672558 36.6626716 34 31 C33.67 30.67 33.34 30.34 33 30 C29.35238844 30.20646858 26.81884574 30.35498743 23.90234375 32.65234375 C21.6132314 35.47730581 20.84453674 37.8797793 19.875 41.375 C19.56304688 42.47585938 19.25109375 43.57671875 18.9296875 44.7109375 C18.62289062 45.79632812 18.31609375 46.88171875 18 48 C17.6803125 48.91394531 17.360625 49.82789063 17.03125 50.76953125 C15.60931026 55.2238652 14.63338216 59.74932405 13.625 64.3125 C13.18674562 66.26965397 12.74793637 68.22668378 12.30859375 70.18359375 C12.09058105 71.1566748 11.87256836 72.12975586 11.64794922 73.13232422 C10.14893052 79.76663984 8.56751493 86.38160364 7 93 C-2.24 93 -11.48 93 -21 93 C-20.11067941 86.77475584 -18.97606145 80.70939746 -17.6875 74.5625 C-17.46312256 73.48991943 -17.23874512 72.41733887 -17.00756836 71.31225586 C-15.51676904 64.26286695 -13.88897833 57.27510127 -12.09375 50.296875 C-10.68559115 44.81776066 -9.37883889 39.31425069 -8.0625 33.8125 C-7.71940796 32.38079468 -7.71940796 32.38079468 -7.36938477 30.92016602 C-5.70583274 23.9698972 -4.05131779 17.01747617 -2.39624023 10.06518555 C-2.16525383 9.09497215 -1.93426743 8.12475876 -1.69628143 7.12514496 C-1.13083817 4.75010048 -0.56541143 2.37505206 0 0 Z " fill="#FF0000" transform="translate(828,480)"/>
<path d="M0 0 C1.12562347 -0.01283524 2.25124695 -0.02567047 3.41098022 -0.03889465 C5.2544957 -0.04997505 5.2544957 -0.04997505 7.13525391 -0.0612793 C9.02505478 -0.07338692 9.02505478 -0.07338692 10.95303345 -0.08573914 C13.63148697 -0.09960808 16.3098163 -0.11061349 18.98828125 -0.11816406 C22.39195558 -0.12914236 25.79496039 -0.16342747 29.1984005 -0.20333576 C32.46895089 -0.23607443 35.73956468 -0.24030749 39.01025391 -0.2487793 C40.21902191 -0.26628738 41.42778992 -0.28379547 42.67318726 -0.30183411 C52.43623601 -0.27715055 60.54126316 1.74615096 68.73681641 7.17700195 C74.13721347 14.07750932 74.19618684 20.70809583 73.73681641 29.17700195 C73.29690298 32.2452589 72.53278331 35.183282 71.73681641 38.17700195 C71.24563031 40.13570718 70.75463169 42.09446112 70.26660156 44.05395508 C69.91425235 45.4659499 69.55976959 46.87741407 69.203125 48.28833008 C68.27433749 51.96866147 67.39563563 55.65069182 66.61181641 59.36450195 C65.88338634 62.53837582 64.93665649 65.17740174 63.73681641 68.17700195 C61.97236092 74.30070041 61.48817292 80.1762072 61.17822266 86.5090332 C61.13475708 87.34358032 61.0912915 88.17812744 61.04650879 89.03796387 C60.94035548 91.08416037 60.83818594 93.13056288 60.73681641 95.17700195 C51.66177916 95.22331254 42.58678251 95.25886462 33.51165295 95.2806263 C29.29784666 95.29107003 25.08412113 95.30523994 20.87036133 95.32788086 C16.80496233 95.34958828 12.73964109 95.36156614 8.67418861 95.36675644 C7.12202035 95.37045598 5.5698564 95.37768014 4.01772118 95.38846207 C1.84611134 95.40294922 -0.3251759 95.40498108 -2.49682617 95.40405273 C-3.73370682 95.40849396 -4.97058746 95.41293518 -6.24494934 95.41751099 C-11.12622107 95.02854517 -14.85767003 91.54530407 -18.44677734 88.3527832 C-22.33558164 83.69458107 -22.40774563 78.2255601 -22.13037109 72.3762207 C-20.85939094 62.81682742 -16.15348354 54.77491936 -8.61865234 48.7668457 C2.63036208 41.17422734 17.16194855 37.17700195 30.73681641 37.17700195 C30.73681641 36.51700195 30.73681641 35.85700195 30.73681641 35.17700195 C34.36681641 34.18700195 37.99681641 33.19700195 41.73681641 32.17700195 C42.85808422 28.37911497 42.85808422 28.37911497 42.73681641 25.17700195 C35.80225631 21.17831783 28.74311716 21.80441419 20.92431641 21.92700195 C19.57601464 21.93348495 18.22770618 21.93870412 16.87939453 21.94262695 C10.62313806 21.65286138 10.62313806 21.65286138 4.73681641 23.17700195 C2.53245241 23.40650515 0.32289468 23.58776129 -1.88818359 23.73950195 C-3.07669922 23.82329102 -4.26521484 23.90708008 -5.48974609 23.9934082 C-6.40498047 24.05399414 -7.32021484 24.11458008 -8.26318359 24.17700195 C-8.12093773 21.65592092 -7.97448239 19.13519792 -7.82568359 16.61450195 C-7.78636719 15.9100293 -7.74705078 15.20555664 -7.70654297 14.47973633 C-6.84314946 0.06770629 -6.84314946 0.06770629 0 0 Z M24.23681641 55.92700195 C23.47755859 56.1796582 22.71830078 56.43231445 21.93603516 56.69262695 C17.71135298 58.17237553 14.46486879 59.44166869 11.73681641 63.17700195 C10.97908295 65.44399497 10.97908295 65.44399497 10.86181641 67.80200195 C10.78189453 68.57801758 10.70197266 69.3540332 10.61962891 70.15356445 C10.52520817 72.40875389 10.52520817 72.40875389 12.73681641 74.17700195 C19.61337184 74.85117405 24.10155331 72.72715672 29.92431641 69.30200195 C34.47023346 65.38983205 35.34881115 58.7535172 36.73681641 53.17700195 C32.03245905 53.17700195 28.62272504 54.37815816 24.23681641 55.92700195 Z " fill="#000000" transform="translate(399.26318359375,477.822998046875)"/>
<path d="M0 0 C7.53713598 -0.0698181 15.074238 -0.12297162 22.61162472 -0.15543652 C26.11237531 -0.17102599 29.61290302 -0.19213941 33.11352539 -0.22631836 C37.14731871 -0.26545205 41.18088156 -0.27976462 45.21484375 -0.29296875 C46.45894516 -0.30845261 47.70304657 -0.32393646 48.98484802 -0.33988953 C58.94286317 -0.34180086 67.46565684 1.05939584 75 8 C80.24133831 15.16316236 79.87558509 23.93221987 78.65136719 32.41601562 C78.20201797 35.03638911 77.7088485 37.64301557 77.1875 40.25 C77.0222583 41.07693359 76.8570166 41.90386719 76.68676758 42.75585938 C75.83775285 46.76081165 74.83843253 50.61951155 73.49609375 54.48828125 C71.85353257 59.22929831 70.83921744 64.01999105 69.875 68.9375 C69.54152722 70.61377346 69.20570503 72.28958178 68.8671875 73.96484375 C68.72394043 74.6930835 68.58069336 75.42132324 68.43310547 76.17163086 C68 78 68 78 67 80 C66.9283265 82.55157655 66.90691558 85.07472971 66.9375 87.625 C66.94201172 88.33140625 66.94652344 89.0378125 66.95117188 89.765625 C66.96296125 91.51045275 66.98089676 93.255237 67 95 C57.77730794 95.04627979 48.55465566 95.08184694 39.33187294 95.10362434 C35.04965752 95.11407483 30.76752136 95.12825697 26.48535156 95.15087891 C22.35511874 95.17256238 18.22496231 95.18455909 14.09467697 95.18975449 C12.51656262 95.19345835 10.93845259 95.2006908 9.36037064 95.21146011 C7.15503049 95.22591549 4.95000858 95.22798048 2.74462891 95.22705078 C1.48776276 95.231492 0.23089661 95.23593323 -1.0640564 95.24050903 C-4 95 -4 95 -6 93 C-6.99 92.67 -7.98 92.34 -9 92 C-9 91.34 -9 90.68 -9 90 C-9.99 89.67 -10.98 89.34 -12 89 C-13.1328125 87.36328125 -13.1328125 87.36328125 -14.125 85.3125 C-14.62386719 84.31669922 -14.62386719 84.31669922 -15.1328125 83.30078125 C-17.25745905 77.66376857 -16.98594902 73.73617937 -15.25 68 C-14.90453125 66.824375 -14.5590625 65.64875 -14.203125 64.4375 C-10.99788918 55.27968338 -10.99788918 55.27968338 -7 52.3125 C-4.16390166 50.24826602 -4.16390166 50.24826602 -2.58349609 48.51123047 C4.09471542 42.13779086 13.92417451 40.59403727 22.625 38.875 C30.01625815 37.3756768 37.00609603 35.84483973 44 33 C45.65672637 32.62033354 47.32070245 32.26239024 49 32 C49 30.02 49 28.04 49 26 C41.65906842 21.31252857 35.17045493 21.49070088 26.625 21.6875 C25.34238281 21.69716797 24.05976562 21.70683594 22.73828125 21.71679688 C16.68709057 21.48229765 16.68709057 21.48229765 11 23 C8.62876754 23.23029956 6.25258057 23.41119942 3.875 23.5625 C2.59367188 23.64628906 1.31234375 23.73007812 -0.0078125 23.81640625 C-0.99523437 23.87699219 -1.98265625 23.93757813 -3 24 C-3.15490223 18.26861756 -2.65244885 13.10650794 -1.5 7.5 C-1.35691406 6.77296875 -1.21382812 6.0459375 -1.06640625 5.296875 C-0.71766302 3.52990929 -0.35980277 1.76474691 0 0 Z M30.625 55.6875 C29.49191406 56.05391602 29.49191406 56.05391602 28.3359375 56.42773438 C22.90993129 58.30122428 18.68611258 60.62777484 16 66 C15.66666667 69 15.66666667 69 16 72 C19.75828462 74.50552308 21.53651494 74.37195709 26 74 C28.46446682 73.17213056 30.65572814 72.14821479 33 71 C33 70.34 33 69.68 33 69 C33.60328125 68.75894531 34.2065625 68.51789063 34.828125 68.26953125 C37.45683432 66.73296555 38.30298202 65.3448324 39.75 62.6875 C40.17796875 61.92824219 40.6059375 61.16898438 41.046875 60.38671875 C42.09933613 57.75125256 42.17914601 55.81159711 42 53 C37.87132258 53 34.50036377 54.34879748 30.625 55.6875 Z " fill="#000000" transform="translate(617,478)"/>
<path d="M0 0 C1.1985965 -0.00960754 2.39719299 -0.01921509 3.6321106 -0.02911377 C4.93929047 -0.03336365 6.24647034 -0.03761353 7.59326172 -0.04199219 C8.94269819 -0.04774401 10.29213463 -0.05350174 11.64157104 -0.05926514 C14.47801088 -0.06978897 17.31442228 -0.07562136 20.15087891 -0.07910156 C23.77228709 -0.08456417 27.39331506 -0.10853766 31.01460457 -0.13707352 C33.80629537 -0.15577819 36.59789647 -0.16090981 39.38964462 -0.16243744 C41.36984366 -0.16691104 43.34999454 -0.18552842 45.33010864 -0.20440674 C53.01981797 -0.185452 58.63682781 0.00992298 64.71044922 5.09863281 C69.94293067 11.49388793 68.97929281 19.3077094 68.39794922 27.16113281 C67.58205715 33.77892405 66.09860872 40.21247987 63.91748047 46.50878906 C62.32962796 51.16185297 61.32614146 55.83925276 60.39794922 60.66113281 C59.49692164 65.34189472 58.55692603 69.8814768 56.96044922 74.37988281 C54.95921087 80.50367216 53.74783947 86.86164496 52.39794922 93.16113281 C42.16794922 93.16113281 31.93794922 93.16113281 21.39794922 93.16113281 C21.39794922 84.2534405 21.39794922 84.2534405 23.14794922 79.28613281 C25.1264768 73.25998367 26.56797478 67.24223798 27.88818359 61.04882812 C28.70104356 57.2560171 29.55109144 53.48694928 30.53857422 49.73535156 C30.81701172 48.67441284 30.81701172 48.67441284 31.10107422 47.59204102 C31.61433022 45.66251925 32.13857083 43.7359289 32.66357422 41.80957031 C33.48343119 37.73645111 33.59564087 34.30367147 33.39794922 30.16113281 C32.24880953 28.79506266 32.24880953 28.79506266 29.14794922 28.91113281 C25.08382977 29.18207411 23.63073754 29.7969315 20.39794922 32.16113281 C15.12451197 39.3081913 13.33719195 47.6575987 11.77856445 56.22167969 C10.91783603 60.94849259 9.71920175 65.32610688 8.13598633 69.86010742 C6.85100262 73.86638313 6.08158504 77.97459014 5.27294922 82.09863281 C4.93947644 83.77490627 4.60365425 85.45071459 4.26513672 87.12597656 C4.12188965 87.85421631 3.97864258 88.58245605 3.83105469 89.33276367 C3.39794922 91.16113281 3.39794922 91.16113281 2.39794922 93.16113281 C-7.83205078 93.16113281 -18.06205078 93.16113281 -28.60205078 93.16113281 C-27.47705078 83.03613281 -27.47705078 83.03613281 -26.60205078 78.16113281 C-25.94205078 78.16113281 -25.28205078 78.16113281 -24.60205078 78.16113281 C-24.47572266 77.04609375 -24.34939453 75.93105469 -24.21923828 74.78222656 C-23.60492653 69.88389869 -22.69276663 65.06326987 -21.72705078 60.22363281 C-21.56591797 59.38123047 -21.40478516 58.53882813 -21.23876953 57.67089844 C-20.26156744 52.75079956 -18.96995716 48.10779112 -17.3203125 43.3737793 C-16.12737304 39.69886076 -15.38027794 35.94150051 -14.60205078 32.16113281 C-13.45263915 26.77398588 -12.21736705 21.5731462 -10.32470703 16.39160156 C-8.98954778 12.27065058 -8.16139291 8.01743172 -7.25048828 3.78613281 C-6.11977903 -0.79119619 -4.42341165 0.02848474 0 0 Z " fill="#000000" transform="translate(309.60205078125,479.8388671875)"/>
<path d="M0 0 C7.81519331 -0.06974839 15.63031263 -0.12293663 23.44573975 -0.15543652 C27.07542985 -0.17104099 30.70490578 -0.19218257 34.33447266 -0.22631836 C37.84229617 -0.25909979 41.34991468 -0.27689219 44.85787964 -0.28463173 C46.8363929 -0.29280918 48.81482458 -0.31619824 50.79321289 -0.33988953 C65.43660804 -0.3426078 65.43660804 -0.3426078 70.61997986 4.51960754 C74.7157313 9.19131176 74.66408489 14.0465931 74.4375 20 C74.42879883 21.29550781 74.42879883 21.29550781 74.41992188 22.6171875 C74.32211745 27.76561261 73.55295416 32.06307479 72 37 C71.5179144 39.00304395 71.05218434 41.01005475 70.59765625 43.01953125 C70.34693359 44.12490234 70.09621094 45.23027344 69.83789062 46.36914062 C69.32366351 48.65272349 68.8106298 50.93657544 68.29882812 53.22070312 C66.96825603 59.07726216 65.50871083 64.8322455 63.72973633 70.56811523 C62.43575317 74.88038228 61.38454065 79.25332094 60.3125 83.625 C59.1678125 88.265625 59.1678125 88.265625 58 93 C47.77 93 37.54 93 27 93 C28.55445776 77.45542241 28.55445776 77.45542241 30.96118164 71.70239258 C31.993104 69.01793932 32.63988442 66.4704581 33.21875 63.65625 C33.42886719 62.65722656 33.63898437 61.65820312 33.85546875 60.62890625 C34.06816406 59.59636719 34.28085937 58.56382812 34.5 57.5 C34.92289254 55.44704893 35.34984089 53.39492829 35.78125 51.34375 C35.96751953 50.43818359 36.15378906 49.53261719 36.34570312 48.59960938 C37.01409172 45.94401171 37.9793461 43.53694152 39 41 C39.27876518 38.9040014 39.48588744 36.79737389 39.625 34.6875 C39.69976563 33.61886719 39.77453125 32.55023437 39.8515625 31.44921875 C39.90054688 30.64097656 39.94953125 29.83273437 40 29 C32.43702121 28.46415076 32.43702121 28.46415076 26 32 C22.73116964 37.04315657 21.12612359 41.52063437 19.9375 47.375 C19.60603784 48.8952266 19.27143696 50.41477248 18.93359375 51.93359375 C18.77487793 52.64757324 18.61616211 53.36155273 18.45263672 54.09716797 C17.93611813 56.26855194 17.27025261 58.3432456 16.5 60.4375 C14.66170279 65.5527618 13.63915076 70.86777124 12.53320312 76.17944336 C11.31252467 81.94411001 9.71033977 87.29886743 8 93 C-1.9 93 -11.8 93 -22 93 C-22 87.50873446 -21.56316319 83.19891873 -20.25 78 C-20.07025635 77.26305908 -19.8905127 76.52611816 -19.70532227 75.7668457 C-18.19772206 69.64127638 -16.57491462 63.54692235 -14.9296875 57.45703125 C-13.13293886 50.77584409 -11.47453888 44.06434865 -9.9140625 37.32421875 C-9.71224365 36.45941895 -9.5104248 35.59461914 -9.30249023 34.70361328 C-8.91457529 33.03768878 -8.53071413 31.37081027 -8.15258789 29.70263672 C-5.82002182 19.7008612 -2.85965046 9.86086068 0 0 Z " fill="#000000" transform="translate(715,480)"/>
<path d="M0 0 C7.68483135 -0.0465038 15.36964796 -0.08196042 23.05458832 -0.10362434 C26.62368265 -0.11402613 30.19268014 -0.12811875 33.76171875 -0.15087891 C37.21117596 -0.17273682 40.66054048 -0.18459569 44.11006165 -0.18975449 C46.05529846 -0.19520476 48.0004984 -0.21079671 49.94567871 -0.22659302 C59.18162767 -0.22775506 66.43872366 0.15719556 74 6 C74.7425 6.556875 75.485 7.11375 76.25 7.6875 C81.45487738 14.56537368 80.15654305 23.75021633 79.29611206 31.86801147 C78.3806613 38.45920031 76.42682421 44.85835543 74.625 51.25 C74.22003588 52.72620149 73.81638558 54.20276404 73.4140625 55.6796875 C70.3976265 66.70655676 70.3976265 66.70655676 69.07714844 71.00195312 C67.52808985 76.14791447 66.75937911 80.95753507 66.42041016 86.33300781 C66.33908844 87.58430481 66.25776672 88.83560181 66.17398071 90.12481689 C66.08786026 91.54803253 66.08786026 91.54803253 66 93 C56.48996621 93.16256963 46.9804145 93.2867592 37.46929169 93.3626852 C33.05226885 93.39913628 28.63620025 93.44853419 24.21972656 93.52807617 C19.95321858 93.6044317 15.68762522 93.64605135 11.42048645 93.6641407 C9.79695749 93.67702242 8.17347565 93.70217878 6.55033875 93.7401104 C-7.74925512 94.06083097 -7.74925512 94.06083097 -12.96289062 89.69165039 C-17.14778559 85.29608679 -18.0185936 81.22134184 -17.984375 75.29296875 C-17.32935174 64.41065052 -12.68215731 56.30732966 -4.9375 48.8125 C3.96171049 41.73140779 15.75705217 40.04100569 26.59057617 37.81542969 C32.92225222 36.50402135 38.91687602 34.94165017 44.98828125 32.69921875 C47 32 47 32 49 32 C50.01540112 27.89776415 50.01540112 27.89776415 49 24 C42.19457777 20.48393326 34.97493156 20.56890258 27.5 20.6875 C26.36320801 20.69587891 25.22641602 20.70425781 24.05517578 20.71289062 C14.9359486 20.84182074 6.00619342 21.59513417 -3 23 C-3.24647499 15.60575038 -3.3755817 6.75116339 0 0 Z M30.625 54.6875 C29.8825 54.93177734 29.14 55.17605469 28.375 55.42773438 C23.03109244 57.2924371 17.66318296 59.67363409 15 65 C14.95977609 67.3329866 14.95679753 69.66706666 15 72 C19.54169647 74.61275123 23.02148352 74.3302596 28 73 C34.71524512 70.05051633 38.12199849 66.06519083 41.125 59.46484375 C42.00453368 56.98722878 42.55703806 54.58855885 43 52 C38.33669574 52 34.97407881 53.1593443 30.625 54.6875 Z " fill="#FF0000" transform="translate(949,480)"/>
<path d="M0 0 C0.98137939 -0.00067474 1.96275879 -0.00134949 2.97387695 -0.00204468 C17.38950972 0.01370384 31.52278584 0.30127553 45.6875 3.25 C46.54585449 3.42692383 47.40420898 3.60384766 48.28857422 3.78613281 C74.82267676 9.45836666 99.08881976 19.94871029 115.4375 42.68359375 C124.9104406 57.48506344 126.11222005 73.24453833 122.4765625 90.08203125 C121.6875 93.25 121.6875 93.25 120.6875 95.25 C119.6975 95.25 118.7075 95.25 117.6875 95.25 C117.4922876 94.72269287 117.2970752 94.19538574 117.09594727 93.65209961 C106.00693309 64.02459435 89.86323261 41.62818377 60.58984375 27.78515625 C57.65028375 26.51095962 54.69409293 25.35601095 51.6875 24.25 C50.78902344 23.90324219 49.89054687 23.55648438 48.96484375 23.19921875 C29.83082221 16.52935122 8.00563163 15.03001474 -12.125 15.0625 C-12.82091248 15.06310425 -13.51682495 15.0637085 -14.23382568 15.06433105 C-58.6081843 15.1677002 -102.69063044 21.98833202 -145.3125 34.25 C-146.3864502 34.55599121 -147.46040039 34.86198242 -148.56689453 35.17724609 C-163.44360427 39.46547511 -177.91722495 44.44790338 -192.3125 50.125 C-193.0311322 50.40771759 -193.7497644 50.69043518 -194.49017334 50.98171997 C-202.49010688 53.97439685 -202.49010688 53.97439685 -209.98046875 57.98876953 C-212.3125 59.25 -212.3125 59.25 -214.625 58.9375 C-215.181875 58.710625 -215.73875 58.48375 -216.3125 58.25 C-159.20214031 29.64020642 -96.9467673 8.50188574 -33.3125 1.25 C-32.41829346 1.146875 -31.52408691 1.04375 -30.6027832 0.9375 C-20.4336728 -0.07175154 -10.20898392 0.00630422 0 0 Z " fill="#FC0000" transform="translate(487.3125,385.75)"/>
<path d="M0 0 C9.24 0 18.48 0 28 0 C25.88405797 12.69565217 25.88405797 12.69565217 24 18 C23.18154054 21.23457593 22.46988243 24.49226163 21.75 27.75 C21.30900425 29.71623795 20.86757948 31.68237971 20.42578125 33.6484375 C20.19455566 34.6806543 19.96333008 35.71287109 19.72509766 36.77636719 C16.56782956 50.81292205 13.35282295 64.83405112 9.8046875 78.77734375 C9.11177297 81.55236554 8.47391025 84.32854985 7.875 87.125 C7 91 7 91 6.03735352 93.86816406 C5.03625274 96.89055069 4.25185623 99.8852237 3.52734375 102.984375 C3.26759766 104.08394531 3.00785156 105.18351563 2.74023438 106.31640625 C2.47533203 107.44949219 2.21042969 108.58257813 1.9375 109.75 C1.40720464 112.01615427 0.87476249 114.28180761 0.33984375 116.546875 C0.10644287 117.54557617 -0.12695801 118.54427734 -0.36743164 119.57324219 C-1 122 -1 122 -2 124 C-10.91 124 -19.82 124 -29 124 C-27.87528345 113.87755102 -27.87528345 113.87755102 -26.80078125 109.53125 C-26.56423828 108.5611499 -26.32769531 107.5910498 -26.08398438 106.59155273 C-25.82939453 105.57134033 -25.57480469 104.55112793 -25.3125 103.5 C-24.76673664 101.27218206 -24.22116922 99.04431612 -23.67578125 96.81640625 C-23.2573999 95.11895264 -23.2573999 95.11895264 -22.83056641 93.38720703 C-21.7813064 89.10812611 -20.75921786 84.8228332 -19.73852539 80.53686523 C-16.25341243 65.91091184 -12.65265052 51.31234391 -8.91015625 36.75 C-6.60705034 27.72256478 -4.58372415 18.65484786 -2.66186523 9.53881836 C-2.46020752 8.59014893 -2.2585498 7.64147949 -2.05078125 6.6640625 C-1.87200439 5.81279785 -1.69322754 4.9615332 -1.5090332 4.08447266 C-1 2 -1 2 0 0 Z " fill="#FF0000" transform="translate(1049,449)"/>
<path d="M0 0 C9.9 0 19.8 0 30 0 C28.87523254 8.99813965 28.87523254 8.99813965 28.01953125 12.49609375 C27.73227173 13.68609985 27.73227173 13.68609985 27.43920898 14.90014648 C27.23239502 15.73747314 27.02558105 16.5747998 26.8125 17.4375 C26.36184584 19.29163427 25.9113312 21.14580245 25.4609375 23 C25.22342773 23.97195313 24.98591797 24.94390625 24.74121094 25.9453125 C23.97413669 29.10658817 23.22337854 32.27138055 22.4765625 35.4375 C20.15325352 45.2660334 17.80055686 55.04769928 14.9375 64.734375 C12.25941582 74.0630349 10.10476198 83.52857109 8 93 C-2.23 93 -12.46 93 -23 93 C-22.37425256 87.368273 -21.74649977 82.22216473 -20.5625 76.75 C-20.31628906 75.58984375 -20.07007813 74.4296875 -19.81640625 73.234375 C-19 70 -19 70 -18.02954102 67.64282227 C-16.97239037 64.92912634 -16.3153318 62.32748402 -15.7109375 59.48046875 C-15.49179687 58.45888672 -15.27265625 57.43730469 -15.046875 56.38476562 C-14.82515625 55.32966797 -14.6034375 54.27457031 -14.375 53.1875 C-14.14554687 52.11306641 -13.91609375 51.03863281 -13.6796875 49.93164062 C-13.11583354 47.28857517 -12.55607869 44.64471026 -12 42 C-11.34 42 -10.68 42 -10 42 C-9.81050781 40.06640625 -9.81050781 40.06640625 -9.6171875 38.09375 C-9.06700787 33.15950747 -8.16196697 28.35237216 -7.125 23.5 C-6.96386719 22.70980469 -6.80273438 21.91960937 -6.63671875 21.10546875 C-5.09094801 13.78402751 -2.77733376 6.94333439 0 0 Z " fill="#000000" transform="translate(495,480)"/>
<path d="M0 0 C8.91 0 17.82 0 27 0 C23.63586957 20.18478261 23.63586957 20.18478261 22.0859375 24.609375 C20.58501039 29.29572295 19.63292178 34.06204538 18.625 38.875 C16.85435723 47.18709277 14.9487043 55.43969647 12.83984375 63.671875 C12.13072494 66.48196441 11.48022713 69.29122336 10.875 72.125 C10.1061085 75.53009092 9.10183368 78.69449895 8 82 C7.34 84.97 6.68 87.94 6 91 C-2.91 91 -11.82 91 -21 91 C-20.35437364 84.54373638 -19.64918182 78.61715812 -18.1875 72.375 C-18.01299316 71.60865234 -17.83848633 70.84230469 -17.65869141 70.05273438 C-16.30920998 64.18122164 -14.85445311 58.33724528 -13.36450195 52.5 C-12.24687811 48.09416518 -11.283866 43.68634451 -10.4921875 39.2109375 C-10 37 -10 37 -9.0625 34.26171875 C-7.79257606 30.36323902 -6.96351837 26.44650585 -6.125 22.4375 C-4.48279165 14.79008423 -2.42362326 7.44398573 0 0 Z " fill="#FF0000" transform="translate(1084,482)"/>
<path d="M0 0 C3.77126791 1.01180358 4.78414572 1.67621858 7 5 C7.1953125 7.26171875 7.1953125 7.26171875 7.125 9.6875 C7.10695313 10.49574219 7.08890625 11.30398438 7.0703125 12.13671875 C7.04710937 12.75160156 7.02390625 13.36648438 7 14 C8.14670384 13.14700232 9.29228934 12.29250133 10.4375 11.4375 C11.16324219 10.89609375 11.88898437 10.3546875 12.63671875 9.796875 C15.78489871 7.40321751 18.85596235 4.91591557 21.921875 2.41796875 C24.07596483 0.94816686 25.40846808 0.23283295 28 0 C30.140625 0.77734375 30.140625 0.77734375 32.25 1.9375 C32.95640625 2.31777344 33.6628125 2.69804687 34.390625 3.08984375 C35.18726563 3.54037109 35.18726563 3.54037109 36 4 C34.61065083 7.15052041 32.99788036 9.22003223 30.5234375 11.6015625 C29.853125 12.25640625 29.1828125 12.91125 28.4921875 13.5859375 C27.79351563 14.25882812 27.09484375 14.93171875 26.375 15.625 C24.98247895 16.96669911 23.59421233 18.31283265 22.2109375 19.6640625 C21.59524902 20.25654785 20.97956055 20.8490332 20.34521484 21.45947266 C18.78075211 22.91021458 18.78075211 22.91021458 19 25 C19.69867187 25.15855469 20.39734375 25.31710937 21.1171875 25.48046875 C28.54193404 27.38398026 28.54193404 27.38398026 30.8125 30.4375 C31 33 31 33 29.8671875 35.11328125 C27.38161797 37.62485046 25.79432287 37.58614951 22.3125 37.75 C21.31863281 37.80671875 20.32476563 37.8634375 19.30078125 37.921875 C18.54152344 37.94765625 17.78226563 37.9734375 17 38 C17.54140625 38.72316406 17.54140625 38.72316406 18.09375 39.4609375 C18.5578125 40.09257812 19.021875 40.72421875 19.5 41.375 C19.9640625 42.00148438 20.428125 42.62796875 20.90625 43.2734375 C22 45 22 45 22 47 C22.66 47 23.32 47 24 47 C25.75 49.25 25.75 49.25 27 52 C26.05757694 55.88749514 23.11054028 57.70802295 20 60 C19.57589844 59.62488281 19.15179687 59.24976563 18.71484375 58.86328125 C14.63482662 55.30335421 10.4486524 52.08682003 6 49 C5.67 50.98 5.34 52.96 5 55 C1.49852959 56.1671568 -1.32670036 56.13357453 -5 56 C-5.66 55.67 -6.32 55.34 -7 55 C-7 52.36 -7 49.72 -7 47 C-11.95 50.63 -16.9 54.26 -22 58 C-27.625 53.5 -27.625 53.5 -29 50 C-27.625 48 -27.625 48 -26 46 C-25.34 46 -24.68 46 -24 46 C-23.773125 45.443125 -23.54625 44.88625 -23.3125 44.3125 C-21.64103234 41.36753316 -19.44723648 39.31843456 -17 37 C-17.68707031 36.81824219 -18.37414062 36.63648438 -19.08203125 36.44921875 C-20.43361328 36.07216797 -20.43361328 36.07216797 -21.8125 35.6875 C-22.70582031 35.44386719 -23.59914063 35.20023437 -24.51953125 34.94921875 C-27.08464373 33.96760878 -28.34433178 33.16930787 -30 31 C-30.125 28.5 -30.125 28.5 -29 26 C-24.9498888 23.74128414 -21.64406686 22.5778121 -17 23 C-17.66 22.05125 -18.32 21.1025 -19 20.125 C-21 17 -21 17 -21 15 C-21.66 15 -22.32 15 -23 15 C-24.98 11.535 -24.98 11.535 -27 8 C-26.09972412 6.96468274 -25.17906965 5.94705835 -24.25 4.9375 C-23.48429687 4.08478516 -23.48429687 4.08478516 -22.703125 3.21484375 C-21 2 -21 2 -19.15625 2 C-16.02341847 3.45290738 -13.7204665 5.70550637 -11.25 8.0625 C-10.74339844 8.53494141 -10.23679687 9.00738281 -9.71484375 9.49414062 C-8.47050387 10.65630711 -7.23441936 11.82730161 -6 13 C-5.81824219 12.22914063 -5.63648438 11.45828125 -5.44921875 10.6640625 C-5.19785156 9.66117187 -4.94648438 8.65828125 -4.6875 7.625 C-4.44386719 6.62726563 -4.20023437 5.62953125 -3.94921875 4.6015625 C-3 2 -3 2 0 0 Z " fill="#0944FE" transform="translate(513,425)"/>
<path d="M0 0 C0.66 0.33 1.32 0.66 2 1 C1.4652002 1.52432617 0.93040039 2.04865234 0.37939453 2.58886719 C-2.0439862 4.97063804 -4.45954024 7.36019763 -6.875 9.75 C-8.13763672 10.9875 -8.13763672 10.9875 -9.42578125 12.25 C-10.63427734 13.44882812 -10.63427734 13.44882812 -11.8671875 14.671875 C-12.61081543 15.4050293 -13.35444336 16.13818359 -14.12060547 16.89355469 C-15.90027677 18.88822915 -17.08257818 20.49506249 -18 23 C-17.505 23.99 -17.505 23.99 -17 25 C-14.19019327 25.69227032 -14.19019327 25.69227032 -10.9375 26.125 C-9.83277344 26.29257812 -8.72804688 26.46015625 -7.58984375 26.6328125 C-6.30787109 26.81457031 -6.30787109 26.81457031 -5 27 C-5 27.33 -5 27.66 -5 28 C-9.76307437 28.95261487 -14.1666528 29.08333357 -19 29 C-17.60736986 34.26638293 -15.22915161 37.72224086 -11.875 41.875 C-11.40707031 42.46796875 -10.93914063 43.0609375 -10.45703125 43.671875 C-9.31214408 45.12050774 -8.15709683 46.56110099 -7 48 C-7.495 48.99 -7.495 48.99 -8 50 C-8.43868408 49.58113525 -8.87736816 49.16227051 -9.3293457 48.73071289 C-11.31901267 46.83628054 -13.31563626 44.9493437 -15.3125 43.0625 C-16.00279297 42.40314453 -16.69308594 41.74378906 -17.40429688 41.06445312 C-18.40493164 40.12182617 -18.40493164 40.12182617 -19.42578125 39.16015625 C-20.03848877 38.57886963 -20.65119629 37.99758301 -21.2824707 37.39868164 C-23.05845439 35.78393229 -23.05845439 35.78393229 -26 35 C-26.66 39.29 -27.32 43.58 -28 48 C-28.33 48 -28.66 48 -29 48 C-29.98248524 43.9472484 -30.08159574 40.16138263 -30 36 C-35.27851638 36.42946509 -37.81655634 38.09085567 -41.75 41.5625 C-46.8174727 46 -46.8174727 46 -49 46 C-47.17428917 41.69858705 -44.20815537 39.26008816 -40.77734375 36.1953125 C-38.43947591 33.67642753 -38.43947591 33.67642753 -38 28 C-42.29 27.34 -46.58 26.68 -51 26 C-51 25.67 -51 25.34 -51 25 C-46.05 24.67 -41.1 24.34 -36 24 C-38.10710801 18.26398376 -40.90670945 14.48215315 -45 10 C-45.9646613 8.85948898 -46.92350846 7.71402102 -47.875 6.5625 C-48.57625 5.716875 -49.2775 4.87125 -50 4 C-49.67 3.34 -49.34 2.68 -49 2 C-48.14728516 2.87011719 -48.14728516 2.87011719 -47.27734375 3.7578125 C-39.33543494 12.7904844 -39.33543494 12.7904844 -29 18 C-28.95101562 17.18015625 -28.90203125 16.3603125 -28.8515625 15.515625 C-28.77679687 14.43796875 -28.70203125 13.3603125 -28.625 12.25 C-28.55539062 11.18265625 -28.48578125 10.1153125 -28.4140625 9.015625 C-28 6 -28 6 -26 2 C-25.67 6.95 -25.34 11.9 -25 17 C-20.20747038 16.12888841 -20.20747038 16.12888841 -16.66015625 13.671875 C-16.07169922 13.20136719 -15.48324219 12.73085938 -14.87695312 12.24609375 C-13.97879883 11.50552734 -13.97879883 11.50552734 -13.0625 10.75 C-12.46759766 10.27175781 -11.87269531 9.79351562 -11.25976562 9.30078125 C-7.47032523 6.24438015 -3.73385007 3.12389288 0 0 Z " fill="#F9F9F2" transform="translate(541,429)"/>
<path d="M0 0 C1.12591553 0.00523682 2.25183105 0.01047363 3.41186523 0.01586914 C4.62680664 0.0190918 5.84174805 0.02231445 7.09350586 0.02563477 C8.37290039 0.03401367 9.65229492 0.04239258 10.97045898 0.05102539 C12.2537207 0.05553711 13.53698242 0.06004883 14.85913086 0.06469727 C18.04211921 0.07652994 21.22501661 0.09301471 24.40795898 0.11352539 C23.7249623 5.52717278 22.63044919 10.75089434 21.34545898 16.05102539 C20.70608398 18.71165039 20.06670898 21.37227539 19.40795898 24.11352539 C10.16795898 24.11352539 0.92795898 24.11352539 -8.59204102 24.11352539 C-7.93204102 21.14352539 -7.27204102 18.17352539 -6.59204102 15.11352539 C-5.81502774 11.39575853 -5.04265333 7.6771167 -4.27563477 3.95727539 C-3.35973895 0.14714878 -3.35973895 0.14714878 0 0 Z " fill="#FF0000" transform="translate(1094.592041015625,448.886474609375)"/>
<path d="M0 0 C3.16115776 1.36983503 3.9927092 1.9890638 6 5 C6 6.32 6 7.64 6 9 C2.37 9.66 -1.26 10.32 -5 11 C-0.545 11.99 -0.545 11.99 4 13 C4.33 14.32 4.66 15.64 5 17 C3.7421875 18.9296875 3.7421875 18.9296875 1.875 20.875 C-1.22133101 24.15737665 -4.13231534 27.51710271 -7 31 C-5.44539063 29.79150391 -5.44539063 29.79150391 -3.859375 28.55859375 C-2.49009019 27.51756215 -1.12027047 26.47723387 0.25 25.4375 C0.93191406 24.90447266 1.61382812 24.37144531 2.31640625 23.82226562 C2.98027344 23.32275391 3.64414062 22.82324219 4.328125 22.30859375 C4.9355957 21.84251709 5.54306641 21.37644043 6.16894531 20.89624023 C8 20 8 20 10.22949219 20.35571289 C10.81375977 20.56832764 11.39802734 20.78094238 12 21 C12.33 23.31 12.66 25.62 13 28 C13.99 25.36 14.98 22.72 16 20 C20.1979784 21.0494946 21.37343896 21.7167987 24 25 C24 26.32 24 27.64 24 29 C22.02 28.34 20.04 27.68 18 27 C17.90912109 27.95712891 17.90912109 27.95712891 17.81640625 28.93359375 C17.73261719 29.75988281 17.64882813 30.58617187 17.5625 31.4375 C17.48128906 32.26121094 17.40007813 33.08492188 17.31640625 33.93359375 C17 36 17 36 16 37 C9.47457627 37.23728814 9.47457627 37.23728814 7 36 C7 33.36 7 30.72 7 28 C2.05 31.63 -2.9 35.26 -8 39 C-13.625 34.5 -13.625 34.5 -15 31 C-13.625 29 -13.625 29 -12 27 C-11.34 27 -10.68 27 -10 27 C-9.74476563 26.40703125 -9.48953125 25.8140625 -9.2265625 25.203125 C-7.88183502 22.78775462 -6.50785633 21.48788294 -4.375 19.75 C-3.42753906 18.96882813 -3.42753906 18.96882813 -2.4609375 18.171875 C-1.73777344 17.59179688 -1.73777344 17.59179688 -1 17 C-3.04707614 14.95292386 -6.88172668 15.07204968 -9.65234375 14.59765625 C-12 14 -12 14 -14 12 C-13.8125 10 -13.8125 10 -13 8 C-9.68629 5.79086 -8.6553979 5.77518447 -4.8125 5.875 C-3.91144531 5.89304687 -3.01039063 5.91109375 -2.08203125 5.9296875 C-1.39496094 5.95289063 -0.70789063 5.97609375 0 6 C-0.33 5.01 -0.66 4.02 -1 3 C-0.67 2.01 -0.34 1.02 0 0 Z " fill="#0742FE" transform="translate(499,444)"/>
<path d="M0 0 C3.77126791 1.01180358 4.78414572 1.67621858 7 5 C7.1953125 7.26171875 7.1953125 7.26171875 7.125 9.6875 C7.10695313 10.49574219 7.08890625 11.30398438 7.0703125 12.13671875 C7.04710937 12.75160156 7.02390625 13.36648438 7 14 C8.65 13.34 10.3 12.68 12 12 C10.3545622 13.68762851 8.68711423 15.3540349 7 17 C6.67 17 6.34 17 6 17 C5.01 10.565 5.01 10.565 4 4 C2.35 4 0.7 4 -1 4 C-1.50588147 5.91512272 -2.00448391 7.83216922 -2.5 9.75 C-2.7784375 10.81734375 -3.056875 11.8846875 -3.34375 12.984375 C-4.14175989 16.13705302 -4.14175989 16.13705302 -4 20 C-8.50419983 19.14590173 -11.03017333 16.52252531 -14.25 13.4375 C-14.80429687 12.91736328 -15.35859375 12.39722656 -15.9296875 11.86132812 C-17.29256828 10.58069015 -18.64711683 9.2911951 -20 8 C-19.55140625 8.59039062 -19.1028125 9.18078125 -18.640625 9.7890625 C-12.89339221 17.53414288 -12.89339221 17.53414288 -13.25 22.4375 C-13.4975 23.283125 -13.745 24.12875 -14 25 C-14.68707031 25.04898437 -15.37414062 25.09796875 -16.08203125 25.1484375 C-16.98308594 25.22320312 -17.88414062 25.29796875 -18.8125 25.375 C-19.70582031 25.44460938 -20.59914063 25.51421875 -21.51953125 25.5859375 C-24.24398499 25.86645036 -24.24398499 25.86645036 -27 28 C-26.67 29.32 -26.34 30.64 -26 32 C-22.04 32.99 -18.08 33.98 -14 35 C-14.66 35.66 -15.32 36.32 -16 37 C-17.77395508 36.57533503 -19.54410631 36.1347591 -21.3125 35.6875 C-22.29863281 35.44386719 -23.28476562 35.20023437 -24.30078125 34.94921875 C-27.02551976 33.99102561 -28.29257661 33.29778673 -30 31 C-30.125 28.5 -30.125 28.5 -29 26 C-24.9498888 23.74128414 -21.64406686 22.5778121 -17 23 C-17.66 22.05125 -18.32 21.1025 -19 20.125 C-21 17 -21 17 -21 15 C-21.66 15 -22.32 15 -23 15 C-24.98 11.535 -24.98 11.535 -27 8 C-26.09972412 6.96468274 -25.17906965 5.94705835 -24.25 4.9375 C-23.48429687 4.08478516 -23.48429687 4.08478516 -22.703125 3.21484375 C-21 2 -21 2 -19.15625 2 C-16.02341847 3.45290738 -13.7204665 5.70550637 -11.25 8.0625 C-10.74339844 8.53494141 -10.23679687 9.00738281 -9.71484375 9.49414062 C-8.47050387 10.65630711 -7.23441936 11.82730161 -6 13 C-5.81824219 12.22914063 -5.63648438 11.45828125 -5.44921875 10.6640625 C-5.19785156 9.66117187 -4.94648438 8.65828125 -4.6875 7.625 C-4.44386719 6.62726563 -4.20023437 5.62953125 -3.94921875 4.6015625 C-3 2 -3 2 0 0 Z " fill="#063DFE" transform="translate(513,425)"/>
<path d="M0 0 C0.86625 0.268125 1.7325 0.53625 2.625 0.8125 C2.625 1.8025 2.625 2.7925 2.625 3.8125 C0.99342201 4.8687817 -0.68471174 5.85296711 -2.375 6.8125 C-4.9530876 8.74122237 -7.44089305 10.77986425 -9.9375 12.8125 C-11.8675151 14.37462366 -13.79809703 15.93550537 -15.73876953 17.484375 C-17.03325608 18.53510715 -18.28819598 19.63454212 -19.52734375 20.75 C-21.375 21.8125 -21.375 21.8125 -26.375 20.8125 C-26.705 17.1825 -27.035 13.5525 -27.375 9.8125 C-28.035 13.7725 -28.695 17.7325 -29.375 21.8125 C-31.025 21.4825 -32.675 21.1525 -34.375 20.8125 C-33.13471762 14.64027121 -31.47896411 8.74567878 -29.375 2.8125 C-27.725 2.8125 -26.075 2.8125 -24.375 2.8125 C-22.34334048 7.14670699 -21.85439368 11.09846212 -21.375 15.8125 C-20.694375 15.11125 -20.01375 14.41 -19.3125 13.6875 C-16.70449463 11.07949463 -13.96561307 8.66926089 -11.1328125 6.30859375 C-9.99144454 5.3371628 -8.87909623 4.33016573 -7.8046875 3.28515625 C-5.01784574 0.65151783 -3.91494702 -0.21749706 0 0 Z " fill="#0A48FE" transform="translate(541.375,425.1875)"/>
<path d="M0 0 C1.32 0.66 2.64 1.32 4 2 C2.61065083 5.15052041 0.99788036 7.22003223 -1.4765625 9.6015625 C-2.146875 10.25640625 -2.8171875 10.91125 -3.5078125 11.5859375 C-4.20648437 12.25882812 -4.90515625 12.93171875 -5.625 13.625 C-7.01752105 14.96669911 -8.40578767 16.31283265 -9.7890625 17.6640625 C-10.40475098 18.25654785 -11.02043945 18.8490332 -11.65478516 19.45947266 C-13.21924789 20.91021458 -13.21924789 20.91021458 -13 23 C-11.95199219 23.23783203 -11.95199219 23.23783203 -10.8828125 23.48046875 C-3.45806596 25.38398026 -3.45806596 25.38398026 -1.1875 28.4375 C-1 31 -1 31 -2.13671875 33.12109375 C-4.62021864 35.62541964 -6.15083007 35.52416657 -9.625 35.625 C-12.51046981 35.68405567 -12.51046981 35.68405567 -15 36 C-15.33 36.66 -15.66 37.32 -16 38 C-16.66 37.01 -17.32 36.02 -18 35 C-16.35696827 33.35696827 -14.31992705 33.68137147 -12.0625 33.5 C-8.39442535 33.24785057 -8.39442535 33.24785057 -5 32 C-5 30.68 -5 29.36 -5 28 C-8.7522584 26.34315863 -12.26353061 25.49791837 -16.3125 24.875 C-17.38113281 24.70742188 -18.44976563 24.53984375 -19.55078125 24.3671875 C-20.35902344 24.24601562 -21.16726563 24.12484375 -22 24 C-19.91705452 20.23321888 -17.61077657 17.37439031 -14.55078125 14.35546875 C-13.27944336 13.09379883 -13.27944336 13.09379883 -11.98242188 11.80664062 C-11.10134766 10.94232422 -10.22027344 10.07800781 -9.3125 9.1875 C-8.41982422 8.30384766 -7.52714844 7.42019531 -6.60742188 6.50976562 C-4.40940071 4.33525271 -2.2068407 2.16555573 0 0 Z " fill="#0540FE" transform="translate(545,427)"/>
<path d="M0 0 C13.81776765 0.59453303 13.81776765 0.59453303 19 4 C18.625 6.4375 18.625 6.4375 18 9 C15.62508386 10.18745807 13.83161221 10.24325487 11.1875 10.4375 C7.45448472 10.77244493 4.39329294 11.30335353 1 13 C0 12 0 12 -0.0625 9.4375 C-0.041875 8.633125 -0.02125 7.82875 0 7 C2.64 6.67 5.28 6.34 8 6 C8 5.67 8 5.34 8 5 C6.865625 4.731875 5.73125 4.46375 4.5625 4.1875 C3.386875 3.795625 2.21125 3.40375 1 3 C0.67 2.01 0.34 1.02 0 0 Z " fill="#1357FE" transform="translate(522,451)"/>
<path d="M0 0 C4.55615774 3.83131446 9.01762051 7.76284054 13.4375 11.75 C13.98180664 12.23380127 14.52611328 12.71760254 15.08691406 13.21606445 C16.43011543 14.43593241 17.72013875 15.71383402 19 17 C19 17.66 19 18.32 19 19 C18.34 19 17.68 19 17 19 C17 19.66 17 20.32 17 21 C16.34 21 15.68 21 15 21 C15.20625 21.53625 15.4125 22.0725 15.625 22.625 C16.1389488 25.8800091 15.26684844 27.99956947 14 31 C13.34 31.33 12.68 31.66 12 32 C12 30.02 12 28.04 12 26 C7.71 25.34 3.42 24.68 -1 24 C-1 23.67 -1 23.34 -1 23 C3.95 22.67 8.9 22.34 14 22 C11.89487141 16.26937217 9.10171516 12.47086953 5 8 C0 2.32291667 0 2.32291667 0 0 Z " fill="#ECEEE1" transform="translate(491,431)"/>
<path d="M0 0 C1.27310312 0.93441535 2.543388 1.87267111 3.8125 2.8125 C4.52019531 3.33457031 5.22789062 3.85664063 5.95703125 4.39453125 C7.79961207 5.84252498 9.46364869 7.23101505 11 9 C11 9.66 11 10.32 11 11 C11.99 11.33 12.98 11.66 14 12 C12.35 12.99 10.7 13.98 9 15 C8.48050781 14.45730469 7.96101562 13.91460937 7.42578125 13.35546875 C2.24345698 8.00470957 2.24345698 8.00470957 -4 4 C-4.33 5.98 -4.66 7.96 -5 10 C-5.66 10 -6.32 10 -7 10 C-6.67 7.03 -6.34 4.06 -6 1 C-2 2 -2 2 0 3 C0 2.01 0 1.02 0 0 Z " fill="#022EFE" transform="translate(523,470)"/>
<path d="M0 0 C3.78695173 0.5409931 5.62745972 2.03432464 8 5 C8 6.32 8 7.64 8 9 C6.02 8.34 4.04 7.68 2 7 C1.67 9.97 1.34 12.94 1 16 C-0.65 16 -2.3 16 -4 16 C-4 13.36 -4 10.72 -4 8 C-3.34 7.67 -2.68 7.34 -2 7 C-1.26924352 4.6859378 -0.59861742 2.35171131 0 0 Z " fill="#195AFE" transform="translate(515,464)"/>
<path d="M0 0 C0.99 0 1.98 0 3 0 C2.68926976 2.22941405 2.37634375 4.45852212 2.0625 6.6875 C1.88847656 7.92886719 1.71445312 9.17023438 1.53515625 10.44921875 C1.10177103 13.32474548 0.60350718 16.15644813 0 19 C-1.65 18.67 -3.3 18.34 -5 18 C-3.75971762 11.82777121 -2.10396411 5.93317878 0 0 Z " fill="#1356FF" transform="translate(512,428)"/>
<path d="M0 0 C3.77126791 1.01180358 4.78414572 1.67621858 7 5 C7.1953125 7.26171875 7.1953125 7.26171875 7.125 9.6875 C7.10695313 10.49574219 7.08890625 11.30398438 7.0703125 12.13671875 C7.04710937 12.75160156 7.02390625 13.36648438 7 14 C8.65 13.34 10.3 12.68 12 12 C10.3545622 13.68762851 8.68711423 15.3540349 7 17 C6.67 17 6.34 17 6 17 C5.34 12.71 4.68 8.42 4 4 C2.35 4 0.7 4 -1 4 C-1.99 7.96 -2.98 11.92 -4 16 C-7.76687864 14.11656068 -8.79421646 13.30867531 -11 10 C-7.125 11.875 -7.125 11.875 -6 13 C-5.81824219 12.22914063 -5.63648438 11.45828125 -5.44921875 10.6640625 C-5.19785156 9.66117187 -4.94648438 8.65828125 -4.6875 7.625 C-4.44386719 6.62726563 -4.20023437 5.62953125 -3.94921875 4.6015625 C-3 2 -3 2 0 0 Z " fill="#0004FF" transform="translate(513,425)"/>
<path d="M0 0 C0.66 0.66 1.32 1.32 2 2 C3.65395621 2.48333518 5.32328295 2.91525454 7 3.3125 C11.75923928 4.67621835 11.75923928 4.67621835 13.8125 7.4375 C14 10 14 10 12.86328125 12.12109375 C10.37978136 14.62541964 8.84916993 14.52416657 5.375 14.625 C2.48953019 14.68405567 2.48953019 14.68405567 0 15 C-0.33 15.66 -0.66 16.32 -1 17 C-1.66 16.01 -2.32 15.02 -3 14 C-1.35696827 12.35696827 0.68007295 12.68137147 2.9375 12.5 C6.60557465 12.24785057 6.60557465 12.24785057 10 11 C10 9.68 10 8.36 10 7 C6.07561214 5.33510818 2.10899581 4.12795963 -2 3 C-1.34 2.01 -0.68 1.02 0 0 Z " fill="#0004FF" transform="translate(530,448)"/>
<path d="M0 0 C0.99 1.32 1.98 2.64 3 4 C1.2711195 5.41701589 -0.45811746 6.83359686 -2.1875 8.25 C-3.63189453 9.43335938 -3.63189453 9.43335938 -5.10546875 10.640625 C-6.53826172 11.80851562 -6.53826172 11.80851562 -8 13 C-8.90363281 13.75796875 -9.80726563 14.5159375 -10.73828125 15.296875 C-13 17 -13 17 -15 17 C-13.56246045 13.68997304 -11.77516456 11.56110536 -9.1875 9.0625 C-8.47980469 8.37285156 -7.77210938 7.68320312 -7.04296875 6.97265625 C-6.03169922 5.99619141 -6.03169922 5.99619141 -5 5 C-3.99761052 4.0023952 -2.99713879 3.00285305 -2 2 C-1.34 1.34 -0.68 0.68 0 0 Z " fill="#EFEFDC" transform="translate(507,458)"/>
<path d="M0 0 C1.70884005 1.62339805 3.37446717 3.29319053 5 5 C5 5.66 5 6.32 5 7 C4.31292969 7.04898437 3.62585938 7.09796875 2.91796875 7.1484375 C2.01691406 7.22320312 1.11585938 7.29796875 0.1875 7.375 C-0.70582031 7.44460938 -1.59914063 7.51421875 -2.51953125 7.5859375 C-5.24398499 7.86645036 -5.24398499 7.86645036 -8 10 C-7.67 11.32 -7.34 12.64 -7 14 C-1.06 15.485 -1.06 15.485 5 17 C4.34 17.66 3.68 18.32 3 19 C1.22604492 18.57533503 -0.54410631 18.1347591 -2.3125 17.6875 C-3.29863281 17.44386719 -4.28476562 17.20023437 -5.30078125 16.94921875 C-8.02551976 15.99102561 -9.29257661 15.29778673 -11 13 C-11.125 10.5 -11.125 10.5 -10 8 C-5.9498888 5.74128414 -2.64406686 4.5778121 2 5 C1.34 3.35 0.68 1.7 0 0 Z " fill="#0003FF" transform="translate(494,443)"/>
<path d="M0 0 C1.59755842 1.3544517 3.19197153 2.71273042 4.7734375 4.0859375 C6.40530154 5.48876799 8.05976462 6.86542383 9.7265625 8.2265625 C10.64179688 8.99742187 11.55703125 9.76828125 12.5 10.5625 C13.3765625 11.28566406 14.253125 12.00882812 15.15625 12.75390625 C17 15 17 15 16.78125 17.77734375 C16.5234375 18.51082031 16.265625 19.24429687 16 20 C12.07795349 16.1933078 8.51741796 12.18038679 5 8 C4.50757813 7.43539063 4.01515625 6.87078125 3.5078125 6.2890625 C0 2.22634181 0 2.22634181 0 0 Z " fill="#F5F1CC" transform="translate(491,431)"/>
<path d="M0 0 C0.33 0 0.66 0 1 0 C1.03738281 1.05960937 1.07476563 2.11921875 1.11328125 3.2109375 C1.17893258 4.59899424 1.24538021 5.98701349 1.3125 7.375 C1.33505859 8.07367188 1.35761719 8.77234375 1.38085938 9.4921875 C1.46984296 11.77288941 1.46984296 11.77288941 2 15 C2.99 15.66 3.98 16.32 5 17 C2 19 2 19 -2 19 C-2.24794402 12.4294834 -1.32388229 6.43028541 0 0 Z " fill="#E2E7E7" transform="translate(514,431)"/>
<path d="M0 0 C3.78695173 0.5409931 5.62745972 2.03432464 8 5 C8 6.32 8 7.64 8 9 C7.01 8.67 6.02 8.34 5 8 C5 7.34 5 6.68 5 6 C3.02 6.33 1.04 6.66 -1 7 C-0.67 4.69 -0.34 2.38 0 0 Z " fill="#024CFF" transform="translate(515,464)"/>
<path d="M0 0 C0.66 0.33 1.32 0.66 2 1 C-0.04765992 3.18257163 -2.11103219 5.34513265 -4.1875 7.5 C-5.0547168 8.43005859 -5.0547168 8.43005859 -5.93945312 9.37890625 C-10.34516693 13.90907525 -10.34516693 13.90907525 -13.92578125 14.40625 C-14.61027344 14.2721875 -15.29476562 14.138125 -16 14 C-12.56846086 10.46808678 -9.02624938 7.2862495 -5.1875 4.1875 C-4.21167969 3.39730469 -3.23585938 2.60710937 -2.23046875 1.79296875 C-1.49441406 1.20128906 -0.75835938 0.60960937 0 0 Z " fill="#F5F5E6" transform="translate(541,429)"/>
<path d="M0 0 C3.16115776 1.36983503 3.9927092 1.9890638 6 5 C6 6.32 6 7.64 6 9 C2.52674819 10.1577506 -0.36067448 10.06866652 -4 10 C-4 9.67 -4 9.34 -4 9 C-2.02 9 -0.04 9 2 9 C1.484375 8.071875 0.96875 7.14375 0.4375 6.1875 C-1 3 -1 3 0 0 Z " fill="#3A73FC" transform="translate(499,444)"/>
<path d="M0 0 C4.21814817 3.9700218 7.61227103 8.30840284 11 13 C10.67 13.66 10.34 14.32 10 15 C6.37 11.7 2.74 8.4 -1 5 C-0.34 4.67 0.32 4.34 1 4 C0.67 2.68 0.34 1.36 0 0 Z " fill="#CFDAE2" transform="translate(523,464)"/>
<path d="M0 0 C-0.11351517 1.81325551 -0.24112961 3.62563357 -0.375 5.4375 C-0.44460938 6.44683594 -0.51421875 7.45617187 -0.5859375 8.49609375 C-0.72257812 9.32238281 -0.85921875 10.14867187 -1 11 C-1.99 11.495 -1.99 11.495 -3 12 C-3.185625 10.14375 -3.185625 10.14375 -3.375 8.25 C-3.75746305 5.1237803 -4.30549523 2.71120763 -6 0 C-3.50907189 -1.24546405 -2.58919267 -0.7767578 0 0 Z " fill="#2465FE" transform="translate(511,465)"/>
<path d="M0 0 C4.39158329 1.4638611 4.87947433 3.97831338 7 8 C6.01 9.485 6.01 9.485 5 11 C0.07692308 5.70769231 0.07692308 5.70769231 -0.3125 2.125 C-0.209375 1.42375 -0.10625 0.7225 0 0 Z " fill="#0A4FFE" transform="translate(493,436)"/>
<path d="M0 0 C0.66 0 1.32 0 2 0 C2.09688221 5.44693314 2.12862175 10.63904667 1 16 C0.67 16 0.34 16 0 16 C-1.30677037 11.09961113 -1.31718286 6.03761016 -1 1 C-0.67 0.67 -0.34 0.34 0 0 Z " fill="#E9EDEC" transform="translate(512,461)"/>
<path d="M0 0 C7.66742597 4.81776765 7.66742597 4.81776765 9 10 C7.02 8.35 5.04 6.7 3 5 C3 5.66 3 6.32 3 7 C2.01 6.67 1.02 6.34 0 6 C-1.1875 3.4375 -1.1875 3.4375 -2 1 C-1.34 0.67 -0.68 0.34 0 0 Z " fill="#0334FF" transform="translate(526,462)"/>
<path d="M0 0 C2.64 0 5.28 0 8 0 C8.33 0.99 8.66 1.98 9 3 C6.36 3.99 3.72 4.98 1 6 C0 5 0 5 -0.0625 2.4375 C-0.041875 1.633125 -0.02125 0.82875 0 0 Z " fill="#2062FE" transform="translate(522,458)"/>
<path d="M0 0 C1.07765625 0.11085938 2.1553125 0.22171875 3.265625 0.3359375 C4.08546875 0.43132812 4.9053125 0.52671875 5.75 0.625 C5.75 0.955 5.75 1.285 5.75 1.625 C0.98692563 2.57761487 -3.4166528 2.70833357 -8.25 2.625 C-8.58 3.945 -8.91 5.265 -9.25 6.625 C-9.58 4.975 -9.91 3.325 -10.25 1.625 C-6.69181064 -0.63773207 -4.12452049 -0.44831744 0 0 Z " fill="#D7E1EE" transform="translate(530.25,455.375)"/>
<path d="M0 0 C0.43570312 0.37511719 0.87140625 0.75023437 1.3203125 1.13671875 C5.18607599 4.45859777 9.07657648 7.74642927 13 11 C11.02 11.99 11.02 11.99 9 13 C7.68227638 11.40012144 6.37098863 9.79494034 5.0625 8.1875 C4.33160156 7.29417969 3.60070312 6.40085937 2.84765625 5.48046875 C1 3 1 3 0 0 Z " fill="#CED9E5" transform="translate(491,431)"/>
<path d="M0 0 C2.78388975 1.70625501 3.85384206 2.47626739 4.75 5.6875 C4.8325 6.450625 4.915 7.21375 5 8 C1.75728494 7.4409112 0.06942576 6.5867822 -2 4 C-2 3.34 -2 2.68 -2 2 C-1.34 2 -0.68 2 0 2 C0 1.34 0 0.68 0 0 Z " fill="#F5F1CE" transform="translate(519,460)"/>
<path d="M0 0 C2.64 0 5.28 0 8 0 C8.66 1.32 9.32 2.64 10 4 C9.34 4 8.68 4 8 4 C7.67 4.66 7.34 5.32 7 6 C7 4.35 7 2.7 7 1 C6.01 1.495 6.01 1.495 5 2 C4.67 2.99 4.34 3.98 4 5 C3.01 4.67 2.02 4.34 1 4 C1.33 3.34 1.66 2.68 2 2 C1.34 1.34 0.68 0.68 0 0 Z " fill="#EDF1F5" transform="translate(507,460)"/>
<path d="M0 0 C0.33 0 0.66 0 1 0 C1 3.3 1 6.6 1 10 C2.32 10.33 3.64 10.66 5 11 C2.69 11 0.38 11 -2 11 C-1.855625 10.29875 -1.71125 9.5975 -1.5625 8.875 C-0.98521625 5.92443859 -0.48304859 2.96729849 0 0 Z " fill="#0040E7" transform="translate(510,470)"/>
<path d="M0 0 C0.99 1.32 1.98 2.64 3 4 C1.35 5.32 -0.3 6.64 -2 8 C-2.66 7.67 -3.32 7.34 -4 7 C-2.79618552 4.50638429 -1.54571278 2.31856917 0 0 Z " fill="#FCF4CC" transform="translate(507,458)"/>
<path d="M0 0 C1.134375 0.020625 2.26875 0.04125 3.4375 0.0625 C3.7675 1.0525 4.0975 2.0425 4.4375 3.0625 C1.0625 3.1875 1.0625 3.1875 -2.5625 3.0625 C-3.2225 2.4025 -3.8825 1.7425 -4.5625 1.0625 C-3.5625 0.0625 -3.5625 0.0625 0 0 Z " fill="#0045FF" transform="translate(533.5625,457.9375)"/>
<path d="M0 0 C1.98 0.495 1.98 0.495 4 1 C4 1.99 4 2.98 4 4 C2.35 4 0.7 4 -1 4 C-0.67 2.68 -0.34 1.36 0 0 Z " fill="#5E8FFE" transform="translate(515,464)"/>
<path d="M0 0 C2.97 0.495 2.97 0.495 6 1 C5.625 3.4375 5.625 3.4375 5 6 C4.01 6.495 4.01 6.495 3 7 C3 5.02 3 3.04 3 1 C2.01 0.67 1.02 0.34 0 0 Z " fill="#C9D8F6" transform="translate(500,456)"/>
<path d="M0 0 C-1.36983503 3.16115776 -1.9890638 3.9927092 -5 6 C-5.33 5.01 -5.66 4.02 -6 3 C-4.60722783 0.21445565 -3.01148006 0 0 0 Z " fill="#FEF6CC" transform="translate(529,442)"/>
<path d="M0 0 C0.66 0 1.32 0 2 0 C1.67 2.64 1.34 5.28 1 8 C-1 6 -1 6 -1.1875 3.4375 C-1 1 -1 1 0 0 Z " fill="#FEF4C8" transform="translate(512,461)"/>
<path d="M0 0 C0.66 0.33 1.32 0.66 2 1 C-0.31 3.31 -2.62 5.62 -5 8 C-5.33 7.01 -5.66 6.02 -6 5 C-4.02 3.35 -2.04 1.7 0 0 Z " fill="#E0E9FE" transform="translate(541,429)"/>
</svg>
